<?xml version="1.0" standalone="no"?>
<!DOCTYPE svg PUBLIC "-//W3C//DTD SVG 1.1//EN" "http://www.w3.org/Graphics/SVG/1.1/DTD/svg11.dtd" >
<svg xmlns="http://www.w3.org/2000/svg" xmlns:xlink="http://www.w3.org/1999/xlink" version="1.1">
<metadata>
Created by FontForge 20190801 at Sun Jul 19 21:57:02 2015
 By Jimmy Wärting
Copyright (c) 2014 by Graviton. All rights reserved.
</metadata>
<defs>
<font id="SVN-Aguda" horiz-adv-x="630" >
  <font-face 
    font-family="SVN-Aguda"
    font-weight="400"
    font-stretch="normal"
    units-per-em="1000"
    panose-1="0 0 0 0 0 0 0 0 0 0"
    ascent="776"
    descent="-224"
    x-height="560"
    cap-height="720"
    bbox="-60 -240 1195 1068"
    underline-thickness="50"
    underline-position="-100"
    unicode-range="U+0020-FB99"
  />
<missing-glyph horiz-adv-x="800" 
d="M167 593c65 65 142 97 233 97s168 -32 233 -97s97 -142 97 -233s-32 -168 -97 -233s-142 -97 -233 -97s-168 32 -233 97s-97 142 -97 233s32 168 97 233zM538 180l42 42l-138 138l138 138l-42 42l-138 -138l-138 138l-42 -42l138 -138l-138 -138l42 -42l138 138z" />
    <glyph glyph-name="graviton" unicode="&#x6b3;" horiz-adv-x="565" arabic-form="medial" 
d="M231 222v113c0 7 3 10 10 10h77v-133h-77c-7 0 -10 3 -10 10zM330 522c-27 -27 -69 -27 -96 0s-27 71 0 98s69 27 96 0c28 -27 28 -71 0 -98zM132 402c41 42 91 63 150 63s109 -21 150 -63c42 -41 63 -91 63 -150s-21 -109 -63 -150c-41 -41 -91 -62 -150 -62
s-109 21 -150 62s-62 91 -62 150s21 109 62 150zM354 158v217c0 2 -1 3 -3 3h-110c-25 0 -47 -21 -47 -46v-107c0 -25 22 -47 47 -47h77v-23c0 -7 -3 -10 -10 -10h-70c-3 0 -4 -1 -4 -3v-27c0 -2 1 -3 4 -3h70c25 0 46 21 46 46z" />
    <glyph glyph-name=".notdef" horiz-adv-x="800" 
d="M167 593c65 65 142 97 233 97s168 -32 233 -97s97 -142 97 -233s-32 -168 -97 -233s-142 -97 -233 -97s-168 32 -233 97s-97 142 -97 233s32 168 97 233zM538 180l42 42l-138 138l138 138l-42 42l-138 -138l-138 138l-42 -42l138 -138l-138 -138l42 -42l138 138z" />
    <glyph glyph-name="NULL" horiz-adv-x="0" 
 />
    <glyph glyph-name="CR" horiz-adv-x="333" 
 />
    <glyph glyph-name="space" unicode=" " horiz-adv-x="320" 
 />
    <glyph glyph-name="exclam" unicode="!" horiz-adv-x="220" 
d="M80 160v560h60v-560h-60zM145 4c-19 -19 -51 -19 -71 0c-19 20 -19 52 0 71c20 20 52 20 71 0c20 -19 20 -51 0 -71z" />
    <glyph glyph-name="quotedbl" unicode="&#x22;" horiz-adv-x="360" 
d="M140 600h-60v120h60v-120zM220 600v120h60v-120h-60z" />
    <glyph glyph-name="numbersign" unicode="#" horiz-adv-x="640" 
d="M570 540v-36h-100v-288h100v-36h-100v-100h-40v100h-220v-100h-40v100h-100v36h100v288h-100v36h100v100h40v-100h220v100h40v-100h100zM210 216h220v288h-220v-288z" />
    <glyph glyph-name="dollar" unicode="$" horiz-adv-x="620" 
d="M550 480v-20h-60v20c0 76 -25 104 -100 104h-160c-75 0 -100 -28 -100 -104c0 -43 23 -52 88 -68c5 -1 9 -2 12 -3l160 -40c26 -7 45 -12 56 -15s25 -8 42 -15c48 -20 56 -44 62 -99c0 -109 -51 -160 -160 -160h-50v-80h-60v80h-50c-109 0 -160 51 -160 160v20h60v-20
c0 -76 25 -104 100 -104h160c75 0 100 28 100 104c0 43 -23 52 -88 68c-2 1 -8 3 -12 3l-160 40c-26 7 -45 11 -56 14s-26 9 -43 16c-46 20 -56 44 -61 99c0 109 51 160 160 160h50v80h60v-80h50c109 0 160 -51 160 -160z" />
    <glyph glyph-name="percent" unicode="%" horiz-adv-x="890" 
d="M375 600v-120c0 -91 -31 -120 -120 -120h-60c-89 0 -120 29 -120 120v120c0 91 31 120 120 120h60c89 0 120 -29 120 -120zM115 600v-120c0 -65 16 -84 80 -84h60c64 0 80 19 80 84v120c0 65 -16 84 -80 84h-60c-64 0 -80 -19 -80 -84zM635 360h60c89 0 120 -29 120 -120
v-120c0 -91 -31 -120 -120 -120h-60c-89 0 -120 29 -120 120v120c0 91 31 120 120 120zM775 120v120c0 65 -16 84 -80 84h-60c-64 0 -80 -19 -80 -84v-120c0 -65 16 -84 80 -84h60c64 0 80 19 80 84zM243 0l360 720h44l-360 -720h-44z" />
    <glyph glyph-name="ampersand" unicode="&#x26;" horiz-adv-x="685" 
d="M235 388h420v-56h-80v-172c0 -109 -49 -160 -160 -160h-180c-111 0 -160 51 -160 160v70c0 90 51 119 72 124l8 1v10s-80 10 -80 125v70c0 109 49 160 160 160h140c111 0 160 -51 160 -160v-60h-60v60c0 76 -25 104 -100 104h-140c-75 0 -100 -28 -100 -104v-70
c0 -76 25 -102 100 -102zM515 160v172h-280c-75 0 -100 -26 -100 -102v-70c0 -76 25 -104 100 -104h180c75 0 100 28 100 104z" />
    <glyph glyph-name="quotesingle" unicode="'" horiz-adv-x="220" 
d="M140 600h-60v120h60v-120z" />
    <glyph glyph-name="parenleft" unicode="(" horiz-adv-x="335" 
d="M235 -184h60v-56h-60c-111 0 -160 51 -160 160v680c0 109 49 160 160 160h60v-56h-60c-75 0 -100 -28 -100 -104v-680c0 -76 25 -104 100 -104z" />
    <glyph glyph-name="parenright" unicode=")" horiz-adv-x="335" 
d="M40 -240v56h60c75 0 100 28 100 104v680c0 76 -25 104 -100 104h-60v56h60c109 0 160 -51 160 -160v-680c0 -109 -51 -160 -160 -160h-60z" />
    <glyph glyph-name="asterisk" unicode="*" horiz-adv-x="520" 
d="M293 558h157v-36h-157l85 -147l-34 -20l-84 145l-84 -145l-34 20l84 147h-156v36h156l-84 147l34 20l84 -145l84 145l34 -20z" />
    <glyph glyph-name="plus" unicode="+" horiz-adv-x="620" 
d="M340 308h210v-56h-210v-212h-60v212h-210v56h210v212h60v-212z" />
    <glyph glyph-name="comma" unicode="," horiz-adv-x="240" 
d="M60 -50l32 130h78l-65 -130h-45z" />
    <glyph glyph-name="hyphen" unicode="-" horiz-adv-x="400" 
d="M70 308h260v-56h-260v56z" />
    <glyph glyph-name="period" unicode="." horiz-adv-x="240" 
d="M84 75c20 20 52 20 71 0c20 -19 20 -51 0 -71c-19 -19 -51 -19 -71 0c-19 20 -19 52 0 71z" />
    <glyph glyph-name="slash" unicode="/" horiz-adv-x="403" 
d="M50 0l240 720h63l-240 -720h-63z" />
    <glyph glyph-name="zero" unicode="0" horiz-adv-x="670" 
d="M235 720h200c111 0 160 -51 160 -160v-400c0 -109 -49 -160 -160 -160h-200c-111 0 -160 51 -160 160v400c0 109 49 160 160 160zM535 160v400c0 76 -25 104 -100 104h-200c-75 0 -100 -28 -100 -104v-400c0 -76 25 -104 100 -104h200c75 0 100 28 100 104z" />
    <glyph glyph-name="one" unicode="1" horiz-adv-x="300" 
d="M160 664h-120v56h180v-720h-60v664z" />
    <glyph glyph-name="two" unicode="2" horiz-adv-x="665" 
d="M135 160v-104h460v-56h-520v160c0 68 7 105 36 133c15 15 30 26 47 34s42 18 77 29l200 67c44 15 72 30 83 46c11 17 17 47 17 91c0 76 -25 104 -100 104h-200c-75 0 -100 -28 -100 -104v-60h-60v60c0 109 49 160 160 160h200c111 0 160 -51 160 -160
c0 -68 -7 -105 -36 -134c-15 -14 -30 -25 -47 -33s-42 -18 -77 -29l-200 -67c-44 -15 -72 -30 -83 -47c-11 -16 -17 -46 -17 -90z" />
    <glyph glyph-name="three" unicode="3" horiz-adv-x="665" 
d="M230 720h200c109 0 160 -51 160 -160v-70c0 -90 -51 -119 -72 -124l-8 -1v-10s80 -10 80 -125v-70c0 -109 -51 -160 -160 -160h-200c-109 0 -160 51 -160 160v60h60v-60c0 -76 25 -104 100 -104h200c75 0 100 28 100 104v70c0 76 -25 102 -100 102h-200v56h200
c75 0 100 26 100 102v70c0 76 -25 104 -100 104h-200c-75 0 -100 -28 -100 -104v-60h-60v60c0 109 51 160 160 160z" />
    <glyph glyph-name="four" unicode="4" horiz-adv-x="615" 
d="M490 256v304h60v-560h-60v200h-460v83l269 437h71l-280 -454v-10h400z" />
    <glyph glyph-name="five" unicode="5" horiz-adv-x="665" 
d="M135 428h300c111 0 160 -51 160 -160v-108c0 -109 -49 -160 -160 -160h-200c-111 0 -160 51 -160 160v60h60v-60c0 -76 25 -104 100 -104h200c75 0 100 28 100 104v108c0 76 -25 104 -100 104h-360v348h510v-56h-450v-236z" />
    <glyph glyph-name="six" unicode="6" horiz-adv-x="670" 
d="M595 560v-60h-60v60c0 76 -25 104 -100 104h-200c-75 0 -100 -28 -100 -104v-172h300c111 0 160 -51 160 -160v-68c0 -109 -49 -160 -160 -160h-200c-111 0 -160 51 -160 160v400c0 109 49 160 160 160h200c111 0 160 -51 160 -160zM435 332h-300v-172
c0 -76 25 -104 100 -104h200c75 0 100 28 100 104v68c0 76 -25 104 -100 104z" />
    <glyph glyph-name="seven" unicode="7" horiz-adv-x="610" 
d="M200 0l300 654v10h-460v56h520v-79l-294 -641h-66z" />
    <glyph glyph-name="eight" unicode="8" horiz-adv-x="670" 
d="M235 720h200c111 0 160 -51 160 -160v-70c0 -90 -51 -119 -72 -124l-8 -1v-10s80 -10 80 -125v-70c0 -109 -49 -160 -160 -160h-200c-111 0 -160 51 -160 160v70c0 90 51 119 72 124l8 1v10s-80 10 -80 125v70c0 109 49 160 160 160zM535 160v70c0 76 -25 102 -100 102
h-200c-75 0 -100 -26 -100 -102v-70c0 -76 25 -104 100 -104h200c75 0 100 28 100 104zM535 490v70c0 76 -25 104 -100 104h-200c-75 0 -100 -28 -100 -104v-70c0 -76 25 -102 100 -102h200c75 0 100 26 100 102z" />
    <glyph glyph-name="nine" unicode="9" horiz-adv-x="670" 
d="M75 160v60h60v-60c0 -76 25 -104 100 -104h200c75 0 100 28 100 104v172h-300c-111 0 -160 51 -160 160v68c0 109 49 160 160 160h200c111 0 160 -51 160 -160v-400c0 -109 -49 -160 -160 -160h-200c-111 0 -160 51 -160 160zM235 388h300v172c0 76 -25 104 -100 104
h-200c-75 0 -100 -28 -100 -104v-68c0 -76 25 -104 100 -104z" />
    <glyph glyph-name="colon" unicode=":" horiz-adv-x="240" 
d="M84 75c20 20 52 20 71 0c20 -19 20 -51 0 -71c-19 -19 -51 -19 -71 0c-19 20 -19 52 0 71zM155 484c-19 -19 -51 -19 -71 0c-19 20 -19 52 0 71c20 20 52 20 71 0c20 -19 20 -51 0 -71z" />
    <glyph glyph-name="semicolon" unicode=";" horiz-adv-x="240" 
d="M105 -50h-45l32 130h78zM155 484c-19 -19 -51 -19 -71 0c-19 20 -19 52 0 71c20 20 52 20 71 0c20 -19 20 -51 0 -71z" />
    <glyph glyph-name="less" unicode="&#x3c;" horiz-adv-x="620" 
d="M550 460l-420 -175v-10l420 -175v-61l-480 200v82l480 200v-61z" />
    <glyph glyph-name="equal" unicode="=" horiz-adv-x="620" 
d="M70 334v56h480v-56h-480zM550 170h-480v56h480v-56z" />
    <glyph glyph-name="greater" unicode="&#x3e;" horiz-adv-x="620" 
d="M490 275v10l-420 175v61l480 -200v-82l-480 -200v61z" />
    <glyph glyph-name="question" unicode="?" horiz-adv-x="660" 
d="M264 75c20 20 52 20 71 0c20 -19 20 -51 0 -71c-19 -19 -51 -19 -71 0c-19 20 -19 52 0 71zM200 720h240c109 0 160 -51 160 -160v-120c0 -109 -51 -160 -160 -160h-110v-120h-60v176h170c75 0 100 28 100 104v120c0 76 -25 104 -100 104h-240c-75 0 -100 -28 -100 -104
v-60h-60v60c0 109 51 160 160 160z" />
    <glyph glyph-name="at" unicode="@" horiz-adv-x="800" 
d="M370 540h60c88 0 120 -28 120 -100v-140c0 -91 -29 -120 -120 -120h-60c-88 0 -120 28 -120 100c0 29 7 48 20 57c14 9 47 21 100 34l140 35v34c0 47 -17 64 -80 64h-60c-64 0 -80 -19 -80 -84v-10h-40v10c0 91 29 120 120 120zM510 300v69l-140 -35
c-39 -9 -62 -17 -69 -22s-11 -16 -11 -32c0 -47 17 -64 80 -64h60c64 0 80 19 80 84zM167 593c65 65 142 97 233 97s168 -32 233 -97s97 -142 97 -233s-32 -168 -97 -233s-142 -97 -233 -97s-168 32 -233 97s-97 142 -97 233s32 168 97 233zM195 155c57 -57 125 -85 205 -85
s148 28 205 85s85 125 85 205s-28 148 -85 205s-125 85 -205 85s-148 -28 -205 -85s-85 -125 -85 -205s28 -148 85 -205z" />
    <glyph glyph-name="A" unicode="A" horiz-adv-x="683" 
d="M294 720h96l263 -720h-64l-77 212h-341l-77 -212h-64zM337 664l-145 -396h299l-144 396h-10z" />
    <glyph glyph-name="B" unicode="B" horiz-adv-x="715" 
d="M640 560v-70c0 -90 -51 -119 -72 -124l-8 -1v-10s80 -10 80 -125v-70c0 -109 -51 -160 -160 -160h-400v720h400c109 0 160 -51 160 -160zM580 160v70c0 76 -25 102 -100 102h-340v-276h340c75 0 100 28 100 104zM140 388h340c75 0 100 26 100 102v70
c0 76 -25 104 -100 104h-340v-276z" />
    <glyph glyph-name="C" unicode="C" horiz-adv-x="705" 
d="M575 160v60h60v-60c0 -109 -49 -160 -160 -160h-240c-111 0 -160 51 -160 160v400c0 109 49 160 160 160h240c111 0 160 -51 160 -160v-60h-60v60c0 76 -25 104 -100 104h-240c-75 0 -100 -28 -100 -104v-400c0 -76 25 -104 100 -104h240c75 0 100 28 100 104z" />
    <glyph glyph-name="D" unicode="D" horiz-adv-x="715" 
d="M80 720h400c109 0 160 -51 160 -160v-400c0 -109 -51 -160 -160 -160h-400v720zM580 160v400c0 76 -25 104 -100 104h-340v-608h340c75 0 100 28 100 104z" />
    <glyph glyph-name="E" unicode="E" horiz-adv-x="665" 
d="M600 720v-56h-460v-276h450v-56h-450v-276h460v-56h-520v720h520z" />
    <glyph glyph-name="F" unicode="F" horiz-adv-x="655" 
d="M140 332v-332h-60v720h520v-56h-460v-276h450v-56h-450z" />
    <glyph glyph-name="G" unicode="G" horiz-adv-x="710" 
d="M635 560v-60h-60v60c0 76 -25 104 -100 104h-240c-75 0 -100 -28 -100 -104v-400c0 -76 25 -104 100 -104h240c75 0 100 28 100 104v172h-220v56h280v-228c0 -109 -49 -160 -160 -160h-240c-111 0 -160 51 -160 160v400c0 109 49 160 160 160h240c111 0 160 -51 160 -160
z" />
    <glyph glyph-name="H" unicode="H" horiz-adv-x="720" 
d="M580 388v332h60v-720h-60v332h-440v-332h-60v720h60v-332h440z" />
    <glyph glyph-name="I" unicode="I" horiz-adv-x="220" 
d="M140 0h-60v720h60v-720z" />
    <glyph glyph-name="J" unicode="J" horiz-adv-x="700" 
d="M560 160v560h60v-560c0 -109 -51 -160 -160 -160h-240c-109 0 -160 51 -160 160v200h60v-200c0 -76 25 -104 100 -104h240c75 0 100 28 100 104z" />
    <glyph glyph-name="K" unicode="K" horiz-adv-x="692" 
d="M662 720l-244 -360l244 -360h-72l-225 332h-225v-332h-60v720h60v-332h225l225 332h72z" />
    <glyph glyph-name="L" unicode="L" 
d="M140 56h460v-56h-520v720h60v-664z" />
    <glyph glyph-name="M" unicode="M" horiz-adv-x="820" 
d="M415 256l217 464h108v-720h-60v664h-10l-218 -464h-85l-217 464h-10v-664h-60v720h107l218 -464h10z" />
    <glyph glyph-name="N" unicode="N" horiz-adv-x="720" 
d="M580 56v664h60v-720h-105l-385 664h-10v-664h-60v720h105l385 -664h10z" />
    <glyph glyph-name="O" unicode="O" horiz-adv-x="710" 
d="M235 720h240c111 0 160 -51 160 -160v-400c0 -109 -49 -160 -160 -160h-240c-111 0 -160 51 -160 160v400c0 109 49 160 160 160zM575 160v400c0 76 -25 104 -100 104h-240c-75 0 -100 -28 -100 -104v-400c0 -76 25 -104 100 -104h240c75 0 100 28 100 104z" />
    <glyph glyph-name="P" unicode="P" horiz-adv-x="700" 
d="M80 720h400c109 0 160 -51 160 -160v-120c0 -109 -51 -160 -160 -160h-340v-280h-60v720zM580 440v120c0 76 -25 104 -100 104h-340v-328h340c75 0 100 28 100 104z" />
    <glyph glyph-name="Q" unicode="Q" horiz-adv-x="710" 
d="M235 720h240c111 0 160 -51 160 -160v-400c0 -109 -49 -160 -160 -160h-90v-160h-60v160h-90c-111 0 -160 51 -160 160v400c0 109 49 160 160 160zM575 160v400c0 76 -25 104 -100 104h-240c-75 0 -100 -28 -100 -104v-400c0 -76 25 -104 100 -104h240
c75 0 100 28 100 104z" />
    <glyph glyph-name="R" unicode="R" horiz-adv-x="710" 
d="M640 560v-120c0 -109 -51 -160 -160 -160h-43l190 -280h-72l-190 280h-225v-280h-60v720h400c109 0 160 -51 160 -160zM140 664v-328h340c75 0 100 28 100 104v120c0 76 -25 104 -100 104h-340z" />
    <glyph glyph-name="S" unicode="S" horiz-adv-x="700" 
d="M630 560v-60h-60v60c0 76 -25 104 -100 104h-240c-75 0 -100 -28 -100 -104c0 -41 6 -70 17 -86c11 -15 39 -30 83 -45l240 -80c56 -19 78 -27 107 -46c43 -28 49 -64 53 -143c0 -109 -51 -160 -160 -160h-240c-109 0 -160 51 -160 160v60h60v-60c0 -76 25 -104 100 -104
h240c75 0 100 28 100 104c0 41 -6 70 -17 85s-39 30 -83 45l-240 80c-35 11 -60 21 -77 28c-17 8 -32 19 -47 33c-29 28 -36 64 -36 129c0 109 51 160 160 160h240c109 0 160 -51 160 -160z" />
    <glyph glyph-name="T" unicode="T" horiz-adv-x="620" 
d="M30 720h560v-56h-250v-664h-60v664h-250v56z" />
    <glyph glyph-name="U" unicode="U" horiz-adv-x="720" 
d="M580 160v560h60v-560c0 -109 -51 -160 -160 -160h-240c-109 0 -160 51 -160 160v560h60v-560c0 -76 25 -104 100 -104h240c75 0 100 28 100 104z" />
    <glyph glyph-name="V" unicode="V" horiz-adv-x="683" 
d="M94 720l243 -664h10l242 664h64l-263 -720h-96l-264 720h64z" />
    <glyph glyph-name="W" unicode="W" horiz-adv-x="1060" 
d="M773 56l184 664h63l-200 -720h-100l-185 664h-10l-185 -664h-99l-201 720h62l186 -664h10l184 664h95l186 -664h10z" />
    <glyph glyph-name="X" unicode="X" horiz-adv-x="665" 
d="M337 388l225 332h73l-244 -360l244 -360h-73l-225 332h-10l-225 -332h-72l244 360l-244 360h72l225 -332h10z" />
    <glyph glyph-name="Y" unicode="Y" horiz-adv-x="663" 
d="M564 720h69l-272 -482v-238h-60v238l-271 482h69l227 -404h10z" />
    <glyph glyph-name="Z" unicode="Z" horiz-adv-x="690" 
d="M625 720v-85l-500 -569v-10h500v-56h-560v85l500 569v10h-500v56h560z" />
    <glyph glyph-name="bracketleft" unicode="[" horiz-adv-x="340" 
d="M300 760v-56h-160v-888h160v-56h-220v1000h220z" />
    <glyph glyph-name="backslash" unicode="\" horiz-adv-x="403" 
d="M50 720h63l240 -720h-63z" />
    <glyph glyph-name="bracketright" unicode="]" horiz-adv-x="340" 
d="M200 704h-160v56h220v-1000h-220v56h160v888z" />
    <glyph glyph-name="asciicircum" unicode="^" horiz-adv-x="609" 
d="M275 720h59l205 -320h-48l-182 284h-10l-182 -284h-47z" />
    <glyph glyph-name="underscore" unicode="_" horiz-adv-x="660" 
d="M70 36h520v-36h-520v36z" />
    <glyph glyph-name="grave" unicode="`" horiz-adv-x="300" 
d="M70 780h67l93 -140h-43z" />
    <glyph glyph-name="a" unicode="a" horiz-adv-x="625" 
d="M230 560h160c109 0 160 -51 160 -160v-240c0 -109 -51 -160 -160 -160h-160c-109 0 -160 51 -160 160c0 35 13 61 26 76c7 8 18 16 35 23s32 12 43 15s30 8 56 15l260 65v46c0 76 -25 104 -100 104h-160c-75 0 -100 -28 -100 -104v-20h-60v20c0 109 51 160 160 160z
M490 160v136l-260 -65c-3 -1 -7 -2 -12 -3c-35 -8 -44 -11 -63 -22c-19 -9 -25 -23 -25 -46c0 -76 25 -104 100 -104h160c75 0 100 28 100 104z" />
    <glyph glyph-name="b" unicode="b" horiz-adv-x="635" 
d="M80 760h60v-200h260c109 0 160 -51 160 -160v-240c0 -109 -51 -160 -160 -160h-160c-109 0 -160 51 -160 160v600zM240 56h160c75 0 100 28 100 104v240c0 76 -25 104 -100 104h-260v-344c0 -76 25 -104 100 -104z" />
    <glyph glyph-name="c" unicode="c" horiz-adv-x="625" 
d="M495 160v20h60v-20c0 -109 -49 -160 -160 -160h-160c-111 0 -160 51 -160 160v240c0 109 49 160 160 160h160c111 0 160 -51 160 -160v-20h-60v20c0 76 -25 104 -100 104h-160c-75 0 -100 -28 -100 -104v-240c0 -76 25 -104 100 -104h160c75 0 100 28 100 104z" />
    <glyph glyph-name="d" unicode="d" horiz-adv-x="635" 
d="M495 560v200h60v-600c0 -109 -49 -160 -160 -160h-160c-111 0 -160 51 -160 160v240c0 109 49 160 160 160h260zM235 56h160c75 0 100 28 100 104v344h-260c-75 0 -100 -28 -100 -104v-240c0 -76 25 -104 100 -104z" />
    <glyph glyph-name="e" unicode="e" 
d="M235 560h160c111 0 160 -51 160 -160v-148h-420v-92c0 -76 25 -104 100 -104h160c75 0 100 28 100 104v20h60v-20c0 -109 -49 -160 -160 -160h-160c-111 0 -160 51 -160 160v240c0 109 49 160 160 160zM135 308h360v92c0 76 -25 104 -100 104h-160
c-75 0 -100 -28 -100 -104v-92z" />
    <glyph glyph-name="f" unicode="f" horiz-adv-x="415" 
d="M360 704h-140c-64 0 -80 -19 -80 -84v-60h200v-56h-200v-504h-60v620c0 100 40 140 140 140h140v-56z" />
    <glyph glyph-name="g" unicode="g" horiz-adv-x="590" 
d="M140 134l260 -65c26 -7 45 -12 56 -15s25 -8 42 -15c48 -20 56 -44 62 -99c0 -109 -51 -160 -160 -160h-160c-109 0 -160 51 -160 160v460c0 109 51 160 160 160h120c109 0 160 -51 160 -160v-40c0 -109 -51 -160 -160 -160h-220v-66zM140 400v-144h220
c75 0 100 28 100 104v40c0 76 -25 104 -100 104h-120c-75 0 -100 -28 -100 -104zM240 -164h160c75 0 100 28 100 104c0 43 -23 52 -88 68c-2 1 -8 3 -12 3l-260 65v-136c0 -76 25 -104 100 -104z" />
    <glyph glyph-name="h" unicode="h" horiz-adv-x="640" 
d="M140 504v-504h-60v760h60v-200h260c109 0 160 -51 160 -160v-400h-60v400c0 76 -25 104 -100 104h-260z" />
    <glyph glyph-name="i" unicode="i" horiz-adv-x="220" 
d="M140 0h-60v560h60v-560zM74 715c20 20 52 20 71 0c20 -19 20 -51 0 -71c-19 -19 -51 -19 -71 0c-19 20 -19 52 0 71z" />
    <glyph glyph-name="j" unicode="j" horiz-adv-x="220" 
d="M74 715c20 20 52 20 71 0c20 -19 20 -51 0 -71c-19 -19 -51 -19 -71 0c-19 20 -19 52 0 71zM80 -60v620h60v-620c0 -100 -40 -140 -140 -140h-60v56h60c64 0 80 19 80 84z" />
    <glyph glyph-name="k" unicode="k" horiz-adv-x="612" 
d="M507 560h75l-203 -280l203 -280h-75l-182 252h-185v-252h-60v760h60v-452h185z" />
    <glyph glyph-name="l" unicode="l" horiz-adv-x="320" 
d="M140 760v-620c0 -65 16 -84 80 -84h60v-56h-60c-100 0 -140 40 -140 140v620h60z" />
    <glyph glyph-name="m" unicode="m" horiz-adv-x="940" 
d="M600 560h100c109 0 160 -51 160 -160v-400h-60v400c0 76 -25 104 -100 104h-100c-75 0 -100 -28 -100 -104v-400h-60v400c0 76 -25 104 -100 104h-100c-75 0 -100 -28 -100 -104v-400h-60v400c0 109 51 160 160 160h100c90 0 119 -51 124 -72l1 -8h10s10 80 125 80z" />
    <glyph glyph-name="n" unicode="n" horiz-adv-x="640" 
d="M560 0h-60v400c0 76 -25 104 -100 104h-160c-75 0 -100 -28 -100 -104v-400h-60v400c0 109 51 160 160 160h160c109 0 160 -51 160 -160v-400z" />
    <glyph glyph-name="o" unicode="o" 
d="M235 560h160c111 0 160 -51 160 -160v-240c0 -109 -49 -160 -160 -160h-160c-111 0 -160 51 -160 160v240c0 109 49 160 160 160zM495 160v240c0 76 -25 104 -100 104h-160c-75 0 -100 -28 -100 -104v-240c0 -76 25 -104 100 -104h160c75 0 100 28 100 104z" />
    <glyph glyph-name="p" unicode="p" horiz-adv-x="635" 
d="M140 0v-200h-60v600c0 109 51 160 160 160h160c109 0 160 -51 160 -160v-240c0 -109 -51 -160 -160 -160h-260zM400 504h-160c-75 0 -100 -28 -100 -104v-344h260c75 0 100 28 100 104v240c0 76 -25 104 -100 104z" />
    <glyph glyph-name="q" unicode="q" horiz-adv-x="635" 
d="M555 -200h-60v200h-260c-111 0 -160 51 -160 160v240c0 109 49 160 160 160h160c111 0 160 -51 160 -160v-600zM395 504h-160c-75 0 -100 -28 -100 -104v-240c0 -76 25 -104 100 -104h260v344c0 76 -25 104 -100 104z" />
    <glyph glyph-name="r" unicode="r" horiz-adv-x="400" 
d="M240 560h120v-56h-120c-75 0 -100 -28 -100 -104v-400h-60v400c0 109 51 160 160 160z" />
    <glyph glyph-name="s" unicode="s" horiz-adv-x="620" 
d="M550 400v-20h-60v20c0 76 -25 104 -100 104h-160c-75 0 -100 -28 -100 -104c0 -43 23 -52 88 -68c5 -1 9 -2 12 -3l160 -40c26 -7 45 -12 56 -15s25 -8 42 -15c48 -20 56 -44 62 -99c0 -109 -51 -160 -160 -160h-160c-109 0 -160 51 -160 160v20h60v-20
c0 -76 25 -104 100 -104h160c75 0 100 28 100 104c0 43 -23 52 -88 68c-2 1 -8 3 -12 3l-160 40c-26 7 -45 11 -56 14s-26 9 -43 16c-46 20 -56 44 -61 99c0 109 51 160 160 160h160c109 0 160 -51 160 -160z" />
    <glyph glyph-name="t" unicode="t" horiz-adv-x="415" 
d="M220 56h140v-56h-140c-100 0 -140 40 -140 140v520h60v-100h200v-56h-200v-364c0 -65 16 -84 80 -84z" />
    <glyph glyph-name="u" unicode="u" horiz-adv-x="640" 
d="M500 160v400h60v-400c0 -109 -51 -160 -160 -160h-160c-109 0 -160 51 -160 160v400h60v-400c0 -76 25 -104 100 -104h160c75 0 100 28 100 104z" />
    <glyph glyph-name="v" unicode="v" horiz-adv-x="604" 
d="M95 560l202 -504h10l203 504h64l-225 -560h-94l-225 560h65z" />
    <glyph glyph-name="w" unicode="w" horiz-adv-x="899" 
d="M652 56l145 504h62l-161 -560h-98l-145 504h-10l-145 -504h-99l-161 560h62l145 -504h10l145 504h95l145 -504h10z" />
    <glyph glyph-name="x" unicode="x" horiz-adv-x="583" 
d="M553 560l-203 -280l203 -280h-74l-182 252h-10l-183 -252h-74l203 280l-203 280h74l183 -252h10l182 252h74z" />
    <glyph glyph-name="y" unicode="y" horiz-adv-x="604" 
d="M307 56l203 504h64l-305 -760h-65l81 200h-30l-225 560h65l202 -504h10z" />
    <glyph glyph-name="z" unicode="z" horiz-adv-x="610" 
d="M545 472l-420 -406v-10h420v-56h-480v87l420 407v10h-420v56h480v-88z" />
    <glyph glyph-name="braceleft" unicode="{" horiz-adv-x="420" 
d="M220 600v-210c0 -90 -51 -119 -72 -124l-8 -1v-10s80 -10 80 -125v-210c0 -76 25 -104 100 -104h60v-56h-60c-109 0 -160 51 -160 160v210c0 76 -25 102 -100 102h-30v56h30c75 0 100 26 100 102v210c0 109 51 160 160 160h60v-56h-60c-75 0 -100 -28 -100 -104z" />
    <glyph glyph-name="bar" unicode="|" horiz-adv-x="200" 
d="M120 -240h-40v1040h40v-1040z" />
    <glyph glyph-name="braceright" unicode="}" horiz-adv-x="420" 
d="M200 390v210c0 76 -25 104 -100 104h-60v56h60c109 0 160 -51 160 -160v-210c0 -76 25 -102 100 -102h30v-56h-30c-75 0 -100 -26 -100 -102v-210c0 -109 -51 -160 -160 -160h-60v56h60c75 0 100 28 100 104v210c0 90 51 119 72 124l8 1v10s-80 10 -80 125z" />
    <glyph glyph-name="asciitilde" unicode="~" horiz-adv-x="620" 
d="M490 392v28h60v-28c0 -100 -40 -140 -140 -140h-200c-64 0 -80 -19 -80 -84v-28h-60v28c0 100 40 140 140 140h200c64 0 80 19 80 84z" />
    <glyph glyph-name="uni00A0" unicode="&#xa0;" horiz-adv-x="320" 
 />
    <glyph glyph-name="exclamdown" unicode="&#xa1;" horiz-adv-x="220" 
d="M140 -160h-60v560h60v-560zM74 555c20 20 52 20 71 0c20 -19 20 -51 0 -71c-19 -19 -51 -19 -71 0c-19 20 -19 52 0 71z" />
    <glyph glyph-name="cent" unicode="&#xa2;" horiz-adv-x="625" 
d="M555 480v-20h-60v20c0 76 -25 104 -100 104h-160c-75 0 -100 -28 -100 -104v-240c0 -76 25 -104 100 -104h160c75 0 100 28 100 104v20h60v-20c0 -109 -49 -160 -160 -160h-50v-80h-60v80h-50c-111 0 -160 51 -160 160v240c0 109 49 160 160 160h50v80h60v-80h50
c111 0 160 -51 160 -160z" />
    <glyph glyph-name="sterling" unicode="&#xa3;" horiz-adv-x="720" 
d="M650 560v-60h-60v60c0 76 -25 104 -100 104h-200c-75 0 -100 -28 -100 -104v-167h200v-56h-200v-281h460v-56h-600v56h80v281h-80v56h80v167c0 109 51 160 160 160h200c109 0 160 -51 160 -160z" />
    <glyph glyph-name="currency" unicode="&#xa4;" horiz-adv-x="600" 
d="M468 234l62 -62l-42 -42l-62 62c-76 -56 -176 -56 -252 0l-62 -62l-42 42l62 62c-56 76 -56 176 0 252l-62 62l42 42l62 -62c76 56 176 56 252 0l62 62l42 -42l-62 -62c56 -76 56 -176 0 -252zM194 466c-29 -29 -44 -65 -44 -106s15 -77 44 -106s65 -44 106 -44
s77 15 106 44s44 65 44 106s-15 77 -44 106s-65 44 -106 44s-77 -15 -106 -44z" />
    <glyph glyph-name="yen" unicode="&#xa5;" horiz-adv-x="663" 
d="M564 720h69l-228 -404h96v-36h-340v36h96l-227 404h69l227 -404h10zM301 136h-140v36h340v-36h-140v-136h-60v136z" />
    <glyph glyph-name="brokenbar" unicode="&#xa6;" horiz-adv-x="200" 
d="M80 400v320h40v-320h-40zM120 -160h-40v320h40v-320z" />
    <glyph glyph-name="section" unicode="&#xa7;" horiz-adv-x="620" 
d="M550 560v-20h-60v20c0 76 -25 104 -100 104h-160c-75 0 -100 -28 -100 -104c0 -43 23 -52 88 -68c5 -1 9 -2 12 -3l160 -40c26 -7 45 -12 56 -15s25 -8 42 -15c48 -20 56 -44 62 -99v-60h-60v60c0 43 -23 52 -88 68c-2 1 -8 3 -12 3l-160 40c-26 7 -45 11 -56 14
s-26 9 -43 16c-46 20 -56 44 -61 99c0 109 51 160 160 160h160c109 0 160 -51 160 -160zM230 249l160 -40c26 -7 45 -12 56 -15s25 -8 42 -15c48 -20 56 -44 62 -99c0 -109 -51 -160 -160 -160h-160c-109 0 -160 51 -160 160v20h60v-20c0 -76 25 -104 100 -104h160
c75 0 100 28 100 104c0 43 -23 52 -88 68c-2 1 -8 3 -12 3l-160 40c-26 7 -45 11 -56 14s-26 9 -43 16c-46 20 -56 44 -61 99v60h60v-60c0 -43 23 -52 88 -68c5 -1 9 -2 12 -3z" />
    <glyph glyph-name="dieresis" unicode="&#xa8;" horiz-adv-x="360" 
d="M82 698c34 39 95 -22 56 -56c-34 -39 -95 22 -56 56zM222 698c34 39 95 -22 56 -56c-34 -39 -95 22 -56 56z" />
    <glyph glyph-name="copyright" unicode="&#xa9;" horiz-adv-x="800" 
d="M370 540h60c91 0 120 -29 120 -120v-10h-40v10c0 65 -16 84 -80 84h-60c-64 0 -80 -19 -80 -84v-120c0 -65 16 -84 80 -84h60c64 0 80 19 80 84v10h40v-10c0 -91 -29 -120 -120 -120h-60c-91 0 -120 29 -120 120v120c0 91 29 120 120 120zM167 593c65 65 142 97 233 97
s168 -32 233 -97s97 -142 97 -233s-32 -168 -97 -233s-142 -97 -233 -97s-168 32 -233 97s-97 142 -97 233s32 168 97 233zM195 155c57 -57 125 -85 205 -85s148 28 205 85s85 125 85 205s-28 148 -85 205s-125 85 -205 85s-148 -28 -205 -85s-85 -125 -85 -205
s28 -148 85 -205z" />
    <glyph glyph-name="ordfeminine" unicode="&#xaa;" horiz-adv-x="445" 
d="M190 720h60c88 0 120 -28 120 -100v-140c0 -91 -29 -120 -120 -120h-60c-88 0 -120 28 -120 100c0 29 7 48 20 57c14 9 47 21 100 34l140 35v34c0 47 -17 64 -80 64h-60c-64 0 -80 -19 -80 -84v-10h-40v10c0 91 29 120 120 120zM330 480v69l-140 -35
c-39 -9 -62 -17 -69 -22s-11 -16 -11 -32c0 -47 17 -64 80 -64h60c64 0 80 19 80 84z" />
    <glyph glyph-name="guillemotleft" unicode="&#xab;" horiz-adv-x="600" 
d="M70 280l150 200h75l-150 -200l150 -200h-75zM455 480h75l-150 -200l150 -200h-75l-150 200z" />
    <glyph glyph-name="logicalnot" unicode="&#xac;" horiz-adv-x="620" 
d="M70 314v56h480v-180h-60v124h-420z" />
    <glyph glyph-name="uni00AD" unicode="&#xad;" horiz-adv-x="400" 
d="M70 308h260v-56h-260v56z" />
    <glyph glyph-name="registered" unicode="&#xae;" horiz-adv-x="800" 
d="M167 593c65 65 142 97 233 97s168 -32 233 -97s97 -142 97 -233s-32 -168 -97 -233s-142 -97 -233 -97s-168 32 -233 97s-97 142 -97 233s32 168 97 233zM195 155c57 -57 125 -85 205 -85s148 28 205 85s85 125 85 205s-28 148 -85 205s-125 85 -205 85
s-148 -28 -205 -85s-85 -125 -85 -205s28 -148 85 -205zM260 540h180c88 0 120 -28 120 -100v-30c0 -67 -28 -95 -101 -100l95 -130h-50l-94 130h-110v-130h-40v360zM520 410v30c0 47 -17 64 -80 64h-140v-158h140c63 0 80 17 80 64z" />
    <glyph glyph-name="overscore" unicode="&#xaf;" horiz-adv-x="380" 
d="M310 640h-240v36h240v-36z" />
    <glyph glyph-name="degree" unicode="&#xb0;" horiz-adv-x="520" 
d="M125 674c37 37 82 56 135 56s97 -19 134 -56s56 -81 56 -134s-19 -98 -56 -135s-81 -55 -134 -55s-98 18 -135 55s-55 82 -55 135s18 97 55 134zM154 434c29 -29 65 -44 106 -44s77 15 106 44s44 65 44 106s-15 77 -44 106s-65 44 -106 44s-77 -15 -106 -44
s-44 -65 -44 -106s15 -77 44 -106z" />
    <glyph glyph-name="plusminus" unicode="&#xb1;" horiz-adv-x="620" 
d="M550 40h-480v56h480v-56zM340 520v-162h210v-56h-210v-162h-60v162h-210v56h210v162h60z" />
    <glyph glyph-name="twosuperior" unicode="&#xb2;" horiz-adv-x="445" 
d="M255 529l-60 -15c-39 -9 -62 -17 -69 -22s-11 -16 -11 -32v-64h260v-36h-300v100c0 29 7 48 20 57c14 9 47 21 100 34l60 15c39 9 62 17 69 22s11 16 11 32c0 47 -17 64 -80 64h-60c-64 0 -80 -19 -80 -84v-10h-40v10c0 91 31 120 120 120h60c88 0 120 -28 120 -100
c0 -29 -7 -48 -21 -57c-13 -9 -46 -21 -99 -34z" />
    <glyph glyph-name="threesuperior" unicode="&#xb3;" horiz-adv-x="445" 
d="M310 545v-10s60 0 60 -75c0 -72 -32 -100 -120 -100h-60c-91 0 -120 29 -120 120h40c0 -65 16 -84 80 -84h60c63 0 80 17 80 64s-17 62 -80 62h-90v36h90c63 0 80 15 80 62s-17 64 -80 64h-60c-64 0 -80 -19 -80 -84h-40c0 91 29 120 120 120h60c88 0 120 -28 120 -100
c0 -44 -25 -70 -45 -73z" />
    <glyph glyph-name="acute" unicode="&#xb4;" horiz-adv-x="300" 
d="M70 640l93 140h67l-117 -140h-43z" />
    <glyph glyph-name="mu" unicode="&#xb5;" horiz-adv-x="640" 
d="M500 160v400h60v-400c0 -109 -51 -160 -160 -160h-260v-160h-60v720h60v-504h260c75 0 100 28 100 104z" />
    <glyph glyph-name="paragraph" unicode="&#xb6;" horiz-adv-x="540" 
d="M420 -120v840h40v-840h-40zM60 360v200c0 109 51 160 160 160h80v-840h-40v320h-40c-109 0 -160 51 -160 160z" />
    <glyph glyph-name="middot" unicode="&#xb7;" horiz-adv-x="240" 
d="M84 315c20 20 52 20 71 0c20 -19 20 -51 0 -71c-19 -19 -51 -19 -71 0c-19 20 -19 52 0 71z" />
    <glyph glyph-name="cedilla" unicode="&#xb8;" horiz-adv-x="380" 
d="M130 -86v86h40v-50h60c60 0 80 -20 80 -80v-10c0 -60 -20 -80 -80 -80h-160v36h160c35 0 40 8 40 44v10c0 36 -5 44 -40 44h-100z" />
    <glyph glyph-name="onesuperior" unicode="&#xb9;" horiz-adv-x="240" 
d="M40 684v36h120v-360h-40v324h-80z" />
    <glyph glyph-name="ordmasculine" unicode="&#xba;" horiz-adv-x="450" 
d="M195 720h60c89 0 120 -29 120 -120v-120c0 -91 -31 -120 -120 -120h-60c-89 0 -120 29 -120 120v120c0 91 31 120 120 120zM335 480v120c0 65 -16 84 -80 84h-60c-64 0 -80 -19 -80 -84v-120c0 -65 16 -84 80 -84h60c64 0 80 19 80 84z" />
    <glyph glyph-name="guillemotright" unicode="&#xbb;" horiz-adv-x="600" 
d="M305 480h75l150 -200l-150 -200h-75l150 200zM220 280l-150 200h75l150 -200l-150 -200h-75z" />
    <glyph glyph-name="onequarter" unicode="&#xbc;" horiz-adv-x="665" 
d="M160 360h-40v324h-80v36h120v-360zM68 0l360 720h44l-360 -720h-44zM560 116v164h40v-280h-40v80h-260v58l151 222h49l-160 -234v-10h220z" />
    <glyph glyph-name="onehalf" unicode="&#xbd;" horiz-adv-x="710" 
d="M160 360h-40v324h-80v36h120v-360zM68 0l360 720h44l-360 -720h-44zM380 100v-64h260v-36h-300v100c0 29 7 48 20 57c14 9 47 21 100 34l60 15c39 9 62 17 69 22c7 6 11 17 11 32c0 47 -17 64 -80 64h-60c-64 0 -80 -19 -80 -84v-10h-40v10c0 91 29 120 120 120h60
c88 0 120 -28 120 -100c0 -29 -7 -48 -21 -57c-13 -9 -46 -21 -99 -34l-60 -15c-39 -9 -62 -17 -69 -22s-11 -16 -11 -32z" />
    <glyph glyph-name="threequarters" unicode="&#xbe;" horiz-adv-x="835" 
d="M370 460c0 -72 -32 -100 -120 -100h-60c-91 0 -120 29 -120 120h40c0 -65 16 -84 80 -84h60c63 0 80 17 80 64s-17 62 -80 62h-90v36h90c63 0 80 15 80 62s-17 64 -80 64h-60c-64 0 -80 -19 -80 -84h-40c0 91 29 120 120 120h60c88 0 120 -28 120 -100
c0 -44 -25 -70 -45 -73l-15 -2v-10s60 0 60 -75zM238 0l360 720h44l-360 -720h-44zM730 116v164h40v-280h-40v80h-260v58l151 222h49l-160 -234v-10h220z" />
    <glyph glyph-name="questiondown" unicode="&#xbf;" horiz-adv-x="660" 
d="M395 484c-19 -19 -51 -19 -71 0c-19 20 -19 52 0 71c20 20 52 20 71 0c20 -19 20 -51 0 -71zM460 -160h-240c-109 0 -160 51 -160 160v120c0 109 51 160 160 160h110v120h60v-176h-170c-75 0 -100 -28 -100 -104v-120c0 -76 25 -104 100 -104h240c75 0 100 28 100 104v60
h60v-60c0 -109 -51 -160 -160 -160z" />
    <glyph glyph-name="Agrave" unicode="&#xc0;" horiz-adv-x="683" 
d="M295 916l93 -140h-43l-117 140h67zM294 720h96l263 -720h-64l-77 212h-341l-77 -212h-64zM337 664l-145 -396h299l-144 396h-10z" />
    <glyph glyph-name="Aacute" unicode="&#xc1;" horiz-adv-x="683" 
d="M345 776h-44l94 140h66zM30 0l262 720h97l264 -720h-64l-78 212h-340l-77 -212h-64zM191 268h300l-145 396h-10z" />
    <glyph glyph-name="Acircumflex" unicode="&#xc2;" horiz-adv-x="683" 
d="M294 720h96l263 -720h-64l-77 212h-341l-77 -212h-64zM337 664l-145 -396h299l-144 396h-10zM346 879h-10l-82 -104h-51l111 140h55l111 -140h-51z" />
    <glyph glyph-name="Atilde" unicode="&#xc3;" horiz-adv-x="683" 
d="M294 720h96l263 -720h-64l-77 212h-341l-77 -212h-64zM337 664l-145 -396h299l-144 396h-10zM244 815l-7 -18c-12 4 -28 12 -40 17c2 5 8 19 8 18c15 35 32 55 58 55c14 0 29 -4 46 -11c13 -5 25 -10 38 -15c12 -5 27 -10 38 -14c28 -11 37 -6 50 26c2 5 5 13 7 18
c12 -4 28 -12 40 -17c-2 -5 -8 -19 -8 -18c-15 -35 -32 -55 -59 -55c-14 0 -28 4 -45 11c-12 4 -25 9 -38 14c-14 5 -26 10 -38 15c-31 12 -39 6 -50 -26z" />
    <glyph glyph-name="Adieresis" unicode="&#xc4;" horiz-adv-x="683" 
d="M299 802c-15 -16 -41 -16 -57 0c-15 16 -15 40 0 56c16 16 42 16 57 0c16 -16 16 -40 0 -56zM439 802c-15 -16 -41 -16 -57 0c-15 16 -15 40 0 56c16 16 42 16 57 0c16 -16 16 -40 0 -56zM294 720h96l263 -720h-64l-77 212h-341l-77 -212h-64zM337 664l-145 -396h299
l-144 396h-10z" />
    <glyph glyph-name="Aring" unicode="&#xc5;" horiz-adv-x="683" 
d="M401 815c-33 -33 -87 -33 -120 0s-33 87 0 120s87 33 120 0s33 -87 0 -120zM373 907c-17 17 -47 17 -64 0s-17 -47 0 -64s47 -17 64 0s17 47 0 64zM294 720h96l263 -720h-64l-77 212h-341l-77 -212h-64zM337 664l-145 -396h299l-144 396h-10z" />
    <glyph glyph-name="AE" unicode="&#xc6;" horiz-adv-x="1051" 
d="M986 720v-56h-460v-276h450v-56h-450v-276h460v-56h-520v212h-254l-114 -212h-68l388 720h568zM456 664l-213 -396h223v396h-10z" />
    <glyph glyph-name="Ccedilla" unicode="&#xc7;" horiz-adv-x="705" 
d="M635 560v-60h-60v60c0 76 -25 104 -100 104h-240c-75 0 -100 -28 -100 -104v-400c0 -76 25 -104 100 -104h240c75 0 100 28 100 104v60h60v-60c0 -109 -49 -160 -160 -160h-140v-50h60c60 0 80 -20 80 -80v-10c0 -60 -20 -80 -80 -80h-160v36h160c35 0 40 8 40 44v10
c0 36 -5 44 -40 44h-100v86h-60c-111 0 -160 51 -160 160v400c0 109 49 160 160 160h240c111 0 160 -51 160 -160z" />
    <glyph glyph-name="Egrave" unicode="&#xc8;" horiz-adv-x="665" 
d="M314 916l93 -140h-43l-117 140h67zM600 720v-56h-460v-276h450v-56h-450v-276h460v-56h-520v720h520z" />
    <glyph glyph-name="Eacute" unicode="&#xc9;" horiz-adv-x="665" 
d="M600 720v-56h-460v-276h450v-56h-450v-276h460v-56h-520v720h520zM380 916h67l-117 -140h-43z" />
    <glyph glyph-name="Ecircumflex" unicode="&#xca;" horiz-adv-x="665" 
d="M600 720v-56h-460v-276h450v-56h-450v-276h460v-56h-520v720h520zM345 880h-10l-83 -104h-51l111 140h55l112 -140h-52z" />
    <glyph glyph-name="Edieresis" unicode="&#xcb;" horiz-adv-x="665" 
d="M600 720v-56h-460v-276h450v-56h-450v-276h460v-56h-520v720h520zM298 802c-34 -39 -95 22 -56 56c34 39 95 -22 56 -56zM438 802c-34 -39 -95 22 -56 56c34 39 95 -22 56 -56z" />
    <glyph glyph-name="Igrave" unicode="&#xcc;" horiz-adv-x="220" 
d="M140 720v-720h-60v720h60zM96 776l-117 140h67l93 -140h-43z" />
    <glyph glyph-name="Iacute" unicode="&#xcd;" horiz-adv-x="220" 
d="M140 0h-60v720h60v-720zM173 916h67l-117 -140h-43z" />
    <glyph glyph-name="Icircumflex" unicode="&#xce;" horiz-adv-x="220" 
d="M140 0h-60v720h60v-720zM82 940h55l111 -140h-51l-82 104h-10l-83 -104h-51z" />
    <glyph glyph-name="Idieresis" unicode="&#xcf;" horiz-adv-x="220" 
d="M140 0h-60v720h60v-720zM12 858c34 39 95 -22 56 -56c-34 -39 -95 22 -56 56zM152 858c34 39 95 -22 56 -56c-34 -39 -95 22 -56 56z" />
    <glyph glyph-name="Eth" unicode="&#xd0;" horiz-adv-x="755" 
d="M120 720h400c109 0 160 -51 160 -160v-400c0 -109 -51 -160 -160 -160h-400v332h-80v56h80v332zM620 160v400c0 76 -25 104 -100 104h-340v-276h220v-56h-220v-276h340c75 0 100 28 100 104z" />
    <glyph glyph-name="Ntilde" unicode="&#xd1;" horiz-adv-x="720" 
d="M580 56v664h60v-720h-105l-385 664h-10v-664h-60v720h105l385 -664h10zM280 818v-18h-40v18c0 60 20 80 80 80h80c35 0 40 8 40 44v18h40v-18c0 -60 -20 -80 -80 -80h-80c-35 0 -40 -8 -40 -44z" />
    <glyph glyph-name="Ograve" unicode="&#xd2;" horiz-adv-x="710" 
d="M235 720h240c111 0 160 -51 160 -160v-400c0 -109 -49 -160 -160 -160h-240c-111 0 -160 51 -160 160v400c0 109 49 160 160 160zM135 560v-400c0 -76 25 -104 100 -104h240c75 0 100 28 100 104v400c0 76 -25 104 -100 104h-240c-75 0 -100 -28 -100 -104zM376 776
l-117 140h67l93 -140h-43z" />
    <glyph glyph-name="Oacute" unicode="&#xd3;" horiz-adv-x="710" 
d="M235 720h240c111 0 160 -51 160 -160v-400c0 -109 -49 -160 -160 -160h-240c-111 0 -160 51 -160 160v400c0 109 49 160 160 160zM575 160v400c0 76 -25 104 -100 104h-240c-75 0 -100 -28 -100 -104v-400c0 -76 25 -104 100 -104h240c75 0 100 28 100 104zM408 916h67
l-117 -140h-43z" />
    <glyph glyph-name="Ocircumflex" unicode="&#xd4;" horiz-adv-x="710" 
d="M235 720h240c111 0 160 -51 160 -160v-400c0 -109 -49 -160 -160 -160h-240c-111 0 -160 51 -160 160v400c0 109 49 160 160 160zM575 160v400c0 76 -25 104 -100 104h-240c-75 0 -100 -28 -100 -104v-400c0 -76 25 -104 100 -104h240c75 0 100 28 100 104zM360 879h-10
l-83 -104h-51l111 140h55l112 -140h-52z" />
    <glyph glyph-name="Otilde" unicode="&#xd5;" horiz-adv-x="710" 
d="M235 720h240c111 0 160 -51 160 -160v-400c0 -109 -49 -160 -160 -160h-240c-111 0 -160 51 -160 160v400c0 109 49 160 160 160zM575 160v400c0 76 -25 104 -100 104h-240c-75 0 -100 -28 -100 -104v-400c0 -76 25 -104 100 -104h240c75 0 100 28 100 104zM259 815
l-7 -18c-12 4 -28 12 -40 17c2 5 8 19 8 18c15 35 32 55 58 55c14 0 29 -4 46 -11c13 -5 25 -10 38 -15c12 -5 27 -10 38 -14c28 -11 37 -6 50 26c2 5 5 13 7 18c12 -4 28 -12 40 -17c-2 -5 -8 -19 -8 -18c-15 -35 -32 -55 -59 -55c-14 0 -28 4 -45 11c-12 4 -25 9 -38 14
c-14 5 -26 10 -38 15c-31 12 -39 6 -50 -26z" />
    <glyph glyph-name="Odieresis" unicode="&#xd6;" horiz-adv-x="710" 
d="M313 802c-15 -16 -41 -16 -57 0c-15 16 -15 40 0 56c16 16 42 16 57 0c16 -16 16 -40 0 -56zM453 802c-15 -16 -41 -16 -57 0c-15 16 -15 40 0 56c16 16 42 16 57 0c16 -16 16 -40 0 -56zM235 720h240c111 0 160 -51 160 -160v-400c0 -109 -49 -160 -160 -160h-240
c-111 0 -160 51 -160 160v400c0 109 49 160 160 160zM575 160v400c0 76 -25 104 -100 104h-240c-75 0 -100 -28 -100 -104v-400c0 -76 25 -104 100 -104h240c75 0 100 28 100 104z" />
    <glyph glyph-name="multiply" unicode="&#xd7;" horiz-adv-x="580" 
d="M290 322l178 178l42 -42l-178 -178l178 -178l-42 -42l-178 178l-178 -178l-42 42l178 178l-178 178l42 42z" />
    <glyph glyph-name="Oslash" unicode="&#xd8;" horiz-adv-x="710" 
d="M235 720h240c111 0 160 -51 160 -160v-400c0 -109 -49 -160 -160 -160h-240c-111 0 -160 51 -160 160v400c0 109 49 160 160 160zM475 664h-240c-75 0 -100 -28 -100 -104v-290l440 220v70c0 76 -25 104 -100 104zM235 56h240c75 0 100 28 100 104v290l-440 -220v-70
c0 -76 25 -104 100 -104z" />
    <glyph glyph-name="Ugrave" unicode="&#xd9;" horiz-adv-x="720" 
d="M80 720h60v-560c0 -76 25 -104 100 -104h240c75 0 100 28 100 104v560h60v-560c0 -109 -51 -160 -160 -160h-240c-109 0 -160 51 -160 160v560zM373 775l-117 140h67l93 -140h-43z" />
    <glyph glyph-name="Uacute" unicode="&#xda;" horiz-adv-x="720" 
d="M580 160v560h60v-560c0 -109 -51 -160 -160 -160h-240c-109 0 -160 51 -160 160v560h60v-560c0 -76 25 -104 100 -104h240c75 0 100 28 100 104zM404 915h67l-117 -140h-43z" />
    <glyph glyph-name="Ucircumflex" unicode="&#xdb;" horiz-adv-x="720" 
d="M580 160v560h60v-560c0 -109 -51 -160 -160 -160h-240c-109 0 -160 51 -160 160v560h60v-560c0 -76 25 -104 100 -104h240c75 0 100 28 100 104zM365 904h-10l-83 -104h-51l111 140h55l112 -140h-52z" />
    <glyph glyph-name="Udieresis" unicode="&#xdc;" horiz-adv-x="720" 
d="M580 160v560h60v-560c0 -109 -51 -160 -160 -160h-240c-109 0 -160 51 -160 160v560h60v-560c0 -76 25 -104 100 -104h240c75 0 100 28 100 104zM318 802c-34 -39 -95 22 -56 56c34 39 95 -22 56 -56zM458 802c-34 -39 -95 22 -56 56c34 39 95 -22 56 -56z" />
    <glyph glyph-name="Yacute" unicode="&#xdd;" horiz-adv-x="663" 
d="M336 316l228 404h69l-272 -482v-238h-60v238l-271 482h69l227 -404h10zM369 915h66l-116 -140h-44z" />
    <glyph glyph-name="Thorn" unicode="&#xde;" horiz-adv-x="700" 
d="M140 580h340c109 0 160 -51 160 -160v-120c0 -109 -51 -160 -160 -160h-340v-140h-60v720h60v-140zM580 300v120c0 76 -25 104 -100 104h-340v-328h340c75 0 100 28 100 104z" />
    <glyph glyph-name="germandbls" unicode="&#xdf;" horiz-adv-x="635" 
d="M240 720h160c109 0 160 -51 160 -160v-70c0 -90 -51 -119 -72 -124l-8 -1v-10s80 -10 80 -125v-70c0 -109 -51 -160 -160 -160h-180v56h180c75 0 100 28 100 104v70c0 76 -25 102 -100 102h-70v56h70c75 0 100 26 100 102v70c0 76 -25 104 -100 104h-160
c-75 0 -100 -28 -100 -104v-560h-60v560c0 109 51 160 160 160z" />
    <glyph glyph-name="agrave" unicode="&#xe0;" horiz-adv-x="625" 
d="M230 560h160c109 0 160 -51 160 -160v-240c0 -109 -51 -160 -160 -160h-160c-109 0 -160 51 -160 160c0 35 13 61 26 76c7 8 18 16 35 23s32 12 43 15s30 8 56 15l260 65v46c0 76 -25 104 -100 104h-160c-75 0 -100 -28 -100 -104v-20h-60v20c0 109 51 160 160 160z
M490 160v136l-260 -65c-3 -1 -7 -2 -12 -3c-35 -8 -44 -11 -63 -22c-19 -9 -25 -23 -25 -46c0 -76 25 -104 100 -104h160c75 0 100 28 100 104zM298 763l93 -140h-43l-117 140h67z" />
    <glyph glyph-name="aacute" unicode="&#xe1;" horiz-adv-x="625" 
d="M230 560h160c109 0 160 -51 160 -160v-240c0 -109 -51 -160 -160 -160h-160c-109 0 -160 51 -160 160c0 35 13 61 26 76c7 8 18 16 35 23s32 12 43 15s30 8 56 15l260 65v46c0 76 -25 104 -100 104h-160c-75 0 -100 -28 -100 -104v-20h-60v20c0 109 51 160 160 160z
M490 160v136l-260 -65c-3 -1 -7 -2 -12 -3c-35 -8 -44 -11 -63 -22c-19 -9 -25 -23 -25 -46c0 -76 25 -104 100 -104h160c75 0 100 28 100 104zM366 763h67l-117 -140h-43z" />
    <glyph glyph-name="acircumflex" unicode="&#xe2;" horiz-adv-x="625" 
d="M230 560h160c109 0 160 -51 160 -160v-240c0 -109 -51 -160 -160 -160h-160c-109 0 -160 51 -160 160c0 35 13 61 26 76c7 8 18 16 35 23s32 12 43 15s30 8 56 15l260 65v46c0 76 -25 104 -100 104h-160c-75 0 -100 -28 -100 -104v-20h-60v20c0 109 51 160 160 160z
M490 160v136l-260 -65c-3 -1 -7 -2 -12 -3c-35 -8 -44 -11 -63 -22c-19 -9 -25 -23 -25 -46c0 -76 25 -104 100 -104h160c75 0 100 28 100 104zM331 727h-10l-83 -104h-51l111 140h55l112 -140h-52z" />
    <glyph glyph-name="atilde" unicode="&#xe3;" horiz-adv-x="625" 
d="M230 560h160c109 0 160 -51 160 -160v-240c0 -109 -51 -160 -160 -160h-160c-109 0 -160 51 -160 160c0 35 13 61 26 76c7 8 18 16 35 23s32 12 43 15s30 8 56 15l260 65v46c0 76 -25 104 -100 104h-160c-75 0 -100 -28 -100 -104v-20h-60v20c0 109 51 160 160 160z
M490 160v136l-260 -65c-3 -1 -7 -2 -12 -3c-35 -8 -44 -11 -63 -22c-19 -9 -25 -23 -25 -46c0 -76 25 -104 100 -104h160c75 0 100 28 100 104zM238 666l-7 -18c-12 4 -28 12 -40 17c2 5 8 19 8 18c15 35 32 55 58 55c14 0 29 -4 46 -11c13 -5 25 -10 38 -15
c12 -5 27 -10 38 -14c28 -11 37 -6 50 26c2 5 5 13 7 18c12 -4 28 -12 40 -17c-2 -5 -8 -19 -8 -18c-15 -35 -32 -55 -59 -55c-14 0 -28 4 -45 11c-12 4 -25 9 -38 14c-14 5 -26 10 -38 15c-31 12 -39 6 -50 -26z" />
    <glyph glyph-name="adieresis" unicode="&#xe4;" horiz-adv-x="625" 
d="M230 560h160c109 0 160 -51 160 -160v-240c0 -109 -51 -160 -160 -160h-160c-109 0 -160 51 -160 160c0 35 13 61 26 76c7 8 18 16 35 23s32 12 43 15s30 8 56 15l260 65v46c0 76 -25 104 -100 104h-160c-75 0 -100 -28 -100 -104v-20h-60v20c0 109 51 160 160 160z
M490 160v136l-260 -65c-3 -1 -7 -2 -12 -3c-35 -8 -44 -11 -63 -22c-19 -9 -25 -23 -25 -46c0 -76 25 -104 100 -104h160c75 0 100 28 100 104zM268 642c-34 -39 -95 22 -56 56c34 39 95 -22 56 -56zM408 642c-34 -39 -95 22 -56 56c34 39 95 -22 56 -56z" />
    <glyph glyph-name="aring" unicode="&#xe5;" horiz-adv-x="625" 
d="M230 560h160c109 0 160 -51 160 -160v-240c0 -109 -51 -160 -160 -160h-160c-109 0 -160 51 -160 160c0 35 13 61 26 76c7 8 18 16 35 23s32 12 43 15s30 8 56 15l260 65v46c0 76 -25 104 -100 104h-160c-75 0 -100 -28 -100 -104v-20h-60v20c0 109 51 160 160 160z
M490 160v136l-260 -65c-3 -1 -7 -2 -12 -3c-35 -8 -44 -11 -63 -22c-19 -9 -25 -23 -25 -46c0 -76 25 -104 100 -104h160c75 0 100 28 100 104zM370 655c-33 -33 -87 -33 -120 0s-33 87 0 120s87 33 120 0s33 -87 0 -120zM342 747c-17 17 -47 17 -64 0s-17 -47 0 -64
s47 -17 64 0s17 47 0 64z" />
    <glyph glyph-name="ae" unicode="&#xe6;" horiz-adv-x="1045" 
d="M970 400v-148h-420v-92c0 -76 25 -104 100 -104h160c75 0 100 28 100 104v20h60v-20c0 -109 -51 -160 -160 -160h-160c-90 0 -119 51 -124 72l-1 8h-10s-10 -80 -125 -80h-160c-109 0 -160 51 -160 160c0 35 13 61 26 76c7 8 18 16 35 23s32 12 43 15s30 8 56 15l260 65
v46c0 76 -25 104 -100 104h-160c-75 0 -100 -28 -100 -104v-20h-60v20c0 109 51 160 160 160h160c90 0 119 -51 124 -72l1 -8h10s10 80 125 80h160c109 0 160 -51 160 -160zM550 400v-92h360v92c0 76 -25 104 -100 104h-160c-75 0 -100 -28 -100 -104zM490 160v136l-260 -65
c-3 -1 -7 -2 -12 -3c-35 -8 -44 -11 -63 -22c-19 -9 -25 -23 -25 -46c0 -76 25 -104 100 -104h160c75 0 100 28 100 104z" />
    <glyph glyph-name="ccedilla" unicode="&#xe7;" horiz-adv-x="625" 
d="M555 400v-20h-60v20c0 76 -25 104 -100 104h-160c-75 0 -100 -28 -100 -104v-240c0 -76 25 -104 100 -104h160c75 0 100 28 100 104v20h60v-20c0 -109 -49 -160 -160 -160h-100v-50h60c60 0 80 -20 80 -80v-10c0 -60 -20 -80 -80 -80h-160v36h160c35 0 40 8 40 44v10
c0 36 -5 44 -40 44h-100v86h-20c-111 0 -160 51 -160 160v240c0 109 49 160 160 160h160c111 0 160 -51 160 -160z" />
    <glyph glyph-name="egrave" unicode="&#xe8;" 
d="M555 400v-148h-420v-92c0 -76 25 -104 100 -104h160c75 0 100 28 100 104v20h60v-20c0 -109 -49 -160 -160 -160h-160c-111 0 -160 51 -160 160v240c0 109 49 160 160 160h160c111 0 160 -51 160 -160zM135 400v-92h360v92c0 76 -25 104 -100 104h-160
c-75 0 -100 -28 -100 -104zM289 763l93 -140h-43l-117 140h67z" />
    <glyph glyph-name="eacute" unicode="&#xe9;" 
d="M555 400v-148h-420v-92c0 -76 25 -104 100 -104h160c75 0 100 28 100 104v20h60v-20c0 -109 -49 -160 -160 -160h-160c-111 0 -160 51 -160 160v240c0 109 49 160 160 160h160c111 0 160 -51 160 -160zM135 400v-92h360v92c0 76 -25 104 -100 104h-160
c-75 0 -100 -28 -100 -104zM366 763h67l-117 -140h-43z" />
    <glyph glyph-name="ecircumflex" unicode="&#xea;" 
d="M555 400v-148h-420v-92c0 -76 25 -104 100 -104h160c75 0 100 28 100 104v20h60v-20c0 -109 -49 -160 -160 -160h-160c-111 0 -160 51 -160 160v240c0 109 49 160 160 160h160c111 0 160 -51 160 -160zM135 400v-92h360v92c0 76 -25 104 -100 104h-160
c-75 0 -100 -28 -100 -104zM321 727h-10l-83 -104h-51l111 140h55l112 -140h-52z" />
    <glyph glyph-name="edieresis" unicode="&#xeb;" 
d="M555 400v-148h-420v-92c0 -76 25 -104 100 -104h160c75 0 100 28 100 104v20h60v-20c0 -109 -49 -160 -160 -160h-160c-111 0 -160 51 -160 160v240c0 109 49 160 160 160h160c111 0 160 -51 160 -160zM135 400v-92h360v92c0 76 -25 104 -100 104h-160
c-75 0 -100 -28 -100 -104zM273 642c-15 -16 -41 -16 -57 0c-15 16 -15 40 0 56c16 16 42 16 57 0c16 -16 16 -40 0 -56zM413 642c-15 -16 -41 -16 -57 0c-15 16 -15 40 0 56c16 16 42 16 57 0c16 -16 16 -40 0 -56z" />
    <glyph glyph-name="igrave" unicode="&#xec;" horiz-adv-x="220" 
d="M140 560v-560h-60v560h60zM44 763l93 -140h-43l-117 140h67z" />
    <glyph glyph-name="iacute" unicode="&#xed;" horiz-adv-x="220" 
d="M140 0h-60v560h60v-560zM163 780h67l-117 -140h-43z" />
    <glyph glyph-name="icircumflex" unicode="&#xee;" horiz-adv-x="220" 
d="M140 0h-60v560h60v-560zM82 780h55l111 -140h-51l-82 104h-10l-83 -104h-51z" />
    <glyph glyph-name="idieresis" unicode="&#xef;" horiz-adv-x="220" 
d="M140 0h-60v560h60v-560zM12 698c34 39 95 -22 56 -56c-34 -39 -95 22 -56 56zM152 698c34 39 95 -22 56 -56c-34 -39 -95 22 -56 56z" />
    <glyph glyph-name="eth" unicode="&#xf0;" 
d="M315 720h80c111 0 160 -51 160 -160v-400c0 -109 -49 -160 -160 -160h-160c-111 0 -160 51 -160 160v160c0 109 49 160 160 160h260v80c0 76 -25 104 -100 104h-80v-80h-40v80h-120v56h120v80h40v-80zM495 160v264h-260c-75 0 -100 -28 -100 -104v-160
c0 -76 25 -104 100 -104h160c75 0 100 28 100 104z" />
    <glyph glyph-name="ntilde" unicode="&#xf1;" horiz-adv-x="640" 
d="M240 560h160c109 0 160 -51 160 -160v-400h-60v400c0 76 -25 104 -100 104h-160c-75 0 -100 -28 -100 -104v-400h-60v400c0 109 51 160 160 160zM240 658v-18h-40v18c0 60 20 80 80 80h80c35 0 40 8 40 44v18h40v-18c0 -60 -20 -80 -80 -80h-80c-35 0 -40 -8 -40 -44z
" />
    <glyph glyph-name="ograve" unicode="&#xf2;" 
d="M235 560h160c111 0 160 -51 160 -160v-240c0 -109 -49 -160 -160 -160h-160c-111 0 -160 51 -160 160v240c0 109 49 160 160 160zM495 160v240c0 76 -25 104 -100 104h-160c-75 0 -100 -28 -100 -104v-240c0 -76 25 -104 100 -104h160c75 0 100 28 100 104zM276 763
l93 -140h-43l-117 140h67z" />
    <glyph glyph-name="oacute" unicode="&#xf3;" 
d="M235 560h160c111 0 160 -51 160 -160v-240c0 -109 -49 -160 -160 -160h-160c-111 0 -160 51 -160 160v240c0 109 49 160 160 160zM135 400v-240c0 -76 25 -104 100 -104h160c75 0 100 28 100 104v240c0 76 -25 104 -100 104h-160c-75 0 -100 -28 -100 -104zM366 763h67
l-117 -140h-43z" />
    <glyph glyph-name="ocircumflex" unicode="&#xf4;" 
d="M235 560h160c111 0 160 -51 160 -160v-240c0 -109 -49 -160 -160 -160h-160c-111 0 -160 51 -160 160v240c0 109 49 160 160 160zM495 160v240c0 76 -25 104 -100 104h-160c-75 0 -100 -28 -100 -104v-240c0 -76 25 -104 100 -104h160c75 0 100 28 100 104zM320 727h-10
l-83 -104h-51l111 140h55l112 -140h-52z" />
    <glyph glyph-name="otilde" unicode="&#xf5;" 
d="M235 560h160c111 0 160 -51 160 -160v-240c0 -109 -49 -160 -160 -160h-160c-111 0 -160 51 -160 160v240c0 109 49 160 160 160zM495 160v240c0 76 -25 104 -100 104h-160c-75 0 -100 -28 -100 -104v-240c0 -76 25 -104 100 -104h160c75 0 100 28 100 104zM223 667
l-7 -18c-12 4 -28 12 -40 17c2 5 8 19 8 18c15 35 32 55 58 55c14 0 29 -4 46 -11c13 -5 25 -10 38 -15c12 -5 27 -10 38 -14c28 -11 37 -6 50 26c2 5 5 13 7 18c12 -4 28 -12 40 -17c-2 -5 -8 -19 -8 -18c-15 -35 -32 -55 -59 -55c-14 0 -28 4 -45 11c-12 4 -25 9 -38 14
c-14 5 -26 10 -38 15c-31 12 -39 6 -50 -26z" />
    <glyph glyph-name="odieresis" unicode="&#xf6;" 
d="M273 642c-15 -16 -41 -16 -57 0c-15 16 -15 40 0 56c16 16 42 16 57 0c16 -16 16 -40 0 -56zM413 642c-15 -16 -41 -16 -57 0c-15 16 -15 40 0 56c16 16 42 16 57 0c16 -16 16 -40 0 -56zM235 560h160c111 0 160 -51 160 -160v-240c0 -109 -49 -160 -160 -160h-160
c-111 0 -160 51 -160 160v240c0 109 49 160 160 160zM495 160v240c0 76 -25 104 -100 104h-160c-75 0 -100 -28 -100 -104v-240c0 -76 25 -104 100 -104h160c75 0 100 28 100 104z" />
    <glyph glyph-name="divide" unicode="&#xf7;" horiz-adv-x="620" 
d="M70 252v56h480v-56h-480zM274 155c20 20 52 20 71 0c20 -19 20 -51 0 -71c-19 -19 -51 -19 -71 0c-19 20 -19 52 0 71zM345 404c-19 -19 -51 -19 -71 0c-19 20 -19 52 0 71c20 20 52 20 71 0c20 -19 20 -51 0 -71z" />
    <glyph glyph-name="oslash" unicode="&#xf8;" 
d="M235 560h160c111 0 160 -51 160 -160v-240c0 -109 -49 -160 -160 -160h-160c-111 0 -160 51 -160 160v240c0 109 49 160 160 160zM395 504h-160c-75 0 -100 -28 -100 -104v-190l360 180v10c0 76 -25 104 -100 104zM235 56h160c75 0 100 28 100 104v190l-360 -180v-10
c0 -76 25 -104 100 -104z" />
    <glyph glyph-name="ugrave" unicode="&#xf9;" horiz-adv-x="640" 
d="M500 160v400h60v-400c0 -109 -51 -160 -160 -160h-160c-109 0 -160 51 -160 160v400h60v-400c0 -76 25 -104 100 -104h160c75 0 100 28 100 104zM283 763l93 -140h-43l-117 140h67z" />
    <glyph glyph-name="uacute" unicode="&#xfa;" horiz-adv-x="640" 
d="M80 560h60v-400c0 -76 25 -104 100 -104h160c75 0 100 28 100 104v400h60v-400c0 -109 -51 -160 -160 -160h-160c-109 0 -160 51 -160 160v400zM366 763h67l-117 -140h-43z" />
    <glyph glyph-name="ucircumflex" unicode="&#xfb;" horiz-adv-x="640" 
d="M500 160v400h60v-400c0 -109 -51 -160 -160 -160h-160c-109 0 -160 51 -160 160v400h60v-400c0 -76 25 -104 100 -104h160c75 0 100 28 100 104zM325 744h-10l-83 -104h-51l111 140h55l112 -140h-52z" />
    <glyph glyph-name="udieresis" unicode="&#xfc;" horiz-adv-x="640" 
d="M500 160v400h60v-400c0 -109 -51 -160 -160 -160h-160c-109 0 -160 51 -160 160v400h60v-400c0 -76 25 -104 100 -104h160c75 0 100 28 100 104zM278 642c-34 -39 -95 22 -56 56c34 39 95 -22 56 -56zM418 642c-34 -39 -95 22 -56 56c34 39 95 -22 56 -56z" />
    <glyph glyph-name="yacute" unicode="&#xfd;" horiz-adv-x="604" 
d="M307 56l203 504h64l-305 -760h-65l81 200h-30l-225 560h65l202 -504h10zM352 763h67l-117 -140h-43z" />
    <glyph glyph-name="thorn" unicode="&#xfe;" horiz-adv-x="635" 
d="M140 560h260c109 0 160 -51 160 -160v-240c0 -109 -51 -160 -160 -160h-260v-200h-60v960h60v-200zM500 160v240c0 76 -25 104 -100 104h-260v-448h260c75 0 100 28 100 104z" />
    <glyph glyph-name="ydieresis" unicode="&#xff;" horiz-adv-x="604" 
d="M260 642c-34 -39 -95 22 -56 56c34 39 95 -22 56 -56zM400 642c-34 -39 -95 22 -56 56c34 39 95 -22 56 -56zM307 56l203 504h64l-305 -760h-65l81 200h-30l-225 560h65l202 -504h10z" />
    <glyph glyph-name="dotlessi" unicode="&#x131;" horiz-adv-x="220" 
d="M140 0h-60v560h60v-560z" />
    <glyph glyph-name="Lslash" unicode="&#x141;" horiz-adv-x="700" 
d="M210 315v-259h460v-56h-520v285l-120 -60v40l120 60v395h60v-365l240 120v-40z" />
    <glyph glyph-name="lslash" unicode="&#x142;" horiz-adv-x="410" 
d="M290 56h60v-56h-60c-100 0 -140 40 -140 140v205l-120 -60v40l120 60v375h60v-345l120 60v-40l-120 -60v-235c0 -65 16 -84 80 -84z" />
    <glyph glyph-name="OE" unicode="&#x152;" horiz-adv-x="1160" 
d="M1095 720v-56h-460v-276h450v-56h-450v-276h460v-56h-860c-111 0 -160 51 -160 160v400c0 109 49 160 160 160h860zM235 56h340v608h-340c-75 0 -100 -28 -100 -104v-400c0 -76 25 -104 100 -104z" />
    <glyph glyph-name="oe" unicode="&#x153;" horiz-adv-x="1050" 
d="M975 400v-148h-420v-92c0 -76 25 -104 100 -104h160c75 0 100 28 100 104v20h60v-20c0 -109 -49 -160 -160 -160h-160c-89 0 -120 51 -123 72l-2 8h-10s-10 -80 -125 -80h-160c-111 0 -160 51 -160 160v240c0 109 49 160 160 160h160c89 0 120 -51 123 -72l2 -8h10
s10 80 125 80h160c111 0 160 -51 160 -160zM555 400v-92h360v92c0 76 -25 104 -100 104h-160c-75 0 -100 -28 -100 -104zM495 160v240c0 76 -25 104 -100 104h-160c-75 0 -100 -28 -100 -104v-240c0 -76 25 -104 100 -104h160c75 0 100 28 100 104z" />
    <glyph glyph-name="Scaron" unicode="&#x160;" horiz-adv-x="700" 
d="M630 560v-60h-60v60c0 76 -25 104 -100 104h-240c-75 0 -100 -28 -100 -104c0 -41 6 -70 17 -86c11 -15 39 -30 83 -45l240 -80c56 -19 78 -27 107 -46c43 -28 49 -64 53 -143c0 -109 -51 -160 -160 -160h-240c-109 0 -160 51 -160 160v60h60v-60c0 -76 25 -104 100 -104
h240c75 0 100 28 100 104c0 41 -6 70 -17 85s-39 30 -83 45l-240 80c-35 11 -60 21 -77 28c-17 8 -32 19 -47 33c-29 28 -36 64 -36 129c0 109 51 160 160 160h240c109 0 160 -51 160 -160zM489 940l-112 -140h-55l-111 140h51l83 -104h10l82 104h52z" />
    <glyph glyph-name="scaron" unicode="&#x161;" horiz-adv-x="620" 
d="M550 400v-20h-60v20c0 76 -25 104 -100 104h-160c-75 0 -100 -28 -100 -104c0 -43 23 -52 88 -68c5 -1 9 -2 12 -3l160 -40c26 -7 45 -12 56 -15s25 -8 42 -15c48 -20 56 -44 62 -99c0 -109 -51 -160 -160 -160h-160c-109 0 -160 51 -160 160v20h60v-20
c0 -76 25 -104 100 -104h160c75 0 100 28 100 104c0 43 -23 52 -88 68c-2 1 -8 3 -12 3l-160 40c-26 7 -45 11 -56 14s-26 9 -43 16c-46 20 -56 44 -61 99c0 109 51 160 160 160h160c109 0 160 -51 160 -160zM449 780l-112 -140h-55l-111 140h51l83 -104h10l82 104h52z" />
    <glyph glyph-name="Ydieresis" unicode="&#x178;" horiz-adv-x="663" 
d="M336 316l228 404h69l-272 -482v-238h-60v238l-271 482h69l227 -404h10zM429 802c-15 -16 -41 -16 -57 0c-15 16 -15 40 0 56c16 16 42 16 57 0c16 -16 16 -40 0 -56zM289 802c-15 -16 -41 -16 -57 0c-15 16 -15 40 0 56c16 16 42 16 57 0c16 -16 16 -40 0 -56z" />
    <glyph glyph-name="Zcaron" unicode="&#x17d;" horiz-adv-x="690" 
d="M625 720v-85l-500 -569v-10h500v-56h-560v85l500 569v10h-500v56h560zM484 940l-112 -140h-55l-111 140h51l83 -104h10l82 104h52z" />
    <glyph glyph-name="zcaron" unicode="&#x17e;" horiz-adv-x="610" 
d="M545 472l-420 -406v-10h420v-56h-480v87l420 407v10h-420v56h480v-88zM444 780l-112 -140h-55l-111 140h51l83 -104h10l82 104h52z" />
    <glyph glyph-name="florin" unicode="&#x192;" horiz-adv-x="415" 
d="M360 704h-140c-64 0 -80 -19 -80 -84v-60h200v-56h-200v-564c0 -100 -40 -140 -140 -140h-60v56h60c64 0 80 19 80 84v680c0 100 40 140 140 140h140v-56z" />
    <glyph glyph-name="circumflex" unicode="&#x2c6;" horiz-adv-x="417" 
d="M121 640h-51l111 140h55l111 -140h-51l-82 104h-10z" />
    <glyph glyph-name="caron" unicode="&#x2c7;" horiz-adv-x="417" 
d="M181 640l-111 140h51l83 -104h10l82 104h51l-111 -140h-55z" />
    <glyph glyph-name="uni02C9" unicode="&#x2c9;" horiz-adv-x="380" 
d="M310 640h-240v36h240v-36z" />
    <glyph glyph-name="breve" unicode="&#x2d8;" horiz-adv-x="380" 
d="M270 720v60h40v-60c0 -60 -20 -80 -80 -80h-80c-60 0 -80 20 -80 80v60h40v-60c0 -36 5 -44 40 -44h80c35 0 40 8 40 44z" />
    <glyph glyph-name="dotaccent" unicode="&#x2d9;" horiz-adv-x="240" 
d="M84 715c20 20 52 20 71 0c20 -19 20 -51 0 -71c-19 -19 -51 -19 -71 0c-19 20 -19 52 0 71z" />
    <glyph glyph-name="ring" unicode="&#x2da;" horiz-adv-x="310" 
d="M95 775c33 33 87 33 120 0s33 -87 0 -120s-87 -33 -120 0s-33 87 0 120zM123 683c17 -17 47 -17 64 0s17 47 0 64s-47 17 -64 0s-17 -47 0 -64z" />
    <glyph glyph-name="ogonek" unicode="&#x2db;" horiz-adv-x="340" 
d="M110 0v-100c0 -65 16 -84 80 -84h80v-36h-80c-91 0 -120 29 -120 120v100h40z" />
    <glyph glyph-name="tilde" unicode="&#x2dc;" horiz-adv-x="380" 
d="M270 782v18h40v-18c0 -60 -20 -80 -80 -80h-80c-35 0 -40 -8 -40 -44v-18h-40v18c0 60 20 80 80 80h80c35 0 40 8 40 44z" />
    <glyph glyph-name="hungarumlaut" unicode="&#x2dd;" horiz-adv-x="440" 
d="M70 640l93 140h67l-117 -140h-43zM210 640l93 140h67l-117 -140h-43z" />
    <glyph glyph-name="uni03A9" unicode="&#x3a9;" horiz-adv-x="680" 
d="M520 67v-11h120v-56h-180v90c59 5 80 33 80 101v329c0 76 -25 104 -100 104h-200c-75 0 -100 -28 -100 -104v-329c0 -69 20 -96 80 -101v-90h-180v56h120v11s-80 8 -80 124v329c0 109 51 160 160 160h200c109 0 160 -51 160 -160v-329c0 -90 -51 -118 -72 -123z" />
    <glyph glyph-name="uni03BC" unicode="&#x3bc;" horiz-adv-x="640" 
d="M500 160v400h60v-400c0 -109 -51 -160 -160 -160h-260v-160h-60v720h60v-504h260c75 0 100 28 100 104z" />
    <glyph glyph-name="pi" unicode="&#x3c0;" horiz-adv-x="640" 
d="M40 560h560v-56h-80v-504h-60v504h-280v-504h-60v504h-80v56z" />
    <glyph glyph-name="endash" unicode="&#x2013;" horiz-adv-x="580" 
d="M70 308h440v-56h-440v56z" />
    <glyph glyph-name="emdash" unicode="&#x2014;" horiz-adv-x="720" 
d="M70 308h580v-56h-580v56z" />
    <glyph glyph-name="quoteleft" unicode="&#x2018;" horiz-adv-x="250" 
d="M180 720l-33 -130h-77l65 130h45z" />
    <glyph glyph-name="quoteright" unicode="&#x2019;" horiz-adv-x="250" 
d="M70 590l32 130h78l-65 -130h-45z" />
    <glyph glyph-name="quotesinglbase" unicode="&#x201a;" horiz-adv-x="250" 
d="M70 0l32 130h78l-65 -130h-45z" />
    <glyph glyph-name="quotedblleft" unicode="&#x201c;" horiz-adv-x="390" 
d="M147 590h-77l65 130h45zM210 590l65 130h45l-33 -130h-77z" />
    <glyph glyph-name="quotedblright" unicode="&#x201d;" horiz-adv-x="390" 
d="M242 720h78l-65 -130h-45zM180 720l-65 -130h-45l32 130h78z" />
    <glyph glyph-name="quotedblbase" unicode="&#x201e;" horiz-adv-x="390" 
d="M242 130h78l-65 -130h-45zM180 130l-65 -130h-45l32 130h78z" />
    <glyph glyph-name="dagger" unicode="&#x2020;" horiz-adv-x="680" 
d="M610 560v-56h-240v-624h-60v624h-240v56h240v160h60v-160h240z" />
    <glyph glyph-name="daggerdbl" unicode="&#x2021;" horiz-adv-x="680" 
d="M610 560v-56h-240v-408h240v-56h-240v-160h-60v160h-240v56h240v408h-240v56h240v160h60v-160h240z" />
    <glyph glyph-name="bullet" unicode="&#x2022;" horiz-adv-x="300" 
d="M93 336c32 32 82 32 113 0c32 -31 32 -81 0 -113c-31 -31 -81 -31 -113 0c-31 32 -31 82 0 113z" />
    <glyph glyph-name="ellipsis" unicode="&#x2026;" horiz-adv-x="560" 
d="M84 75c20 20 52 20 71 0c20 -19 20 -51 0 -71c-19 -19 -51 -19 -71 0c-19 20 -19 52 0 71zM244 75c20 20 52 20 71 0c20 -19 20 -51 0 -71c-19 -19 -51 -19 -71 0c-19 20 -19 52 0 71zM404 75c20 20 52 20 71 0c20 -19 20 -51 0 -71c-19 -19 -51 -19 -71 0
c-19 20 -19 52 0 71z" />
    <glyph glyph-name="perthousand" unicode="&#x2030;" horiz-adv-x="1270" 
d="M375 600v-120c0 -91 -31 -120 -120 -120h-60c-89 0 -120 29 -120 120v120c0 91 31 120 120 120h60c89 0 120 -29 120 -120zM115 600v-120c0 -65 16 -84 80 -84h60c64 0 80 19 80 84v120c0 65 -16 84 -80 84h-60c-64 0 -80 -19 -80 -84zM635 360h60c89 0 120 -29 120 -120
v-120c0 -91 -31 -120 -120 -120h-60c-89 0 -120 29 -120 120v120c0 91 31 120 120 120zM775 120v120c0 65 -16 84 -80 84h-60c-64 0 -80 -19 -80 -84v-120c0 -65 16 -84 80 -84h60c64 0 80 19 80 84zM1015 360h60c89 0 120 -29 120 -120v-120c0 -91 -31 -120 -120 -120h-60
c-89 0 -120 29 -120 120v120c0 91 31 120 120 120zM1155 120v120c0 65 -16 84 -80 84h-60c-64 0 -80 -19 -80 -84v-120c0 -65 16 -84 80 -84h60c64 0 80 19 80 84zM243 0l360 720h44l-360 -720h-44z" />
    <glyph glyph-name="guilsinglleft" unicode="&#x2039;" horiz-adv-x="365" 
d="M70 280l150 200h75l-150 -200l150 -200h-75z" />
    <glyph glyph-name="guilsinglright" unicode="&#x203a;" horiz-adv-x="365" 
d="M220 280l-150 200h75l150 -200l-150 -200h-75z" />
    <glyph glyph-name="fraction" unicode="&#x2044;" horiz-adv-x="465" 
d="M30 0l360 720h45l-360 -720h-45z" />
    <glyph glyph-name="Euro" unicode="&#x20ac;" horiz-adv-x="750" 
d="M620 160v60h60v-60c0 -109 -51 -160 -160 -160h-240c-109 0 -160 51 -160 160v110h-80v36h360v-36h-220v-110c0 -76 25 -104 100 -104h240c75 0 100 28 100 104zM280 720h240c109 0 160 -51 160 -160v-60h-60v60c0 76 -25 104 -100 104h-240c-75 0 -100 -28 -100 -104
v-110h220v-36h-360v36h80v110c0 109 51 160 160 160z" />
    <glyph glyph-name="afii61289" unicode="&#x2113;" horiz-adv-x="435" 
d="M195 720h60c89 0 120 -29 120 -120v-200c0 -91 -31 -120 -120 -120h-140v-160c0 -65 16 -84 80 -84h80v-36h-80c-89 0 -120 29 -120 120v480c0 91 31 120 120 120zM335 400v200c0 65 -16 84 -80 84h-60c-64 0 -80 -19 -80 -84v-284h140c64 0 80 19 80 84z" />
    <glyph glyph-name="trademark" unicode="&#x2122;" horiz-adv-x="850" 
d="M595 500l100 220h75v-360h-40v324h-10l-100 -220h-60l-100 220h-10v-324h-40v360h75l100 -220h10zM165 684h-135v36h310v-36h-135v-324h-40v324z" />
    <glyph glyph-name="Omega" unicode="&#x2126;" horiz-adv-x="680" 
d="M520 67v-11h120v-56h-180v90c59 5 80 33 80 101v329c0 76 -25 104 -100 104h-200c-75 0 -100 -28 -100 -104v-329c0 -69 20 -96 80 -101v-90h-180v56h120v11s-80 8 -80 124v329c0 109 51 160 160 160h200c109 0 160 -51 160 -160v-329c0 -90 -51 -118 -72 -123z" />
    <glyph glyph-name="estimated" unicode="&#x212e;" horiz-adv-x="880" 
d="M728 180h35c-32 -57 -77 -103 -135 -138c-57 -35 -120 -52 -188 -52c-102 0 -189 36 -262 108c-72 73 -108 160 -108 262s36 189 108 261c73 73 160 109 262 109s189 -36 261 -109c73 -72 109 -159 109 -261v-14h-580v-253c61 -49 131 -73 210 -73c120 0 227 63 288 160z
M230 627v-253h420v253c-61 49 -131 73 -210 73s-149 -24 -210 -73z" />
    <glyph glyph-name="partialdiff" unicode="&#x2202;" 
d="M155 760h240c111 0 160 -51 160 -160v-440c0 -109 -49 -160 -160 -160h-160c-111 0 -160 51 -160 160v160c0 109 49 160 160 160h260v120c0 76 -25 104 -100 104h-240v56zM495 160v264h-260c-75 0 -100 -28 -100 -104v-160c0 -76 25 -104 100 -104h160
c75 0 100 28 100 104z" />
    <glyph glyph-name="increment" unicode="&#x2206;" horiz-adv-x="683" 
d="M294 720h96l263 -720h-623zM337 664l-223 -608h454l-221 608h-10z" />
    <glyph glyph-name="product" unicode="&#x220f;" horiz-adv-x="720" 
d="M80 0v720h560v-720h-60v664h-440v-664h-60z" />
    <glyph glyph-name="summation" unicode="&#x2211;" horiz-adv-x="640" 
d="M600 720v-56h-500v-10l300 -350v-48l-300 -350v-10h500v-56h-560v85l300 350v10l-300 350v85h560z" />
    <glyph glyph-name="minus" unicode="&#x2212;" horiz-adv-x="620" 
d="M70 308h480v-56h-480v56z" />
    <glyph glyph-name="uni2215" unicode="&#x2215;" horiz-adv-x="465" 
d="M30 0l360 720h45l-360 -720h-45z" />
    <glyph glyph-name="uni2219" unicode="&#x2219;" horiz-adv-x="240" 
d="M84 315c20 20 52 20 71 0c20 -19 20 -51 0 -71c-19 -19 -51 -19 -71 0c-19 20 -19 52 0 71z" />
    <glyph glyph-name="radical" unicode="&#x221a;" horiz-adv-x="680" 
d="M334 -144l275 1084h41l-284 -1120h-74l-143 564h-99v36h131l143 -564h10z" />
    <glyph glyph-name="infinity" unicode="&#x221e;" horiz-adv-x="920" 
d="M590 460h100c109 0 160 -51 160 -160v-40c0 -109 -51 -160 -160 -160h-100c-90 0 -119 51 -124 72l-1 8h-10s-10 -80 -125 -80h-100c-109 0 -160 51 -160 160v40c0 109 51 160 160 160h100c90 0 119 -51 124 -72l1 -8h10s10 80 125 80zM430 260v40c0 76 -25 104 -100 104
h-100c-75 0 -100 -28 -100 -104v-40c0 -76 25 -104 100 -104h100c75 0 100 28 100 104zM790 260v40c0 76 -25 104 -100 104h-100c-75 0 -100 -28 -100 -104v-40c0 -76 25 -104 100 -104h100c75 0 100 28 100 104z" />
    <glyph glyph-name="integral" unicode="&#x222b;" horiz-adv-x="440" 
d="M320 800h80v-36h-80c-64 0 -80 -19 -80 -84v-680c0 -91 -29 -120 -120 -120h-80v36h80c64 0 80 19 80 84v680c0 91 29 120 120 120z" />
    <glyph glyph-name="approxequal" unicode="&#x2248;" horiz-adv-x="620" 
d="M490 512v28h60v-28c0 -100 -40 -140 -140 -140h-200c-64 0 -80 -19 -80 -84v-28h-60v28c0 100 40 140 140 140h200c64 0 80 19 80 84zM490 272v28h60v-28c0 -100 -40 -140 -140 -140h-200c-64 0 -80 -19 -80 -84v-28h-60v28c0 100 40 140 140 140h200c64 0 80 19 80 84z
" />
    <glyph glyph-name="notequal" unicode="&#x2260;" horiz-adv-x="620" 
d="M550 390v-56h-191l-54 -108h245v-56h-273l-50 -100h-44l50 100h-163v56h191l54 108h-245v56h273l50 100h44l-50 -100h163z" />
    <glyph glyph-name="lessequal" unicode="&#x2264;" horiz-adv-x="620" 
d="M550 521v-59l-420 -127v-10l420 -128v-58l-480 146v90zM550 40h-480v56h480v-56z" />
    <glyph glyph-name="greaterequal" unicode="&#x2265;" horiz-adv-x="620" 
d="M490 335l-420 127v59l480 -146v-90l-480 -146v58l420 128v10zM550 96v-56h-480v56h480z" />
    <glyph glyph-name="lozenge" unicode="&#x25ca;" horiz-adv-x="660" 
d="M301 0l-231 360l231 360h58l231 -360l-231 -360h-58zM335 36l207 324l-207 324h-10l-208 -324l208 -324h10z" />
    <glyph glyph-name="f_f_j" unicode="&#xe095;" horiz-adv-x="900" 
d="M480 620v-60h340v-620c0 -100 -40 -140 -140 -140h-60v56h60c64 0 80 19 80 84v564h-280v-504h-60v504h-280v-504h-60v620c0 100 40 140 140 140h140v-56h-140c-64 0 -80 -19 -80 -84v-60h280v60c0 100 40 140 140 140h140v-56h-140c-64 0 -80 -19 -80 -84z" />
    <glyph glyph-name="f_j" unicode="&#xe09a;" horiz-adv-x="560" 
d="M140 620v-60h340v-620c0 -100 -40 -140 -140 -140h-60v56h60c64 0 80 19 80 84v564h-280v-504h-60v620c0 100 40 140 140 140h140v-56h-140c-64 0 -80 -19 -80 -84z" />
    <glyph glyph-name="lslash.sc" unicode="&#xf6f9;" horiz-adv-x="620" 
d="M210 235v-179h380v-56h-440v205l-120 -60v40l120 60v315h60v-285l180 90v-40z" />
    <glyph glyph-name="oe.sc" unicode="&#xf6fa;" horiz-adv-x="1000" 
d="M935 560v-56h-380v-196h370v-56h-370v-196h380v-56h-700c-111 0 -160 51 -160 160v240c0 109 49 160 160 160h700zM235 56h260v448h-260c-75 0 -100 -28 -100 -104v-240c0 -76 25 -104 100 -104z" />
    <glyph glyph-name="scaron.sc" unicode="&#xf6fd;" horiz-adv-x="620" 
d="M550 400v-20h-60v20c0 76 -25 104 -100 104h-160c-75 0 -100 -28 -100 -104c0 -43 23 -52 88 -68c5 -1 9 -2 12 -3l160 -40c26 -7 45 -12 56 -15s25 -8 42 -15c48 -20 56 -44 62 -99c0 -109 -51 -160 -160 -160h-160c-109 0 -160 51 -160 160v20h60v-20
c0 -76 25 -104 100 -104h160c75 0 100 28 100 104c0 43 -23 52 -88 68c-2 1 -8 3 -12 3l-160 40c-26 7 -45 11 -56 14s-26 9 -43 16c-46 20 -56 44 -61 99c0 109 51 160 160 160h160c109 0 160 -51 160 -160zM449 780l-112 -140h-55l-111 140h51l83 -104h10l82 104h52z" />
    <glyph glyph-name="zcaron.sc" unicode="&#xf6ff;" horiz-adv-x="610" 
d="M545 472l-420 -406v-10h420v-56h-480v87l420 407v10h-420v56h480v-88zM444 780l-112 -140h-55l-111 140h51l83 -104h10l82 104h52z" />
    <glyph glyph-name="a.sc" unicode="&#xf761;" horiz-adv-x="604" 
d="M255 560h94l225 -560h-64l-61 152h-293l-61 -152h-65zM297 504l-119 -296h248l-119 296h-10z" />
    <glyph glyph-name="b.sc" unicode="&#xf762;" horiz-adv-x="635" 
d="M488 286l-8 -1v-10s80 -10 80 -115v-10c0 -100 -53 -150 -160 -150h-320v560h320c107 0 160 -50 160 -150v-10c0 -82 -51 -109 -72 -114zM500 150v10c0 67 -27 92 -100 92h-260v-196h260c73 0 100 27 100 94zM400 504h-260v-196h260c73 0 100 25 100 92v10
c0 67 -27 94 -100 94z" />
    <glyph glyph-name="c.sc" unicode="&#xf763;" horiz-adv-x="625" 
d="M495 160v20h60v-20c0 -109 -49 -160 -160 -160h-160c-111 0 -160 51 -160 160v240c0 109 49 160 160 160h160c111 0 160 -51 160 -160v-20h-60v20c0 76 -25 104 -100 104h-160c-75 0 -100 -28 -100 -104v-240c0 -76 25 -104 100 -104h160c75 0 100 28 100 104z" />
    <glyph glyph-name="d.sc" unicode="&#xf764;" horiz-adv-x="635" 
d="M80 560h320c109 0 160 -51 160 -160v-240c0 -109 -51 -160 -160 -160h-320v560zM500 160v240c0 76 -25 104 -100 104h-260v-448h260c75 0 100 28 100 104z" />
    <glyph glyph-name="e.sc" unicode="&#xf765;" horiz-adv-x="585" 
d="M520 560v-56h-380v-196h370v-56h-370v-196h380v-56h-440v560h440z" />
    <glyph glyph-name="f.sc" unicode="&#xf766;" horiz-adv-x="575" 
d="M140 252v-252h-60v560h440v-56h-380v-196h370v-56h-370z" />
    <glyph glyph-name="g.sc" unicode="&#xf767;" 
d="M555 400v-20h-60v20c0 76 -25 104 -100 104h-160c-75 0 -100 -28 -100 -104v-240c0 -76 25 -104 100 -104h160c75 0 100 28 100 104v92h-180v56h240v-148c0 -109 -49 -160 -160 -160h-160c-111 0 -160 51 -160 160v240c0 109 49 160 160 160h160c111 0 160 -51 160 -160z
" />
    <glyph glyph-name="h.sc" unicode="&#xf768;" horiz-adv-x="640" 
d="M500 308v252h60v-560h-60v252h-360v-252h-60v560h60v-252h360z" />
    <glyph glyph-name="i.sc" unicode="&#xf769;" horiz-adv-x="220" 
d="M140 0h-60v560h60v-560z" />
    <glyph glyph-name="j.sc" unicode="&#xf76a;" horiz-adv-x="620" 
d="M480 160v400h60v-400c0 -109 -51 -160 -160 -160h-160c-109 0 -160 51 -160 160v120h60v-120c0 -76 25 -104 100 -104h160c75 0 100 28 100 104z" />
    <glyph glyph-name="k.sc" unicode="&#xf76b;" horiz-adv-x="612" 
d="M507 560h75l-203 -280l203 -280h-75l-182 252h-185v-252h-60v560h60v-252h185z" />
    <glyph glyph-name="l.sc" unicode="&#xf76c;" horiz-adv-x="550" 
d="M80 560h60v-504h380v-56h-440v560z" />
    <glyph glyph-name="m.sc" unicode="&#xf76d;" horiz-adv-x="740" 
d="M375 196l180 364h105v-560h-60v504h-10l-180 -364h-80l-180 364h-10v-504h-60v560h105l180 -364h10z" />
    <glyph glyph-name="n.sc" unicode="&#xf76e;" horiz-adv-x="640" 
d="M500 56v504h60v-560h-105l-305 504h-10v-504h-60v560h105l305 -504h10z" />
    <glyph glyph-name="o.sc" unicode="&#xf76f;" 
d="M235 560h160c111 0 160 -51 160 -160v-240c0 -109 -49 -160 -160 -160h-160c-111 0 -160 51 -160 160v240c0 109 49 160 160 160zM495 160v240c0 76 -25 104 -100 104h-160c-75 0 -100 -28 -100 -104v-240c0 -76 25 -104 100 -104h160c75 0 100 28 100 104z" />
    <glyph glyph-name="p.sc" unicode="&#xf770;" horiz-adv-x="620" 
d="M80 560h320c109 0 160 -51 160 -160v-40c0 -109 -51 -160 -160 -160h-260v-200h-60v560zM500 360v40c0 76 -25 104 -100 104h-260v-248h260c75 0 100 28 100 104z" />
    <glyph glyph-name="q.sc" unicode="&#xf771;" 
d="M235 560h160c111 0 160 -51 160 -160v-240c0 -109 -49 -160 -160 -160h-50v-160h-60v160h-50c-111 0 -160 51 -160 160v240c0 109 49 160 160 160zM495 160v240c0 76 -25 104 -100 104h-160c-75 0 -100 -28 -100 -104v-240c0 -76 25 -104 100 -104h160
c75 0 100 28 100 104z" />
    <glyph glyph-name="r.sc" unicode="&#xf772;" 
d="M560 400v-40c0 -109 -51 -160 -160 -160h-1l145 -200h-74l-145 200h-185v-200h-60v560h320c109 0 160 -51 160 -160zM140 504v-248h260c75 0 100 28 100 104v40c0 76 -25 104 -100 104h-260z" />
    <glyph glyph-name="s.sc" unicode="&#xf773;" horiz-adv-x="620" 
d="M550 400v-20h-60v20c0 76 -25 104 -100 104h-160c-75 0 -100 -28 -100 -104c0 -43 23 -52 88 -68c5 -1 9 -2 12 -3l160 -40c26 -7 45 -12 56 -15s25 -8 42 -15c48 -20 56 -44 62 -99c0 -109 -51 -160 -160 -160h-160c-109 0 -160 51 -160 160v20h60v-20
c0 -76 25 -104 100 -104h160c75 0 100 28 100 104c0 43 -23 52 -88 68c-2 1 -8 3 -12 3l-160 40c-26 7 -45 11 -56 14s-26 9 -43 16c-46 20 -56 44 -61 99c0 109 51 160 160 160h160c109 0 160 -51 160 -160z" />
    <glyph glyph-name="t.sc" unicode="&#xf774;" horiz-adv-x="540" 
d="M30 560h480v-56h-210v-504h-60v504h-210v56z" />
    <glyph glyph-name="u.sc" unicode="&#xf775;" horiz-adv-x="640" 
d="M500 160v400h60v-400c0 -109 -51 -160 -160 -160h-160c-109 0 -160 51 -160 160v400h60v-400c0 -76 25 -104 100 -104h160c75 0 100 28 100 104z" />
    <glyph glyph-name="v.sc" unicode="&#xf776;" horiz-adv-x="604" 
d="M95 560l202 -504h10l203 504h64l-225 -560h-94l-225 560h65z" />
    <glyph glyph-name="w.sc" unicode="&#xf777;" horiz-adv-x="899" 
d="M652 56l145 504h62l-161 -560h-98l-145 504h-10l-145 -504h-99l-161 560h62l145 -504h10l145 504h95l145 -504h10z" />
    <glyph glyph-name="x.sc" unicode="&#xf778;" horiz-adv-x="583" 
d="M553 560l-203 -280l203 -280h-74l-182 252h-10l-183 -252h-74l203 280l-203 280h74l183 -252h10l182 252h74z" />
    <glyph glyph-name="y.sc" unicode="&#xf779;" horiz-adv-x="585" 
d="M297 246l188 314h70l-233 -389v-171h-60v171l-232 389h70l187 -314h10z" />
    <glyph glyph-name="z.sc" unicode="&#xf77a;" horiz-adv-x="610" 
d="M545 472l-420 -406v-10h420v-56h-480v87l420 407v10h-420v56h480v-88z" />
    <glyph glyph-name="agrave.sc" unicode="&#xf7e0;" horiz-adv-x="604" 
d="M255 560h94l225 -560h-64l-61 152h-293l-61 -152h-65zM297 504l-119 -296h248l-119 296h-10zM249 780l93 -140h-43l-117 140h67z" />
    <glyph glyph-name="aacute.sc" unicode="&#xf7e1;" horiz-adv-x="604" 
d="M30 0l225 560h94l225 -560h-64l-61 152h-293l-61 -152h-65zM178 208h248l-119 296h-10zM305 640h-43l93 140h67z" />
    <glyph glyph-name="acircumflex.sc" unicode="&#xf7e2;" horiz-adv-x="604" 
d="M255 560h94l225 -560h-64l-61 152h-293l-61 -152h-65zM297 504l-119 -296h248l-119 296h-10zM307 744h-10l-82 -104h-51l111 140h55l111 -140h-51z" />
    <glyph glyph-name="atilde.sc" unicode="&#xf7e3;" horiz-adv-x="604" 
d="M255 560h94l225 -560h-64l-61 152h-293l-61 -152h-65zM297 504l-119 -296h248l-119 296h-10zM222 658v-18h-40v18c0 60 20 80 80 80h80c35 0 40 8 40 44v18h40v-18c0 -60 -20 -80 -80 -80h-80c-35 0 -40 -8 -40 -44z" />
    <glyph glyph-name="adieresis.sc" unicode="&#xf7e4;" horiz-adv-x="604" 
d="M260 642c-34 -39 -95 22 -56 56c34 39 95 -22 56 -56zM400 642c-34 -39 -95 22 -56 56c34 39 95 -22 56 -56zM255 560h94l225 -560h-64l-61 152h-293l-61 -152h-65zM297 504l-119 -296h248l-119 296h-10z" />
    <glyph glyph-name="aring.sc" unicode="&#xf7e5;" horiz-adv-x="604" 
d="M362 655c-33 -33 -87 -33 -120 0s-33 87 0 120s87 33 120 0s33 -87 0 -120zM334 747c-17 17 -47 17 -64 0s-17 -47 0 -64s47 -17 64 0s17 47 0 64zM255 560h94l225 -560h-64l-61 152h-293l-61 -152h-65zM297 504l-119 -296h248l-119 296h-10z" />
    <glyph glyph-name="ae.sc" unicode="&#xf7e6;" horiz-adv-x="912" 
d="M847 560v-56h-380v-196h370v-56h-370v-196h380v-56h-440v152h-218l-89 -152h-70l331 560h486zM222 208h185v296h-10z" />
    <glyph glyph-name="ccedilla.sc" unicode="&#xf7e7;" horiz-adv-x="625" 
d="M555 400v-20h-60v20c0 76 -25 104 -100 104h-160c-75 0 -100 -28 -100 -104v-240c0 -76 25 -104 100 -104h160c75 0 100 28 100 104v20h60v-20c0 -109 -49 -160 -160 -160h-100v-50h60c60 0 80 -20 80 -80v-10c0 -60 -20 -80 -80 -80h-160v36h160c35 0 40 8 40 44v10
c0 36 -5 44 -40 44h-100v86h-20c-111 0 -160 51 -160 160v240c0 109 49 160 160 160h160c111 0 160 -51 160 -160z" />
    <glyph glyph-name="egrave.sc" unicode="&#xf7e8;" horiz-adv-x="585" 
d="M247 780l93 -140h-43l-117 140h67zM520 560v-56h-380v-196h370v-56h-370v-196h380v-56h-440v560h440z" />
    <glyph glyph-name="eacute.sc" unicode="&#xf7e9;" horiz-adv-x="585" 
d="M353 780h67l-117 -140h-43zM520 560v-56h-380v-196h370v-56h-370v-196h380v-56h-440v560h440z" />
    <glyph glyph-name="ecircumflex.sc" unicode="&#xf7ea;" horiz-adv-x="585" 
d="M520 560v-56h-380v-196h370v-56h-370v-196h380v-56h-440v560h440zM305 744h-10l-83 -104h-51l111 140h55l112 -140h-52z" />
    <glyph glyph-name="edieresis.sc" unicode="&#xf7eb;" horiz-adv-x="585" 
d="M520 560v-56h-380v-196h370v-56h-370v-196h380v-56h-440v560h440zM258 642c-34 -39 -95 22 -56 56c34 39 95 -22 56 -56zM398 642c-34 -39 -95 22 -56 56c34 39 95 -22 56 -56z" />
    <glyph glyph-name="igrave.sc" unicode="&#xf7ec;" horiz-adv-x="220" 
d="M140 560v-560h-60v560h60zM107 640l-117 140h67l93 -140h-43z" />
    <glyph glyph-name="iacute.sc" unicode="&#xf7ed;" horiz-adv-x="220" 
d="M140 0h-60v560h60v-560zM163 780h67l-117 -140h-43z" />
    <glyph glyph-name="icircumflex.sc" unicode="&#xf7ee;" horiz-adv-x="220" 
d="M140 0h-60v560h60v-560zM82 780h55l111 -140h-51l-82 104h-10l-83 -104h-51z" />
    <glyph glyph-name="idieresis.sc" unicode="&#xf7ef;" horiz-adv-x="220" 
d="M140 0h-60v560h60v-560zM12 698c34 39 95 -22 56 -56c-34 -39 -95 22 -56 56zM152 698c34 39 95 -22 56 -56c-34 -39 -95 22 -56 56z" />
    <glyph glyph-name="eth.sc" unicode="&#xf7f0;" horiz-adv-x="675" 
d="M120 560h320c109 0 160 -51 160 -160v-240c0 -109 -51 -160 -160 -160h-320v252h-80v56h80v252zM540 160v240c0 76 -25 104 -100 104h-260v-196h180v-56h-180v-196h260c75 0 100 28 100 104z" />
    <glyph glyph-name="ntilde.sc" unicode="&#xf7f1;" horiz-adv-x="640" 
d="M500 56v504h60v-560h-105l-305 504h-10v-504h-60v560h105l305 -504h10zM240 658v-18h-40v18c0 60 20 80 80 80h80c35 0 40 8 40 44v18h40v-18c0 -60 -20 -80 -80 -80h-80c-35 0 -40 -8 -40 -44z" />
    <glyph glyph-name="ograve.sc" unicode="&#xf7f2;" 
d="M235 560h160c111 0 160 -51 160 -160v-240c0 -109 -49 -160 -160 -160h-160c-111 0 -160 51 -160 160v240c0 109 49 160 160 160zM495 160v240c0 76 -25 104 -100 104h-160c-75 0 -100 -28 -100 -104v-240c0 -76 25 -104 100 -104h160c75 0 100 28 100 104zM262 780
l93 -140h-43l-117 140h67z" />
    <glyph glyph-name="oacute.sc" unicode="&#xf7f3;" 
d="M235 560h160c111 0 160 -51 160 -160v-240c0 -109 -49 -160 -160 -160h-160c-111 0 -160 51 -160 160v240c0 109 49 160 160 160zM135 400v-240c0 -76 25 -104 100 -104h160c75 0 100 28 100 104v240c0 76 -25 104 -100 104h-160c-75 0 -100 -28 -100 -104zM318 640h-43
l93 140h67z" />
    <glyph glyph-name="ocircumflex.sc" unicode="&#xf7f4;" 
d="M235 560h160c111 0 160 -51 160 -160v-240c0 -109 -49 -160 -160 -160h-160c-111 0 -160 51 -160 160v240c0 109 49 160 160 160zM495 160v240c0 76 -25 104 -100 104h-160c-75 0 -100 -28 -100 -104v-240c0 -76 25 -104 100 -104h160c75 0 100 28 100 104zM320 744h-10
l-83 -104h-51l111 140h55l112 -140h-52z" />
    <glyph glyph-name="otilde.sc" unicode="&#xf7f5;" 
d="M235 658v-18h-40v18c0 60 20 80 80 80h80c35 0 40 8 40 44v18h40v-18c0 -60 -20 -80 -80 -80h-80c-35 0 -40 -8 -40 -44zM235 560h160c111 0 160 -51 160 -160v-240c0 -109 -49 -160 -160 -160h-160c-111 0 -160 51 -160 160v240c0 109 49 160 160 160zM495 160v240
c0 76 -25 104 -100 104h-160c-75 0 -100 -28 -100 -104v-240c0 -76 25 -104 100 -104h160c75 0 100 28 100 104z" />
    <glyph glyph-name="odieresis.sc" unicode="&#xf7f6;" 
d="M273 642c-15 -16 -41 -16 -57 0c-15 16 -15 40 0 56c16 16 42 16 57 0c16 -16 16 -40 0 -56zM413 642c-15 -16 -41 -16 -57 0c-15 16 -15 40 0 56c16 16 42 16 57 0c16 -16 16 -40 0 -56zM235 560h160c111 0 160 -51 160 -160v-240c0 -109 -49 -160 -160 -160h-160
c-111 0 -160 51 -160 160v240c0 109 49 160 160 160zM495 160v240c0 76 -25 104 -100 104h-160c-75 0 -100 -28 -100 -104v-240c0 -76 25 -104 100 -104h160c75 0 100 28 100 104z" />
    <glyph glyph-name="oslash.sc" unicode="&#xf7f8;" 
d="M235 560h160c111 0 160 -51 160 -160v-240c0 -109 -49 -160 -160 -160h-160c-111 0 -160 51 -160 160v240c0 109 49 160 160 160zM395 504h-160c-75 0 -100 -28 -100 -104v-190l360 180v10c0 76 -25 104 -100 104zM235 56h160c75 0 100 28 100 104v190l-360 -180v-10
c0 -76 25 -104 100 -104z" />
    <glyph glyph-name="ugrave.sc" unicode="&#xf7f9;" horiz-adv-x="640" 
d="M500 160v400h60v-400c0 -109 -51 -160 -160 -160h-160c-109 0 -160 51 -160 160v400h60v-400c0 -76 25 -104 100 -104h160c75 0 100 28 100 104zM267 780l93 -140h-43l-117 140h67z" />
    <glyph glyph-name="uacute.sc" unicode="&#xf7fa;" horiz-adv-x="640" 
d="M80 560h60v-400c0 -76 25 -104 100 -104h160c75 0 100 28 100 104v400h60v-400c0 -109 -51 -160 -160 -160h-160c-109 0 -160 51 -160 160v400zM323 640h-43l93 140h67z" />
    <glyph glyph-name="ucircumflex.sc" unicode="&#xf7fb;" horiz-adv-x="640" 
d="M500 160v400h60v-400c0 -109 -51 -160 -160 -160h-160c-109 0 -160 51 -160 160v400h60v-400c0 -76 25 -104 100 -104h160c75 0 100 28 100 104zM325 744h-10l-83 -104h-51l111 140h55l112 -140h-52z" />
    <glyph glyph-name="udieresis.sc" unicode="&#xf7fc;" horiz-adv-x="640" 
d="M500 160v400h60v-400c0 -109 -51 -160 -160 -160h-160c-109 0 -160 51 -160 160v400h60v-400c0 -76 25 -104 100 -104h160c75 0 100 28 100 104zM278 642c-34 -39 -95 22 -56 56c34 39 95 -22 56 -56zM418 642c-34 -39 -95 22 -56 56c34 39 95 -22 56 -56z" />
    <glyph glyph-name="yacute.sc" unicode="&#xf7fd;" horiz-adv-x="585" 
d="M346 780h66l-116 -140h-44zM297 246l188 314h70l-233 -389v-171h-60v171l-232 389h70l187 -314h10z" />
    <glyph glyph-name="thorn.sc" unicode="&#xf7fe;" horiz-adv-x="620" 
d="M140 460h260c109 0 160 -51 160 -160v-40c0 -109 -51 -160 -160 -160h-260v-100h-60v560h60v-100zM500 260v40c0 76 -25 104 -100 104h-260v-248h260c75 0 100 28 100 104z" />
    <glyph glyph-name="ydieresis.sc" unicode="&#xf7ff;" horiz-adv-x="585" 
d="M297 246l188 314h70l-233 -389v-171h-60v171l-232 389h70l187 -314h10zM250 642c-34 -39 -95 22 -56 56c34 39 95 -22 56 -56zM390 642c-34 -39 -95 22 -56 56c34 39 95 -22 56 -56z" />
    <glyph glyph-name="Lslash.salt" unicode="&#xf800;" horiz-adv-x="700" 
d="M310 56h360v-56h-360c-109 0 -160 51 -160 160v125l-120 -60v40l120 60v395h60v-365l240 120v-40l-240 -120v-155c0 -76 25 -104 100 -104z" />
    <glyph glyph-name="four.salt" unicode="&#xf801;" horiz-adv-x="665" 
d="M525 296v424h60v-720h-60v240h-300c-111 0 -160 51 -160 160v320h60v-320c0 -76 25 -104 100 -104h300z" />
    <glyph glyph-name="seven.salt" unicode="&#xf802;" horiz-adv-x="590" 
d="M350 664h-320v56h320c109 0 160 -51 160 -160v-560h-60v560c0 76 -25 104 -100 104z" />
    <glyph glyph-name="A.salt" unicode="&#xf803;" horiz-adv-x="720" 
d="M240 720h240c109 0 160 -51 160 -160v-560h-60v272h-440v-272h-60v560c0 109 51 160 160 160zM140 560v-232h440v232c0 76 -25 104 -100 104h-240c-75 0 -100 -28 -100 -104z" />
    <glyph glyph-name="E.salt" unicode="&#xf804;" horiz-adv-x="660" 
d="M595 664h-360c-75 0 -100 -28 -100 -104v-172h450v-56h-450v-172c0 -76 25 -104 100 -104h360v-56h-360c-111 0 -160 51 -160 160v400c0 109 49 160 160 160h360v-56z" />
    <glyph glyph-name="F.salt" unicode="&#xf805;" horiz-adv-x="655" 
d="M140 332v-332h-60v560c0 109 51 160 160 160h360v-56h-360c-75 0 -100 -28 -100 -104v-172h450v-56h-450z" />
    <glyph glyph-name="J.salt" unicode="&#xf806;" 
d="M30 56h360c75 0 100 28 100 104v560h60v-560c0 -109 -51 -160 -160 -160h-360v56z" />
    <glyph glyph-name="K.salt" unicode="&#xf807;" horiz-adv-x="720" 
d="M640 720v-230c0 -90 -51 -119 -72 -124l-8 -1v-10s80 -10 80 -125v-230h-60v230c0 76 -25 102 -100 102h-340v-332h-60v720h60v-332h340c75 0 100 26 100 102v230h60z" />
    <glyph glyph-name="L.salt" unicode="&#xf808;" 
d="M240 56h360v-56h-360c-109 0 -160 51 -160 160v560h60v-560c0 -76 25 -104 100 -104z" />
    <glyph glyph-name="M.salt" unicode="&#xf809;" horiz-adv-x="1060" 
d="M660 720h160c109 0 160 -51 160 -160v-560h-60v560c0 76 -25 104 -100 104h-160c-75 0 -100 -28 -100 -104v-560h-60v560c0 76 -25 104 -100 104h-160c-75 0 -100 -28 -100 -104v-560h-60v560c0 109 51 160 160 160h160c90 0 119 -51 124 -72l1 -8h10s10 80 125 80z" />
    <glyph glyph-name="N.salt" unicode="&#xf810;" horiz-adv-x="720" 
d="M640 0h-60v560c0 76 -25 104 -100 104h-240c-75 0 -100 -28 -100 -104v-560h-60v560c0 109 51 160 160 160h240c109 0 160 -51 160 -160v-560z" />
    <glyph glyph-name="R.salt" unicode="&#xf811;" horiz-adv-x="720" 
d="M80 720h400c109 0 160 -51 160 -160v-122c0 -90 -51 -119 -72 -124l-8 -1v-10s80 -10 80 -125v-178h-60v178c0 76 -25 102 -100 102h-340v-280h-60v720zM580 438v122c0 76 -25 104 -100 104h-340v-328h340c75 0 100 26 100 102z" />
    <glyph glyph-name="W.salt" unicode="&#xf812;" horiz-adv-x="1060" 
d="M820 0h-160c-90 0 -119 51 -124 72l-1 8h-10s-10 -80 -125 -80h-160c-109 0 -160 51 -160 160v560h60v-560c0 -76 25 -104 100 -104h160c75 0 100 28 100 104v560h60v-560c0 -76 25 -104 100 -104h160c75 0 100 28 100 104v560h60v-560c0 -109 -51 -160 -160 -160z" />
    <glyph glyph-name="X.salt" unicode="&#xf813;" horiz-adv-x="720" 
d="M640 720v-230c0 -90 -51 -119 -72 -124l-8 -1v-10s80 -10 80 -125v-230h-60v230c0 76 -25 102 -100 102h-240c-75 0 -100 -26 -100 -102v-230h-60v230c0 90 51 119 72 124l8 1v10s-80 10 -80 125v230h60v-230c0 -76 25 -102 100 -102h240c75 0 100 26 100 102v230h60z
" />
    <glyph glyph-name="Y.salt" unicode="&#xf814;" horiz-adv-x="690" 
d="M565 440v280h60v-280c0 -109 -49 -160 -160 -160h-90v-280h-60v280h-90c-111 0 -160 51 -160 160v280h60v-280c0 -76 25 -104 100 -104h240c75 0 100 28 100 104z" />
    <glyph glyph-name="g.salt" unicode="&#xf815;" horiz-adv-x="635" 
d="M235 560h160c111 0 160 -51 160 -160v-460c0 -100 -40 -140 -140 -140h-180v56h180c64 0 80 19 80 84v60h-260c-111 0 -160 51 -160 160v240c0 109 49 160 160 160zM235 56h260v344c0 76 -25 104 -100 104h-160c-75 0 -100 -28 -100 -104v-240c0 -76 25 -104 100 -104z
" />
    <glyph glyph-name="k.salt" unicode="&#xf816;" horiz-adv-x="640" 
d="M560 560v-150c0 -90 -51 -119 -72 -124l-8 -1v-10s80 -10 80 -125v-150h-60v150c0 76 -25 102 -100 102h-260v-252h-60v760h60v-452h260c75 0 100 26 100 102v150h60z" />
    <glyph glyph-name="w.salt" unicode="&#xf817;" horiz-adv-x="940" 
d="M700 0h-100c-90 0 -119 51 -124 72l-1 8h-10s-10 -80 -125 -80h-100c-109 0 -160 51 -160 160v400h60v-400c0 -76 25 -104 100 -104h100c75 0 100 28 100 104v400h60v-400c0 -76 25 -104 100 -104h100c75 0 100 28 100 104v400h60v-400c0 -109 -51 -160 -160 -160z" />
    <glyph glyph-name="x.salt" unicode="&#xf818;" horiz-adv-x="640" 
d="M560 560v-150c0 -90 -51 -119 -72 -124l-8 -1v-10s80 -10 80 -125v-150h-60v150c0 76 -25 102 -100 102h-160c-75 0 -100 -26 -100 -102v-150h-60v150c0 90 51 119 72 124l8 1v10s-80 10 -80 125v150h60v-150c0 -76 25 -102 100 -102h160c75 0 100 26 100 102v150h60z
" />
    <glyph glyph-name="y.salt" unicode="&#xf819;" horiz-adv-x="640" 
d="M500 56v504h60v-620c0 -100 -40 -140 -140 -140h-180v56h180c64 0 80 19 80 84v60h-260c-109 0 -160 51 -160 160v400h60v-400c0 -76 25 -104 100 -104h260z" />
    <glyph glyph-name="OE.salt" unicode="&#xf820;" horiz-adv-x="1160" 
d="M1095 664h-360c-75 0 -100 -28 -100 -104v-172h450v-56h-450v-172c0 -76 25 -104 100 -104h360v-56h-360c-89 0 -120 51 -123 72l-2 8h-10s-10 -80 -125 -80h-240c-111 0 -160 51 -160 160v400c0 109 49 160 160 160h240c89 0 120 -51 123 -72l2 -8h10s10 80 125 80h360
v-56zM575 160v400c0 76 -25 104 -100 104h-240c-75 0 -100 -28 -100 -104v-400c0 -76 25 -104 100 -104h240c75 0 100 28 100 104z" />
    <glyph glyph-name="trademark.salt" unicode="&#xf821;" horiz-adv-x="1010" 
d="M770 720h40c91 0 120 -29 120 -120v-240h-40v240c0 65 -16 84 -80 84h-40c-64 0 -80 -19 -80 -84v-240h-40v240c0 65 -16 84 -80 84h-40c-64 0 -80 -19 -80 -84v-240h-40v240c0 91 29 120 120 120h40c75 0 94 -38 94 -54l1 -6h10s-1 60 95 60zM165 684h-135v36h310v-36
h-135v-324h-40v324z" />
    <glyph glyph-name="Ydieresis.salt" unicode="&#xf822;" horiz-adv-x="690" 
d="M565 440v280h60v-280c0 -109 -49 -160 -160 -160h-90v-280h-60v280h-90c-111 0 -160 51 -160 160v280h60v-280c0 -76 25 -104 100 -104h240c75 0 100 28 100 104zM303 802c-15 -16 -41 -16 -57 0c-15 16 -15 40 0 56c16 16 42 16 57 0c16 -16 16 -40 0 -56zM443 802
c-15 -16 -41 -16 -57 0c-15 16 -15 40 0 56c16 16 42 16 57 0c16 -16 16 -40 0 -56z" />
    <glyph glyph-name="yen.salt" unicode="&#xf823;" horiz-adv-x="690" 
d="M565 440v280h60v-280c0 -109 -49 -160 -160 -160h-90v-104h130v-36h-130v-140h-60v140h-130v36h130v104h-90c-111 0 -160 51 -160 160v280h60v-280c0 -76 25 -104 100 -104h240c75 0 100 28 100 104z" />
    <glyph glyph-name="registered.salt" unicode="&#xf824;" horiz-adv-x="800" 
d="M167 593c65 65 142 97 233 97s168 -32 233 -97s97 -142 97 -233s-32 -168 -97 -233s-142 -97 -233 -97s-168 32 -233 97s-97 142 -97 233s32 168 97 233zM195 155c57 -57 125 -85 205 -85s148 28 205 85s85 125 85 205s-28 148 -85 205s-125 85 -205 85
s-148 -28 -205 -85s-85 -125 -85 -205s28 -148 85 -205zM255 540h180c88 0 120 -28 120 -100v-32c0 -44 -25 -70 -45 -73l-15 -2v-10s60 0 60 -75v-68h-40v68c0 47 -17 62 -80 62h-140v-130h-40v360zM515 408v32c0 47 -17 64 -80 64h-140v-158h140c63 0 80 15 80 62z" />
    <glyph glyph-name="onequarter.salt" unicode="&#xf825;" horiz-adv-x="740" 
d="M620 156v204h40v-360h-40v120h-140c-91 0 -120 29 -120 120v120h40v-120c0 -65 16 -84 80 -84h140zM160 360h-40v324h-80v36h120v-360zM68 0l360 720h44l-360 -720h-44z" />
    <glyph glyph-name="threequarters.salt" unicode="&#xf826;" horiz-adv-x="910" 
d="M370 460c0 -72 -32 -100 -120 -100h-60c-91 0 -120 29 -120 120h40c0 -65 16 -84 80 -84h60c63 0 80 17 80 64s-17 62 -80 62h-90v36h90c63 0 80 15 80 62s-17 64 -80 64h-60c-64 0 -80 -19 -80 -84h-40c0 91 29 120 120 120h60c88 0 120 -28 120 -100
c0 -44 -25 -70 -45 -73l-15 -2v-10s60 0 60 -75zM790 156v204h40v-360h-40v120h-140c-91 0 -120 29 -120 120v120h40v-120c0 -65 16 -84 80 -84h140zM238 0l360 720h44l-360 -720h-44z" />
    <glyph glyph-name="Agrave.salt" unicode="&#xf827;" horiz-adv-x="720" 
d="M240 720h240c109 0 160 -51 160 -160v-560h-60v272h-440v-272h-60v560c0 109 51 160 160 160zM140 328h440v232c0 76 -25 104 -100 104h-240c-75 0 -100 -28 -100 -104v-232zM307 940l93 -140h-43l-117 140h67z" />
    <glyph glyph-name="Aacute.salt" unicode="&#xf828;" horiz-adv-x="720" 
d="M240 720h240c109 0 160 -51 160 -160v-560h-60v272h-440v-272h-60v560c0 109 51 160 160 160zM140 560v-232h440v232c0 76 -25 104 -100 104h-240c-75 0 -100 -28 -100 -104zM363 800h-43l93 140h67z" />
    <glyph glyph-name="Acircumflex.salt" unicode="&#xf829;" horiz-adv-x="720" 
d="M240 720h240c109 0 160 -51 160 -160v-560h-60v272h-440v-272h-60v560c0 109 51 160 160 160zM140 328h440v232c0 76 -25 104 -100 104h-240c-75 0 -100 -28 -100 -104v-232zM365 904h-10l-83 -104h-51l111 140h55l112 -140h-52z" />
    <glyph glyph-name="Atilde.salt" unicode="&#xf830;" horiz-adv-x="720" 
d="M240 720h240c109 0 160 -51 160 -160v-560h-60v272h-440v-272h-60v560c0 109 51 160 160 160zM140 328h440v232c0 76 -25 104 -100 104h-240c-75 0 -100 -28 -100 -104v-232zM280 818v-18h-40v18c0 60 20 80 80 80h80c35 0 40 8 40 44v18h40v-18c0 -60 -20 -80 -80 -80
h-80c-35 0 -40 -8 -40 -44z" />
    <glyph glyph-name="Adieresis.salt" unicode="&#xf831;" horiz-adv-x="720" 
d="M240 720h240c109 0 160 -51 160 -160v-560h-60v272h-440v-272h-60v560c0 109 51 160 160 160zM140 328h440v232c0 76 -25 104 -100 104h-240c-75 0 -100 -28 -100 -104v-232zM318 802c-34 -39 -95 22 -56 56c34 39 95 -22 56 -56zM458 802c-34 -39 -95 22 -56 56
c34 39 95 -22 56 -56z" />
    <glyph glyph-name="Aring.salt" unicode="&#xf832;" horiz-adv-x="720" 
d="M240 720h240c109 0 160 -51 160 -160v-560h-60v272h-440v-272h-60v560c0 109 51 160 160 160zM140 328h440v232c0 76 -25 104 -100 104h-240c-75 0 -100 -28 -100 -104v-232zM420 815c-33 -33 -87 -33 -120 0s-33 87 0 120s87 33 120 0s33 -87 0 -120zM392 907
c-17 17 -47 17 -64 0s-17 -47 0 -64s47 -17 64 0s17 47 0 64z" />
    <glyph glyph-name="AE.salt" unicode="&#xf833;" horiz-adv-x="1165" 
d="M1100 664h-360c-75 0 -100 -28 -100 -104v-172h450v-56h-450v-172c0 -76 25 -104 100 -104h360v-56h-360c-109 0 -160 51 -160 160v112h-440v-272h-60v560c0 109 51 160 160 160h240c90 0 119 -51 124 -72l1 -8h10s10 80 125 80h360v-56zM140 560v-232h440v232
c0 76 -25 104 -100 104h-240c-75 0 -100 -28 -100 -104z" />
    <glyph glyph-name="Egrave.salt" unicode="&#xf834;" horiz-adv-x="660" 
d="M595 664h-360c-75 0 -100 -28 -100 -104v-172h450v-56h-450v-172c0 -76 25 -104 100 -104h360v-56h-360c-111 0 -160 51 -160 160v400c0 109 49 160 160 160h360v-56zM282 940l93 -140h-43l-117 140h67z" />
    <glyph glyph-name="Eacute.salt" unicode="&#xf835;" horiz-adv-x="660" 
d="M595 664h-360c-75 0 -100 -28 -100 -104v-172h450v-56h-450v-172c0 -76 25 -104 100 -104h360v-56h-360c-111 0 -160 51 -160 160v400c0 109 49 160 160 160h360v-56zM388 940h67l-117 -140h-43z" />
    <glyph glyph-name="Ecircumflex.salt" unicode="&#xf836;" horiz-adv-x="660" 
d="M595 664h-360c-75 0 -100 -28 -100 -104v-172h450v-56h-450v-172c0 -76 25 -104 100 -104h360v-56h-360c-111 0 -160 51 -160 160v400c0 109 49 160 160 160h360v-56zM340 904h-10l-83 -104h-51l111 140h55l112 -140h-52z" />
    <glyph glyph-name="Edieresis.salt" unicode="&#xf837;" horiz-adv-x="660" 
d="M595 664h-360c-75 0 -100 -28 -100 -104v-172h450v-56h-450v-172c0 -76 25 -104 100 -104h360v-56h-360c-111 0 -160 51 -160 160v400c0 109 49 160 160 160h360v-56zM293 802c-15 -16 -41 -16 -57 0c-15 16 -15 40 0 56c16 16 42 16 57 0c16 -16 16 -40 0 -56zM433 802
c-15 -16 -41 -16 -57 0c-15 16 -15 40 0 56c16 16 42 16 57 0c16 -16 16 -40 0 -56z" />
    <glyph glyph-name="Ntilde.salt" unicode="&#xf838;" horiz-adv-x="720" 
d="M240 720h240c109 0 160 -51 160 -160v-560h-60v560c0 76 -25 104 -100 104h-240c-75 0 -100 -28 -100 -104v-560h-60v560c0 109 51 160 160 160zM280 818v-18h-40v18c0 60 20 80 80 80h80c35 0 40 8 40 44v18h40v-18c0 -60 -20 -80 -80 -80h-80c-35 0 -40 -8 -40 -44z
" />
    <glyph glyph-name="Yacute.salt" unicode="&#xf839;" horiz-adv-x="690" 
d="M398 940h67l-117 -140h-43zM565 440v280h60v-280c0 -109 -49 -160 -160 -160h-90v-280h-60v280h-90c-111 0 -160 51 -160 160v280h60v-280c0 -76 25 -104 100 -104h240c75 0 100 28 100 104z" />
    <glyph glyph-name="yacute.salt" unicode="&#xf840;" horiz-adv-x="640" 
d="M500 56v504h60v-620c0 -100 -40 -140 -140 -140h-180v56h180c64 0 80 19 80 84v60h-260c-109 0 -160 51 -160 160v400h60v-400c0 -76 25 -104 100 -104h260zM373 780h67l-117 -140h-43z" />
    <glyph glyph-name="ydieresis.salt" unicode="&#xf841;" horiz-adv-x="640" 
d="M500 56v504h60v-620c0 -100 -40 -140 -140 -140h-180v56h180c64 0 80 19 80 84v60h-260c-109 0 -160 51 -160 160v400h60v-400c0 -76 25 -104 100 -104h260zM278 642c-34 -39 -95 22 -56 56c34 39 95 -22 56 -56zM418 642c-34 -39 -95 22 -56 56c34 39 95 -22 56 -56z
" />
    <glyph glyph-name="lslashsc.salt" unicode="&#xf842;" horiz-adv-x="620" 
d="M210 235v-75c0 -76 25 -104 100 -104h280v-56h-280c-109 0 -160 51 -160 160v45l-120 -60v40l120 60v315h60v-285l180 90v-40z" />
    <glyph glyph-name="oesc.salt" unicode="&#xf843;" horiz-adv-x="1000" 
d="M935 504h-280c-75 0 -100 -28 -100 -104v-92h370v-56h-370v-92c0 -76 25 -104 100 -104h280v-56h-280c-89 0 -120 51 -123 72l-2 8h-10s-10 -80 -125 -80h-160c-111 0 -160 51 -160 160v240c0 109 49 160 160 160h160c89 0 120 -51 123 -72l2 -8h10s10 80 125 80h280v-56
zM495 160v240c0 76 -25 104 -100 104h-160c-75 0 -100 -28 -100 -104v-240c0 -76 25 -104 100 -104h160c75 0 100 28 100 104z" />
    <glyph glyph-name="asc.salt" unicode="&#xf844;" horiz-adv-x="640" 
d="M240 560h160c109 0 160 -51 160 -160v-400h-60v192h-360v-192h-60v400c0 109 51 160 160 160zM140 400v-152h360v152c0 76 -25 104 -100 104h-160c-75 0 -100 -28 -100 -104z" />
    <glyph glyph-name="esc.salt" unicode="&#xf845;" horiz-adv-x="580" 
d="M515 504h-280c-75 0 -100 -28 -100 -104v-92h370v-56h-370v-92c0 -76 25 -104 100 -104h280v-56h-280c-111 0 -160 51 -160 160v240c0 109 49 160 160 160h280v-56z" />
    <glyph glyph-name="fsc.salt" unicode="&#xf846;" horiz-adv-x="575" 
d="M140 252v-252h-60v400c0 109 51 160 160 160h280v-56h-280c-75 0 -100 -28 -100 -104v-92h370v-56h-370z" />
    <glyph glyph-name="jsc.salt" unicode="&#xf847;" horiz-adv-x="550" 
d="M410 160v400h60v-400c0 -109 -51 -160 -160 -160h-280v56h280c75 0 100 28 100 104z" />
    <glyph glyph-name="ksc.salt" unicode="&#xf848;" horiz-adv-x="640" 
d="M560 560v-150c0 -90 -51 -119 -72 -124l-8 -1v-10s80 -10 80 -125v-150h-60v150c0 76 -25 102 -100 102h-260v-252h-60v560h60v-252h260c75 0 100 26 100 102v150h60z" />
    <glyph glyph-name="lsc.salt" unicode="&#xf849;" horiz-adv-x="550" 
d="M140 560v-400c0 -76 25 -104 100 -104h280v-56h-280c-109 0 -160 51 -160 160v400h60z" />
    <glyph glyph-name="msc.salt" unicode="&#xf850;" horiz-adv-x="940" 
d="M600 560h100c109 0 160 -51 160 -160v-400h-60v400c0 76 -25 104 -100 104h-100c-75 0 -100 -28 -100 -104v-400h-60v400c0 76 -25 104 -100 104h-100c-75 0 -100 -28 -100 -104v-400h-60v400c0 109 51 160 160 160h100c90 0 119 -51 124 -72l1 -8h10s10 80 125 80z" />
    <glyph glyph-name="nsc.salt" unicode="&#xf851;" horiz-adv-x="640" 
d="M560 0h-60v400c0 76 -25 104 -100 104h-160c-75 0 -100 -28 -100 -104v-400h-60v400c0 109 51 160 160 160h160c109 0 160 -51 160 -160v-400z" />
    <glyph glyph-name="rsc.salt" unicode="&#xf852;" horiz-adv-x="640" 
d="M560 400v-42c0 -90 -51 -119 -72 -124l-8 -1v-10s80 -10 80 -125v-98h-60v98c0 76 -25 102 -100 102h-260v-200h-60v560h320c109 0 160 -51 160 -160zM140 256h260c75 0 100 26 100 102v42c0 76 -25 104 -100 104h-260v-248z" />
    <glyph glyph-name="wsc.salt" unicode="&#xf853;" horiz-adv-x="940" 
d="M700 0h-100c-90 0 -119 51 -124 72l-1 8h-10s-10 -80 -125 -80h-100c-109 0 -160 51 -160 160v400h60v-400c0 -76 25 -104 100 -104h100c75 0 100 28 100 104v400h60v-400c0 -76 25 -104 100 -104h100c75 0 100 28 100 104v400h60v-400c0 -109 -51 -160 -160 -160z" />
    <glyph glyph-name="xsc.salt" unicode="&#xf854;" horiz-adv-x="640" 
d="M560 560v-150c0 -90 -51 -119 -72 -124l-8 -1v-10s80 -10 80 -125v-150h-60v150c0 76 -25 102 -100 102h-160c-75 0 -100 -26 -100 -102v-150h-60v150c0 90 51 119 72 124l8 1v10s-80 10 -80 125v150h60v-150c0 -76 25 -102 100 -102h160c75 0 100 26 100 102v150h60z
" />
    <glyph glyph-name="ysc.salt" unicode="&#xf855;" horiz-adv-x="610" 
d="M485 360v200h60v-200c0 -109 -49 -160 -160 -160h-50v-200h-60v200h-50c-111 0 -160 51 -160 160v200h60v-200c0 -76 25 -104 100 -104h160c75 0 100 28 100 104z" />
    <glyph glyph-name="agravesc.salt" unicode="&#xf856;" horiz-adv-x="640" 
d="M240 560h160c109 0 160 -51 160 -160v-400h-60v192h-360v-192h-60v400c0 109 51 160 160 160zM140 248h360v152c0 76 -25 104 -100 104h-160c-75 0 -100 -28 -100 -104v-152zM267 780l93 -140h-43l-117 140h67z" />
    <glyph glyph-name="aacutesc.salt" unicode="&#xf857;" horiz-adv-x="640" 
d="M240 560h160c109 0 160 -51 160 -160v-400h-60v192h-360v-192h-60v400c0 109 51 160 160 160zM140 248h360v152c0 76 -25 104 -100 104h-160c-75 0 -100 -28 -100 -104v-152zM373 780h67l-117 -140h-43z" />
    <glyph glyph-name="acircumflexsc.salt" unicode="&#xf858;" horiz-adv-x="640" 
d="M240 560h160c109 0 160 -51 160 -160v-400h-60v192h-360v-192h-60v400c0 109 51 160 160 160zM140 248h360v152c0 76 -25 104 -100 104h-160c-75 0 -100 -28 -100 -104v-152zM325 744h-10l-83 -104h-51l111 140h55l112 -140h-52z" />
    <glyph glyph-name="atildesc.salt" unicode="&#xf859;" horiz-adv-x="640" 
d="M240 560h160c109 0 160 -51 160 -160v-400h-60v192h-360v-192h-60v400c0 109 51 160 160 160zM140 248h360v152c0 76 -25 104 -100 104h-160c-75 0 -100 -28 -100 -104v-152zM240 658v-18h-40v18c0 60 20 80 80 80h80c35 0 40 8 40 44v18h40v-18c0 -60 -20 -80 -80 -80
h-80c-35 0 -40 -8 -40 -44z" />
    <glyph glyph-name="adieresissc.salt" unicode="&#xf860;" horiz-adv-x="640" 
d="M240 560h160c109 0 160 -51 160 -160v-400h-60v192h-360v-192h-60v400c0 109 51 160 160 160zM140 248h360v152c0 76 -25 104 -100 104h-160c-75 0 -100 -28 -100 -104v-152zM278 642c-34 -39 -95 22 -56 56c34 39 95 -22 56 -56zM418 642c-34 -39 -95 22 -56 56
c34 39 95 -22 56 -56z" />
    <glyph glyph-name="aringsc.salt" unicode="&#xf861;" horiz-adv-x="640" 
d="M240 560h160c109 0 160 -51 160 -160v-400h-60v192h-360v-192h-60v400c0 109 51 160 160 160zM140 248h360v152c0 76 -25 104 -100 104h-160c-75 0 -100 -28 -100 -104v-152zM380 655c-33 -33 -87 -33 -120 0s-33 87 0 120s87 33 120 0s33 -87 0 -120zM352 747
c-17 17 -47 17 -64 0s-17 -47 0 -64s47 -17 64 0s17 47 0 64z" />
    <glyph glyph-name="aesc.salt" unicode="&#xf862;" horiz-adv-x="1005" 
d="M940 504h-280c-75 0 -100 -28 -100 -104v-92h370v-56h-370v-92c0 -76 25 -104 100 -104h280v-56h-280c-109 0 -160 51 -160 160v32h-360v-192h-60v400c0 109 51 160 160 160h160c90 0 119 -51 124 -72l1 -8h10s10 80 125 80h280v-56zM140 248h360v152
c0 76 -25 104 -100 104h-160c-75 0 -100 -28 -100 -104v-152z" />
    <glyph glyph-name="egravesc.salt" unicode="&#xf863;" horiz-adv-x="580" 
d="M515 504h-280c-75 0 -100 -28 -100 -104v-92h370v-56h-370v-92c0 -76 25 -104 100 -104h280v-56h-280c-111 0 -160 51 -160 160v240c0 109 49 160 160 160h280v-56zM242 780l93 -140h-43l-117 140h67z" />
    <glyph glyph-name="eacutesc.salt" unicode="&#xf864;" horiz-adv-x="580" 
d="M348 780h67l-117 -140h-43zM515 504h-280c-75 0 -100 -28 -100 -104v-92h370v-56h-370v-92c0 -76 25 -104 100 -104h280v-56h-280c-111 0 -160 51 -160 160v240c0 109 49 160 160 160h280v-56z" />
    <glyph glyph-name="ecircumflexsc.salt" unicode="&#xf865;" horiz-adv-x="580" 
d="M515 504h-280c-75 0 -100 -28 -100 -104v-92h370v-56h-370v-92c0 -76 25 -104 100 -104h280v-56h-280c-111 0 -160 51 -160 160v240c0 109 49 160 160 160h280v-56zM300 744h-10l-83 -104h-51l111 140h55l112 -140h-52z" />
    <glyph glyph-name="edieresissc.salt" unicode="&#xf866;" horiz-adv-x="580" 
d="M515 504h-280c-75 0 -100 -28 -100 -104v-92h370v-56h-370v-92c0 -76 25 -104 100 -104h280v-56h-280c-111 0 -160 51 -160 160v240c0 109 49 160 160 160h280v-56zM253 642c-15 -16 -41 -16 -57 0c-15 16 -15 40 0 56c16 16 42 16 57 0c16 -16 16 -40 0 -56zM393 642
c-15 -16 -41 -16 -57 0c-15 16 -15 40 0 56c16 16 42 16 57 0c16 -16 16 -40 0 -56z" />
    <glyph glyph-name="ntildesc.salt" unicode="&#xf867;" horiz-adv-x="640" 
d="M240 560h160c109 0 160 -51 160 -160v-400h-60v400c0 76 -25 104 -100 104h-160c-75 0 -100 -28 -100 -104v-400h-60v400c0 109 51 160 160 160zM240 658v-18h-40v18c0 60 20 80 80 80h80c35 0 40 8 40 44v18h40v-18c0 -60 -20 -80 -80 -80h-80c-35 0 -40 -8 -40 -44z
" />
    <glyph glyph-name="yacutesc.salt" unicode="&#xf868;" horiz-adv-x="610" 
d="M485 360v200h60v-200c0 -109 -49 -160 -160 -160h-50v-200h-60v200h-50c-111 0 -160 51 -160 160v200h60v-200c0 -76 25 -104 100 -104h160c75 0 100 28 100 104zM358 780h67l-117 -140h-43z" />
    <glyph glyph-name="ydieresissc.salt" unicode="&#xf869;" horiz-adv-x="610" 
d="M485 360v200h60v-200c0 -109 -49 -160 -160 -160h-50v-200h-60v200h-50c-111 0 -160 51 -160 160v200h60v-200c0 -76 25 -104 100 -104h160c75 0 100 28 100 104zM263 642c-15 -16 -41 -16 -57 0c-15 16 -15 40 0 56c16 16 42 16 57 0c16 -16 16 -40 0 -56zM403 642
c-15 -16 -41 -16 -57 0c-15 16 -15 40 0 56c16 16 42 16 57 0c16 -16 16 -40 0 -56z" />
    <glyph glyph-name="f_f" unicode="&#xfb00;" horiz-adv-x="755" 
d="M700 704h-140c-64 0 -80 -19 -80 -84v-60h200v-56h-200v-504h-60v504h-280v-504h-60v620c0 100 40 140 140 140h140v-56h-140c-64 0 -80 -19 -80 -84v-60h280v60c0 100 40 140 140 140h140v-56z" />
    <glyph glyph-name="fi" unicode="&#xfb01;" horiz-adv-x="560" 
d="M140 620v-60h340v-560h-60v504h-280v-504h-60v620c0 100 40 140 140 140h140v-56h-140c-64 0 -80 -19 -80 -84z" />
    <glyph glyph-name="fl" unicode="&#xfb02;" horiz-adv-x="660" 
d="M560 56h60v-56h-60c-100 0 -140 40 -140 140v564h-200c-64 0 -80 -19 -80 -84v-60h200v-56h-200v-504h-60v620c0 100 40 140 140 140h260v-620c0 -65 16 -84 80 -84z" />
    <glyph glyph-name="f_f_i" unicode="&#xfb03;" horiz-adv-x="900" 
d="M480 620v-60h340v-560h-60v504h-280v-504h-60v504h-280v-504h-60v620c0 100 40 140 140 140h140v-56h-140c-64 0 -80 -19 -80 -84v-60h280v60c0 100 40 140 140 140h140v-56h-140c-64 0 -80 -19 -80 -84z" />
    <glyph glyph-name="f_f_l" unicode="&#xfb04;" horiz-adv-x="1000" 
d="M900 56h60v-56h-60c-100 0 -140 40 -140 140v564h-200c-64 0 -80 -19 -80 -84v-60h200v-56h-200v-504h-60v504h-280v-504h-60v620c0 100 40 140 140 140h140v-56h-140c-64 0 -80 -19 -80 -84v-60h280v60c0 100 40 140 140 140h260v-620c0 -65 16 -84 80 -84z" />
    <glyph glyph-name="arrow1" unicode="&#xfb05;" horiz-adv-x="400" 
d="M330 510v-300l-260 150z" />
    <glyph glyph-name="arrow2" unicode="&#xfb06;" horiz-adv-x="440" 
d="M370 273h-300l150 260z" />
    <glyph glyph-name="arrow3" unicode="&#xfb07;" horiz-adv-x="400" 
d="M330 360l-260 -150v300z" />
    <glyph glyph-name="arrow4" unicode="&#xfb08;" horiz-adv-x="440" 
d="M370 447l-150 -260l-150 260h300z" />
    <glyph glyph-name="arrow5" unicode="&#xfb09;" horiz-adv-x="680" 
d="M149 551c53 53 116 79 191 79s138 -26 191 -79s79 -116 79 -191s-26 -138 -79 -191s-116 -79 -191 -79s-138 26 -191 79s-79 116 -79 191s26 138 79 191zM167 360l260 -150v300z" />
    <glyph glyph-name="arrow6" unicode="&#xfb10;" horiz-adv-x="680" 
d="M149 551c53 53 116 79 191 79s138 -26 191 -79s79 -116 79 -191s-26 -138 -79 -191s-116 -79 -191 -79s-138 26 -191 79s-79 116 -79 191s26 138 79 191zM340 533l-150 -260h300z" />
    <glyph glyph-name="arrow7" unicode="&#xfb11;" horiz-adv-x="680" 
d="M149 551c53 53 116 79 191 79s138 -26 191 -79s79 -116 79 -191s-26 -138 -79 -191s-116 -79 -191 -79s-138 26 -191 79s-79 116 -79 191s26 138 79 191zM253 510v-300l260 150z" />
    <glyph glyph-name="arrow8" unicode="&#xfb12;" horiz-adv-x="680" 
d="M149 551c53 53 116 79 191 79s138 -26 191 -79s79 -116 79 -191s-26 -138 -79 -191s-116 -79 -191 -79s-138 26 -191 79s-79 116 -79 191s26 138 79 191zM190 447l150 -260l150 260h-300z" />
    <glyph glyph-name="Abreve" unicode="&#x102;" horiz-adv-x="683" 
d="M437 856v27h40v-27c0 -60 -20 -80 -80 -80h-109c-60 0 -80 20 -80 80v27h40v-27c0 -36 5 -44 40 -44h109c35 0 40 8 40 44zM294 720h96l263 -720h-64l-77 212h-341l-77 -212h-64zM337 664l-145 -396h299l-144 396h-10z" />
    <glyph glyph-name="abreve" unicode="&#x103;" horiz-adv-x="625" 
d="M230 560h160c109 0 160 -51 160 -160v-240c0 -109 -51 -160 -160 -160h-160c-109 0 -160 51 -160 160c0 35 13 61 26 76c7 8 18 16 35 23s32 12 43 15s30 8 56 15l260 65v46c0 76 -25 104 -100 104h-160c-75 0 -100 -28 -100 -104v-20h-60v20c0 109 51 160 160 160z
M490 160v136l-260 -65c-3 -1 -7 -2 -12 -3c-35 -8 -44 -11 -63 -22c-19 -9 -25 -23 -25 -46c0 -76 25 -104 100 -104h160c75 0 100 28 100 104zM416 703v27h40v-27c0 -60 -20 -80 -80 -80h-109c-60 0 -80 20 -80 80v27h40v-27c0 -36 5 -44 40 -44h109c35 0 40 8 40 44z" />
    <glyph glyph-name="Dcroat" unicode="&#x110;" horiz-adv-x="715" 
d="M80 720h400c109 0 160 -51 160 -160v-400c0 -109 -51 -160 -160 -160h-400v333h-62v56h62v331zM580 160v400c0 76 -25 104 -100 104h-340v-275h168v-56h-168v-277h340c75 0 100 28 100 104z" />
    <glyph glyph-name="dcroat" unicode="&#x111;" horiz-adv-x="635" 
d="M555 693h51v-56h-51v-477c0 -109 -49 -160 -160 -160h-160c-111 0 -160 51 -160 160v240c0 109 49 160 160 160h260v77h-149v56h149v67h60v-67zM235 56h160c75 0 100 28 100 104v344h-260c-75 0 -100 -28 -100 -104v-240c0 -76 25 -104 100 -104z" />
    <glyph glyph-name="Itilde" unicode="&#x128;" horiz-adv-x="220" 
d="M16 815l-7 -18c-12 4 -28 12 -40 17c2 5 8 19 8 18c15 35 32 55 58 55c14 0 29 -4 46 -11c13 -5 25 -10 38 -15c12 -5 27 -10 38 -14c28 -11 37 -6 50 26c2 5 5 13 7 18c12 -4 28 -12 40 -17c-2 -5 -8 -19 -8 -18c-15 -35 -32 -55 -59 -55c-14 0 -28 4 -45 11
c-12 4 -25 9 -38 14c-14 5 -26 10 -38 15c-31 12 -39 6 -50 -26zM140 0h-60v720h60v-720z" />
    <glyph glyph-name="itilde" unicode="&#x129;" horiz-adv-x="220" 
d="M140 0h-60v560h60v-560zM15 667l-7 -18c-12 4 -28 12 -40 17c2 5 8 19 8 18c15 35 32 55 58 55c14 0 29 -4 46 -11c13 -5 25 -10 38 -15c12 -5 27 -10 38 -14c28 -11 37 -6 50 26c2 5 5 13 7 18c12 -4 28 -12 40 -17c-2 -5 -8 -19 -8 -18c-15 -35 -32 -55 -59 -55
c-14 0 -28 4 -45 11c-12 4 -25 9 -38 14c-14 5 -26 10 -38 15c-31 12 -39 6 -50 -26z" />
    <glyph glyph-name="Utilde" unicode="&#x168;" horiz-adv-x="720" 
d="M265 815l-7 -18c-12 4 -28 12 -40 17c2 5 8 19 8 18c15 35 32 55 58 55c14 0 29 -4 46 -11c13 -5 25 -10 38 -15c12 -5 27 -10 38 -14c28 -11 37 -6 50 26c2 5 5 13 7 18c12 -4 28 -12 40 -17c-2 -5 -8 -19 -8 -18c-15 -35 -32 -55 -59 -55c-14 0 -28 4 -45 11
c-12 4 -25 9 -38 14c-14 5 -26 10 -38 15c-31 12 -39 6 -50 -26zM580 160v560h60v-560c0 -109 -51 -160 -160 -160h-240c-109 0 -160 51 -160 160v560h60v-560c0 -76 25 -104 100 -104h240c75 0 100 28 100 104z" />
    <glyph glyph-name="utilde" unicode="&#x169;" horiz-adv-x="640" 
d="M222 666l-7 -18c-12 4 -28 12 -40 17c2 5 8 19 8 18c15 35 32 55 58 55c14 0 29 -4 46 -11c13 -5 25 -10 38 -15c12 -5 27 -10 38 -14c28 -11 37 -6 50 26c2 5 5 13 7 18c12 -4 28 -12 40 -17c-2 -5 -8 -19 -8 -18c-15 -35 -32 -55 -59 -55c-14 0 -28 4 -45 11
c-12 4 -25 9 -38 14c-14 5 -26 10 -38 15c-31 12 -39 6 -50 -26zM500 160v400h60v-400c0 -109 -51 -160 -160 -160h-160c-109 0 -160 51 -160 160v400h60v-400c0 -76 25 -104 100 -104h160c75 0 100 28 100 104z" />
    <glyph glyph-name="Ohorn" unicode="&#x1a0;" horiz-adv-x="710" 
d="M235 720h240c9 0 18 0 27 -1h77c63 -3 67 24 58 84v5h60v-5c4 -61 -5 -100 -26 -117c-15 -13 -36 -20 -61 -22c17 -26 25 -61 25 -104v-400c0 -109 -49 -160 -160 -160h-240c-111 0 -160 51 -160 160v400c0 109 49 160 160 160zM575 160v400c0 76 -25 104 -100 104h-240
c-75 0 -100 -28 -100 -104v-400c0 -76 25 -104 100 -104h240c75 0 100 28 100 104z" />
    <glyph glyph-name="ohorn" unicode="&#x1a1;" 
d="M235 560h160c9 0 18 0 27 -1h79c63 -3 67 24 58 84v5h60v-5c4 -61 -5 -100 -26 -117c-15 -13 -36 -20 -63 -22c17 -25 25 -60 25 -104v-240c0 -109 -49 -160 -160 -160h-160c-111 0 -160 51 -160 160v240c0 109 49 160 160 160zM495 160v240c0 38 -7 65 -22 80
c-13 14 -36 22 -67 24h-171c-75 0 -100 -28 -100 -104v-240c0 -76 25 -104 100 -104h160c75 0 100 28 100 104z" />
    <glyph glyph-name="Uhorn" unicode="&#x1af;" horiz-adv-x="720" 
d="M580 160v560h40c63 -3 67 24 58 84v5h60v-5c4 -61 -5 -100 -26 -117c-17 -15 -41 -23 -72 -24v-503c0 -109 -51 -160 -160 -160h-240c-109 0 -160 51 -160 160v560h60v-560c0 -76 25 -104 100 -104h240c75 0 100 28 100 104z" />
    <glyph glyph-name="uhorn" unicode="&#x1b0;" horiz-adv-x="640" 
d="M597 643v5h60v-5c4 -61 -5 -100 -26 -117c-17 -15 -41 -23 -71 -24v-342c0 -109 -51 -160 -160 -160h-160c-109 0 -160 51 -160 160v400h60v-400c0 -76 25 -104 100 -104h160c75 0 100 28 100 104v400h60v-1c19 2 30 8 35 18c6 14 7 36 2 66z" />
    <glyph glyph-name="uni1EFA" unicode="&#x1efa;" horiz-adv-x="0" 
 />
    <glyph glyph-name="uni1EFB" unicode="&#x1efb;" horiz-adv-x="0" 
d="M678 804v5h60v-5c4 -61 -5 -100 -26 -117s-51 -25 -92 -23h-10v56h10c63 -3 67 24 58 84z" />
    <glyph glyph-name="uni1EFC" unicode="&#x1efc;" horiz-adv-x="0" 
d="M637 803v5h60v-5c4 -61 -5 -100 -26 -117s-51 -25 -92 -23h-114v56h114c63 -3 67 24 58 84z" />
    <glyph glyph-name="uni1EA0" unicode="&#x1ea0;" horiz-adv-x="683" 
d="M317 -78c15 16 39 16 54 1s15 -39 0 -54s-39 -15 -54 0s-15 40 0 53zM294 720h96l263 -720h-64l-77 212h-341l-77 -212h-64zM337 664l-145 -396h299l-144 396h-10z" />
    <glyph glyph-name="uni1EA1" unicode="&#x1ea1;" horiz-adv-x="625" 
d="M283 -78c15 16 39 16 54 1s15 -39 0 -54s-39 -15 -54 0s-15 40 0 53zM230 560h160c109 0 160 -51 160 -160v-240c0 -109 -51 -160 -160 -160h-160c-109 0 -160 51 -160 160c0 35 13 61 26 76c7 8 18 16 35 23s32 12 43 15s30 8 56 15l260 65v46c0 76 -25 104 -100 104
h-160c-75 0 -100 -28 -100 -104v-20h-60v20c0 109 51 160 160 160zM490 160v136l-260 -65c-3 -1 -7 -2 -12 -3c-35 -8 -44 -11 -63 -22c-19 -9 -25 -23 -25 -46c0 -76 25 -104 100 -104h160c75 0 100 28 100 104z" />
    <glyph glyph-name="uni1EA2" unicode="&#x1ea2;" horiz-adv-x="683" 
d="M295 959h83c38 0 57 -21 57 -59v-35c0 -38 -13 -57 -74 -57v-16c0 -5 -1 -12 -1 -16h-37v68h40c32 0 34 5 34 21v35c0 15 -4 20 -19 20h-83c-17 0 -21 -5 -21 -20v-28h-38v28c0 38 19 59 59 59zM294 720h96l263 -720h-64l-77 212h-341l-77 -212h-64zM337 664l-145 -396
h299l-144 396h-10z" />
    <glyph glyph-name="uni1EA3" unicode="&#x1ea3;" horiz-adv-x="625" 
d="M290 806h83c38 0 57 -21 57 -59v-35c0 -38 -13 -57 -74 -57v-16c0 -5 -1 -12 -1 -16h-37v68h40c32 0 34 5 34 21v35c0 15 -4 20 -19 20h-83c-17 0 -21 -5 -21 -20v-28h-38v28c0 38 19 59 59 59zM230 560h160c109 0 160 -51 160 -160v-240c0 -109 -51 -160 -160 -160h-160
c-109 0 -160 51 -160 160c0 35 13 61 26 76c7 8 18 16 35 23s32 12 43 15s30 8 56 15l260 65v46c0 76 -25 104 -100 104h-160c-75 0 -100 -28 -100 -104v-20h-60v20c0 109 51 160 160 160zM490 160v136l-260 -65c-3 -1 -7 -2 -12 -3c-35 -8 -44 -11 -63 -22
c-19 -9 -25 -23 -25 -46c0 -76 25 -104 100 -104h160c75 0 100 28 100 104z" />
    <glyph glyph-name="uni1EA8" unicode="&#x1ea8;" horiz-adv-x="683" 
d="M294 720h96l263 -720h-64l-77 212h-341l-77 -212h-64zM337 664l-145 -396h299l-144 396h-10zM346 879h-10l-82 -104h-51l111 140h55l111 -140h-51zM420 1067h83c38 0 57 -21 57 -59v-35c0 -38 -13 -57 -74 -57v-16c0 -5 -1 -12 -1 -16h-37v68h40c32 0 34 5 34 21v35
c0 15 -4 20 -19 20h-83c-17 0 -21 -5 -21 -20v-28h-38v28c0 38 19 59 59 59z" />
    <glyph glyph-name="uni1EA9" unicode="&#x1ea9;" horiz-adv-x="625" 
d="M405 915h83c38 0 57 -21 57 -59v-35c0 -38 -13 -57 -74 -57v-16c0 -5 -1 -12 -1 -16h-37v68h40c32 0 34 5 34 21v35c0 15 -4 20 -19 20h-83c-17 0 -21 -5 -21 -20v-28h-38v28c0 38 19 59 59 59zM230 560h160c109 0 160 -51 160 -160v-240c0 -109 -51 -160 -160 -160h-160
c-109 0 -160 51 -160 160c0 35 13 61 26 76c7 8 18 16 35 23s32 12 43 15s30 8 56 15l260 65v46c0 76 -25 104 -100 104h-160c-75 0 -100 -28 -100 -104v-20h-60v20c0 109 51 160 160 160zM490 160v136l-260 -65c-3 -1 -7 -2 -12 -3c-35 -8 -44 -11 -63 -22
c-19 -9 -25 -23 -25 -46c0 -76 25 -104 100 -104h160c75 0 100 28 100 104zM331 727h-10l-83 -104h-51l111 140h55l112 -140h-52z" />
    <glyph glyph-name="uni1EB8" unicode="&#x1eb8;" horiz-adv-x="665" 
d="M317 -78c15 16 39 16 54 1s15 -39 0 -54s-39 -15 -54 0s-15 40 0 53zM600 720v-56h-460v-276h450v-56h-450v-276h460v-56h-520v720h520z" />
    <glyph glyph-name="uni1EB9" unicode="&#x1eb9;" 
d="M283 -78c15 16 39 16 54 1s15 -39 0 -54s-39 -15 -54 0s-15 40 0 53zM235 560h160c111 0 160 -51 160 -160v-148h-420v-92c0 -76 25 -104 100 -104h160c75 0 100 28 100 104v20h60v-20c0 -109 -49 -160 -160 -160h-160c-111 0 -160 51 -160 160v240c0 109 49 160 160 160
zM135 308h360v92c0 76 -25 104 -100 104h-160c-75 0 -100 -28 -100 -104v-92z" />
    <glyph glyph-name="uni1EBA" unicode="&#x1eba;" horiz-adv-x="665" 
d="M298 959h83c38 0 57 -21 57 -59v-35c0 -38 -13 -57 -74 -57v-16c0 -5 -1 -12 -1 -16h-37v68h40c32 0 34 5 34 21v35c0 15 -4 20 -19 20h-83c-17 0 -21 -5 -21 -20v-28h-38v28c0 38 19 59 59 59zM600 720v-56h-460v-276h450v-56h-450v-276h460v-56h-520v720h520z" />
    <glyph glyph-name="uni1EBB" unicode="&#x1ebb;" 
d="M284 806h83c38 0 57 -21 57 -59v-35c0 -38 -13 -57 -74 -57v-16c0 -5 -1 -12 -1 -16h-37v68h40c32 0 34 5 34 21v35c0 15 -4 20 -19 20h-83c-17 0 -21 -5 -21 -20v-28h-38v28c0 38 19 59 59 59zM235 560h160c111 0 160 -51 160 -160v-148h-420v-92
c0 -76 25 -104 100 -104h160c75 0 100 28 100 104v20h60v-20c0 -109 -49 -160 -160 -160h-160c-111 0 -160 51 -160 160v240c0 109 49 160 160 160zM135 308h360v92c0 76 -25 104 -100 104h-160c-75 0 -100 -28 -100 -104v-92z" />
    <glyph glyph-name="uni1EBC" unicode="&#x1ebc;" horiz-adv-x="665" 
d="M251 815l-7 -18c-12 4 -28 12 -40 17c2 5 8 19 8 18c15 35 32 55 58 55c14 0 29 -4 46 -11c13 -5 25 -10 38 -15c12 -5 27 -10 38 -14c28 -11 37 -6 50 26c2 5 5 13 7 18c12 -4 28 -12 40 -17c-2 -5 -8 -19 -8 -18c-15 -35 -32 -55 -59 -55c-14 0 -28 4 -45 11
c-12 4 -25 9 -38 14c-14 5 -26 10 -38 15c-31 12 -39 6 -50 -26zM600 720v-56h-460v-276h450v-56h-450v-276h460v-56h-520v720h520z" />
    <glyph glyph-name="uni1EBD" unicode="&#x1ebd;" 
d="M223 666l-7 -18c-12 4 -28 12 -40 17c2 5 8 19 8 18c15 35 32 55 58 55c14 0 29 -4 46 -11c13 -5 25 -10 38 -15c12 -5 27 -10 38 -14c28 -11 37 -6 50 26c2 5 5 13 7 18c12 -4 28 -12 40 -17c-2 -5 -8 -19 -8 -18c-15 -35 -32 -55 -59 -55c-14 0 -28 4 -45 11
c-12 4 -25 9 -38 14c-14 5 -26 10 -38 15c-31 12 -39 6 -50 -26zM235 560h160c111 0 160 -51 160 -160v-148h-420v-92c0 -76 25 -104 100 -104h160c75 0 100 28 100 104v20h60v-20c0 -109 -49 -160 -160 -160h-160c-111 0 -160 51 -160 160v240c0 109 49 160 160 160z
M135 308h360v92c0 76 -25 104 -100 104h-160c-75 0 -100 -28 -100 -104v-92z" />
    <glyph glyph-name="uni1EC8" unicode="&#x1ec8;" horiz-adv-x="220" 
d="M65 959h83c38 0 57 -21 57 -59v-35c0 -38 -13 -57 -74 -57v-16c0 -5 -1 -12 -1 -16h-37v68h40c32 0 34 5 34 21v35c0 15 -4 20 -19 20h-83c-17 0 -21 -5 -21 -20v-28h-38v28c0 38 19 59 59 59zM140 0h-60v720h60v-720z" />
    <glyph glyph-name="uni1EC9" unicode="&#x1ec9;" horiz-adv-x="220" 
d="M140 0h-60v560h60v-560zM63 806h83c38 0 57 -21 57 -59v-35c0 -38 -13 -57 -74 -57v-16c0 -5 -1 -12 -1 -16h-37v68h40c32 0 34 5 34 21v35c0 15 -4 20 -19 20h-83c-17 0 -21 -5 -21 -20v-28h-38v28c0 38 19 59 59 59z" />
    <glyph glyph-name="uni1ECA" unicode="&#x1eca;" horiz-adv-x="220" 
d="M88 -78c15 16 39 16 54 1s15 -39 0 -54s-39 -15 -54 0s-15 40 0 53zM140 0h-60v720h60v-720z" />
    <glyph glyph-name="uni1ECB" unicode="&#x1ecb;" horiz-adv-x="220" 
d="M87 -78c15 16 39 16 54 1s15 -39 0 -54s-39 -15 -54 0s-15 40 0 53zM140 0h-60v560h60v-560zM74 715c20 20 52 20 71 0c20 -19 20 -51 0 -71c-19 -19 -51 -19 -71 0c-19 20 -19 52 0 71z" />
    <glyph glyph-name="uni1ECC" unicode="&#x1ecc;" horiz-adv-x="710" 
d="M323 -78c15 16 39 16 54 1s15 -39 0 -54s-39 -15 -54 0s-15 40 0 53zM235 720h240c111 0 160 -51 160 -160v-400c0 -109 -49 -160 -160 -160h-240c-111 0 -160 51 -160 160v400c0 109 49 160 160 160zM575 160v400c0 76 -25 104 -100 104h-240c-75 0 -100 -28 -100 -104
v-400c0 -76 25 -104 100 -104h240c75 0 100 28 100 104z" />
    <glyph glyph-name="uni1ECD" unicode="&#x1ecd;" 
d="M283 -78c15 16 39 16 54 1s15 -39 0 -54s-39 -15 -54 0s-15 40 0 53zM235 560h160c111 0 160 -51 160 -160v-240c0 -109 -49 -160 -160 -160h-160c-111 0 -160 51 -160 160v240c0 109 49 160 160 160zM495 160v240c0 76 -25 104 -100 104h-160c-75 0 -100 -28 -100 -104
v-240c0 -76 25 -104 100 -104h160c75 0 100 28 100 104z" />
    <glyph glyph-name="uni1ECE" unicode="&#x1ece;" horiz-adv-x="710" 
d="M235 720h240c111 0 160 -51 160 -160v-400c0 -109 -49 -160 -160 -160h-240c-111 0 -160 51 -160 160v400c0 109 49 160 160 160zM575 160v400c0 76 -25 104 -100 104h-240c-75 0 -100 -28 -100 -104v-400c0 -76 25 -104 100 -104h240c75 0 100 28 100 104zM314 959h83
c38 0 57 -21 57 -59v-35c0 -38 -13 -57 -74 -57v-16c0 -5 -1 -12 -1 -16h-37v68h40c32 0 34 5 34 21v35c0 15 -4 20 -19 20h-83c-17 0 -21 -5 -21 -20v-28h-38v28c0 38 19 59 59 59z" />
    <glyph glyph-name="uni1ECF" unicode="&#x1ecf;" 
d="M281 806h83c38 0 57 -21 57 -59v-35c0 -38 -13 -57 -74 -57v-16c0 -5 -1 -12 -1 -16h-37v68h40c32 0 34 5 34 21v35c0 15 -4 20 -19 20h-83c-17 0 -21 -5 -21 -20v-28h-38v28c0 38 19 59 59 59zM235 560h160c111 0 160 -51 160 -160v-240c0 -109 -49 -160 -160 -160h-160
c-111 0 -160 51 -160 160v240c0 109 49 160 160 160zM495 160v240c0 76 -25 104 -100 104h-160c-75 0 -100 -28 -100 -104v-240c0 -76 25 -104 100 -104h160c75 0 100 28 100 104z" />
    <glyph glyph-name="uni1EE4" unicode="&#x1ee4;" horiz-adv-x="720" 
d="M331 -78c15 16 39 16 54 1s15 -39 0 -54s-39 -15 -54 0s-15 40 0 53zM580 160v560h60v-560c0 -109 -51 -160 -160 -160h-240c-109 0 -160 51 -160 160v560h60v-560c0 -76 25 -104 100 -104h240c75 0 100 28 100 104z" />
    <glyph glyph-name="uni1EE5" unicode="&#x1ee5;" horiz-adv-x="640" 
d="M288 -78c15 16 39 16 54 1s15 -39 0 -54s-39 -15 -54 0s-15 40 0 53zM500 160v400h60v-400c0 -109 -51 -160 -160 -160h-160c-109 0 -160 51 -160 160v400h60v-400c0 -76 25 -104 100 -104h160c75 0 100 28 100 104z" />
    <glyph glyph-name="uni1EE6" unicode="&#x1ee6;" horiz-adv-x="720" 
d="M325 959h83c38 0 57 -21 57 -59v-35c0 -38 -13 -57 -74 -57v-16c0 -5 -1 -12 -1 -16h-37v68h40c32 0 34 5 34 21v35c0 15 -4 20 -19 20h-83c-17 0 -21 -5 -21 -20v-28h-38v28c0 38 19 59 59 59zM580 160v560h60v-560c0 -109 -51 -160 -160 -160h-240
c-109 0 -160 51 -160 160v560h60v-560c0 -76 25 -104 100 -104h240c75 0 100 28 100 104z" />
    <glyph glyph-name="uni1EE7" unicode="&#x1ee7;" horiz-adv-x="640" 
d="M281 806h83c38 0 57 -21 57 -59v-35c0 -38 -13 -57 -74 -57v-16c0 -5 -1 -12 -1 -16h-37v68h40c32 0 34 5 34 21v35c0 15 -4 20 -19 20h-83c-17 0 -21 -5 -21 -20v-28h-38v28c0 38 19 59 59 59zM500 160v400h60v-400c0 -109 -51 -160 -160 -160h-160
c-109 0 -160 51 -160 160v400h60v-400c0 -76 25 -104 100 -104h160c75 0 100 28 100 104z" />
    <glyph glyph-name="Ygrave" unicode="&#x1ef2;" horiz-adv-x="663" 
d="M301 916l93 -140h-43l-117 140h67zM564 720h69l-272 -482v-238h-60v238l-271 482h69l227 -404h10z" />
    <glyph glyph-name="ygrave" unicode="&#x1ef3;" horiz-adv-x="604" 
d="M279 763l93 -140h-43l-117 140h67zM307 56l203 504h64l-305 -760h-65l81 200h-30l-225 560h65l202 -504h10z" />
    <glyph glyph-name="uni1EF4" unicode="&#x1ef4;" horiz-adv-x="663" 
d="M305 -78c15 16 39 16 54 1s15 -39 0 -54s-39 -15 -54 0s-15 40 0 53zM564 720h69l-272 -482v-238h-60v238l-271 482h69l227 -404h10z" />
    <glyph glyph-name="uni1EF5" unicode="&#x1ef5;" horiz-adv-x="604" 
d="M407 -78c15 16 39 16 54 1s15 -39 0 -54s-39 -15 -54 0s-15 40 0 53zM307 56l203 504h64l-305 -760h-65l81 200h-30l-225 560h65l202 -504h10z" />
    <glyph glyph-name="uni1EF6" unicode="&#x1ef6;" horiz-adv-x="663" 
d="M303 959h83c38 0 57 -21 57 -59v-35c0 -38 -13 -57 -74 -57v-16c0 -5 -1 -12 -1 -16h-37v68h40c32 0 34 5 34 21v35c0 15 -4 20 -19 20h-83c-17 0 -21 -5 -21 -20v-28h-38v28c0 38 19 59 59 59zM564 720h69l-272 -482v-238h-60v238l-271 482h69l227 -404h10z" />
    <glyph glyph-name="uni1EF7" unicode="&#x1ef7;" horiz-adv-x="604" 
d="M265 806h83c38 0 57 -21 57 -59v-35c0 -38 -13 -57 -74 -57v-16c0 -5 -1 -12 -1 -16h-37v68h40c32 0 34 5 34 21v35c0 15 -4 20 -19 20h-83c-17 0 -21 -5 -21 -20v-28h-38v28c0 38 19 59 59 59zM307 56l203 504h64l-305 -760h-65l81 200h-30l-225 560h65l202 -504h10z
" />
    <glyph glyph-name="uni1EF8" unicode="&#x1ef8;" horiz-adv-x="663" 
d="M239 815l-7 -18c-12 4 -28 12 -40 17c2 5 8 19 8 18c15 35 32 55 58 55c14 0 29 -4 46 -11c13 -5 25 -10 38 -15c12 -5 27 -10 38 -14c28 -11 37 -6 50 26c2 5 5 13 7 18c12 -4 28 -12 40 -17c-2 -5 -8 -19 -8 -18c-15 -35 -32 -55 -59 -55c-14 0 -28 4 -45 11
c-12 4 -25 9 -38 14c-14 5 -26 10 -38 15c-31 12 -39 6 -50 -26zM564 720h69l-272 -482v-238h-60v238l-271 482h69l227 -404h10z" />
    <glyph glyph-name="uni1EF9" unicode="&#x1ef9;" horiz-adv-x="604" 
d="M207 666l-7 -18c-12 4 -28 12 -40 17c2 5 8 19 8 18c15 35 32 55 58 55c14 0 29 -4 46 -11c13 -5 25 -10 38 -15c12 -5 27 -10 38 -14c28 -11 37 -6 50 26c2 5 5 13 7 18c12 -4 28 -12 40 -17c-2 -5 -8 -19 -8 -18c-15 -35 -32 -55 -59 -55c-14 0 -28 4 -45 11
c-12 4 -25 9 -38 14c-14 5 -26 10 -38 15c-31 12 -39 6 -50 -26zM307 56l203 504h64l-305 -760h-65l81 200h-30l-225 560h65l202 -504h10z" />
    <glyph glyph-name="uni1EA4" unicode="&#x1ea4;" horiz-adv-x="683" 
d="M294 720h96l263 -720h-64l-77 212h-341l-77 -212h-64zM337 664l-145 -396h299l-144 396h-10zM346 879h-10l-82 -104h-51l111 140h55l111 -140h-51zM486 886h-44l94 140h66z" />
    <glyph glyph-name="uni1EA5" unicode="&#x1ea5;" horiz-adv-x="625" 
d="M230 560h160c109 0 160 -51 160 -160v-240c0 -109 -51 -160 -160 -160h-160c-109 0 -160 51 -160 160c0 35 13 61 26 76c7 8 18 16 35 23s32 12 43 15s30 8 56 15l260 65v46c0 76 -25 104 -100 104h-160c-75 0 -100 -28 -100 -104v-20h-60v20c0 109 51 160 160 160z
M490 160v136l-260 -65c-3 -1 -7 -2 -12 -3c-35 -8 -44 -11 -63 -22c-19 -9 -25 -23 -25 -46c0 -76 25 -104 100 -104h160c75 0 100 28 100 104zM331 727h-10l-83 -104h-51l111 140h55l112 -140h-52zM471 734h-44l94 140h66z" />
    <glyph glyph-name="uni1EA6" unicode="&#x1ea6;" horiz-adv-x="683" 
d="M294 720h96l263 -720h-64l-77 212h-341l-77 -212h-64zM337 664l-145 -396h299l-144 396h-10zM346 879h-10l-82 -104h-51l111 140h55l111 -140h-51zM425 1026l93 -140h-43l-117 140h67z" />
    <glyph glyph-name="uni1EA7" unicode="&#x1ea7;" horiz-adv-x="625" 
d="M230 560h160c109 0 160 -51 160 -160v-240c0 -109 -51 -160 -160 -160h-160c-109 0 -160 51 -160 160c0 35 13 61 26 76c7 8 18 16 35 23s32 12 43 15s30 8 56 15l260 65v46c0 76 -25 104 -100 104h-160c-75 0 -100 -28 -100 -104v-20h-60v20c0 109 51 160 160 160z
M490 160v136l-260 -65c-3 -1 -7 -2 -12 -3c-35 -8 -44 -11 -63 -22c-19 -9 -25 -23 -25 -46c0 -76 25 -104 100 -104h160c75 0 100 28 100 104zM331 727h-10l-83 -104h-51l111 140h55l112 -140h-52zM410 874l93 -140h-43l-117 140h67z" />
    <glyph glyph-name="uni1EAA" unicode="&#x1eaa;" horiz-adv-x="683" 
d="M294 720h96l263 -720h-64l-77 212h-341l-77 -212h-64zM337 664l-145 -396h299l-144 396h-10zM346 879h-10l-82 -104h-51l111 140h55l111 -140h-51zM247 961l-7 -18c-12 4 -28 12 -40 17c2 5 8 19 8 18c15 35 32 55 58 55c14 0 29 -4 46 -11c13 -5 25 -10 38 -15
c12 -5 27 -10 38 -14c28 -11 37 -6 50 26c2 5 5 13 7 18c12 -4 28 -12 40 -17c-2 -5 -8 -19 -8 -18c-15 -35 -32 -55 -59 -55c-14 0 -28 4 -45 11c-12 4 -25 9 -38 14c-14 5 -26 10 -38 15c-31 12 -39 6 -50 -26z" />
    <glyph glyph-name="uni1EAB" unicode="&#x1eab;" horiz-adv-x="625" 
d="M230 560h160c109 0 160 -51 160 -160v-240c0 -109 -51 -160 -160 -160h-160c-109 0 -160 51 -160 160c0 35 13 61 26 76c7 8 18 16 35 23s32 12 43 15s30 8 56 15l260 65v46c0 76 -25 104 -100 104h-160c-75 0 -100 -28 -100 -104v-20h-60v20c0 109 51 160 160 160z
M490 160v136l-260 -65c-3 -1 -7 -2 -12 -3c-35 -8 -44 -11 -63 -22c-19 -9 -25 -23 -25 -46c0 -76 25 -104 100 -104h160c75 0 100 28 100 104zM331 727h-10l-83 -104h-51l111 140h55l112 -140h-52zM232 809l-7 -18c-12 4 -28 12 -40 17c2 5 8 19 8 18c15 35 32 55 58 55
c14 0 29 -4 46 -11c13 -5 25 -10 38 -15c12 -5 27 -10 38 -14c28 -11 37 -6 50 26c2 5 5 13 7 18c12 -4 28 -12 40 -17c-2 -5 -8 -19 -8 -18c-15 -35 -32 -55 -59 -55c-14 0 -28 4 -45 11c-12 4 -25 9 -38 14c-14 5 -26 10 -38 15c-31 12 -39 6 -50 -26z" />
    <glyph glyph-name="uni1EAC" unicode="&#x1eac;" horiz-adv-x="683" 
d="M294 720h96l263 -720h-64l-77 212h-341l-77 -212h-64zM337 664l-145 -396h299l-144 396h-10zM346 879h-10l-82 -104h-51l111 140h55l111 -140h-51zM317 -78c15 16 39 16 54 1s15 -39 0 -54s-39 -15 -54 0s-15 40 0 53z" />
    <glyph glyph-name="uni1EAD" unicode="&#x1ead;" horiz-adv-x="625" 
d="M230 560h160c109 0 160 -51 160 -160v-240c0 -109 -51 -160 -160 -160h-160c-109 0 -160 51 -160 160c0 35 13 61 26 76c7 8 18 16 35 23s32 12 43 15s30 8 56 15l260 65v46c0 76 -25 104 -100 104h-160c-75 0 -100 -28 -100 -104v-20h-60v20c0 109 51 160 160 160z
M490 160v136l-260 -65c-3 -1 -7 -2 -12 -3c-35 -8 -44 -11 -63 -22c-19 -9 -25 -23 -25 -46c0 -76 25 -104 100 -104h160c75 0 100 28 100 104zM331 727h-10l-83 -104h-51l111 140h55l112 -140h-52zM283 -78c15 16 39 16 54 1s15 -39 0 -54s-39 -15 -54 0s-15 40 0 53z" />
    <glyph glyph-name="uni1EAE" unicode="&#x1eae;" horiz-adv-x="683" 
d="M437 856v27h40v-27c0 -60 -20 -80 -80 -80h-109c-60 0 -80 20 -80 80v27h40v-27c0 -36 5 -44 40 -44h109c35 0 40 8 40 44zM344 883h-44l94 140h66zM294 720h96l263 -720h-64l-77 212h-341l-77 -212h-64zM337 664l-145 -396h299l-144 396h-10z" />
    <glyph glyph-name="uni1EAF" unicode="&#x1eaf;" horiz-adv-x="625" 
d="M230 560h160c109 0 160 -51 160 -160v-240c0 -109 -51 -160 -160 -160h-160c-109 0 -160 51 -160 160c0 35 13 61 26 76c7 8 18 16 35 23s32 12 43 15s30 8 56 15l260 65v46c0 76 -25 104 -100 104h-160c-75 0 -100 -28 -100 -104v-20h-60v20c0 109 51 160 160 160z
M490 160v136l-260 -65c-3 -1 -7 -2 -12 -3c-35 -8 -44 -11 -63 -22c-19 -9 -25 -23 -25 -46c0 -76 25 -104 100 -104h160c75 0 100 28 100 104zM416 703v27h40v-27c0 -60 -20 -80 -80 -80h-109c-60 0 -80 20 -80 80v27h40v-27c0 -36 5 -44 40 -44h109c35 0 40 8 40 44z
M323 730h-44l94 140h66z" />
    <glyph glyph-name="uni1EB0" unicode="&#x1eb0;" horiz-adv-x="683" 
d="M437 856v27h40v-27c0 -60 -20 -80 -80 -80h-109c-60 0 -80 20 -80 80v27h40v-27c0 -36 5 -44 40 -44h109c35 0 40 8 40 44zM296 1022l93 -140h-43l-117 140h67zM294 720h96l263 -720h-64l-77 212h-341l-77 -212h-64zM337 664l-145 -396h299l-144 396h-10z" />
    <glyph glyph-name="uni1EB1" unicode="&#x1eb1;" horiz-adv-x="625" 
d="M230 560h160c109 0 160 -51 160 -160v-240c0 -109 -51 -160 -160 -160h-160c-109 0 -160 51 -160 160c0 35 13 61 26 76c7 8 18 16 35 23s32 12 43 15s30 8 56 15l260 65v46c0 76 -25 104 -100 104h-160c-75 0 -100 -28 -100 -104v-20h-60v20c0 109 51 160 160 160z
M490 160v136l-260 -65c-3 -1 -7 -2 -12 -3c-35 -8 -44 -11 -63 -22c-19 -9 -25 -23 -25 -46c0 -76 25 -104 100 -104h160c75 0 100 28 100 104zM416 703v27h40v-27c0 -60 -20 -80 -80 -80h-109c-60 0 -80 20 -80 80v27h40v-27c0 -36 5 -44 40 -44h109c35 0 40 8 40 44z
M275 869l93 -140h-43l-117 140h67z" />
    <glyph glyph-name="uni1EB2" unicode="&#x1eb2;" horiz-adv-x="683" 
d="M437 856v27h40v-27c0 -60 -20 -80 -80 -80h-109c-60 0 -80 20 -80 80v27h40v-27c0 -36 5 -44 40 -44h109c35 0 40 8 40 44zM298 1065h83c38 0 57 -21 57 -59v-35c0 -38 -13 -57 -74 -57v-16c0 -5 -1 -12 -1 -16h-37v68h40c32 0 34 5 34 21v35c0 15 -4 20 -19 20h-83
c-17 0 -21 -5 -21 -20v-28h-38v28c0 38 19 59 59 59zM294 720h96l263 -720h-64l-77 212h-341l-77 -212h-64zM337 664l-145 -396h299l-144 396h-10z" />
    <glyph glyph-name="uni1EB3" unicode="&#x1eb3;" horiz-adv-x="625" 
d="M230 560h160c109 0 160 -51 160 -160v-240c0 -109 -51 -160 -160 -160h-160c-109 0 -160 51 -160 160c0 35 13 61 26 76c7 8 18 16 35 23s32 12 43 15s30 8 56 15l260 65v46c0 76 -25 104 -100 104h-160c-75 0 -100 -28 -100 -104v-20h-60v20c0 109 51 160 160 160z
M490 160v136l-260 -65c-3 -1 -7 -2 -12 -3c-35 -8 -44 -11 -63 -22c-19 -9 -25 -23 -25 -46c0 -76 25 -104 100 -104h160c75 0 100 28 100 104zM416 703v27h40v-27c0 -60 -20 -80 -80 -80h-109c-60 0 -80 20 -80 80v27h40v-27c0 -36 5 -44 40 -44h109c35 0 40 8 40 44z
M277 912h83c38 0 57 -21 57 -59v-35c0 -38 -13 -57 -74 -57v-16c0 -5 -1 -12 -1 -16h-37v68h40c32 0 34 5 34 21v35c0 15 -4 20 -19 20h-83c-17 0 -21 -5 -21 -20v-28h-38v28c0 38 19 59 59 59z" />
    <glyph glyph-name="uni1EB4" unicode="&#x1eb4;" horiz-adv-x="683" 
d="M437 856v27h40v-27c0 -60 -20 -80 -80 -80h-109c-60 0 -80 20 -80 80v27h40v-27c0 -36 5 -44 40 -44h109c35 0 40 8 40 44zM244 937l-7 -18c-12 4 -28 12 -40 17c2 5 8 19 8 18c15 35 32 55 58 55c14 0 29 -4 46 -11c13 -5 25 -10 38 -15c12 -5 27 -10 38 -14
c28 -11 37 -6 50 26c2 5 5 13 7 18c12 -4 28 -12 40 -17c-2 -5 -8 -19 -8 -18c-15 -35 -32 -55 -59 -55c-14 0 -28 4 -45 11c-12 4 -25 9 -38 14c-14 5 -26 10 -38 15c-31 12 -39 6 -50 -26zM294 720h96l263 -720h-64l-77 212h-341l-77 -212h-64zM337 664l-145 -396h299
l-144 396h-10z" />
    <glyph glyph-name="uni1EB5" unicode="&#x1eb5;" horiz-adv-x="625" 
d="M230 560h160c109 0 160 -51 160 -160v-240c0 -109 -51 -160 -160 -160h-160c-109 0 -160 51 -160 160c0 35 13 61 26 76c7 8 18 16 35 23s32 12 43 15s30 8 56 15l260 65v46c0 76 -25 104 -100 104h-160c-75 0 -100 -28 -100 -104v-20h-60v20c0 109 51 160 160 160z
M490 160v136l-260 -65c-3 -1 -7 -2 -12 -3c-35 -8 -44 -11 -63 -22c-19 -9 -25 -23 -25 -46c0 -76 25 -104 100 -104h160c75 0 100 28 100 104zM416 703v27h40v-27c0 -60 -20 -80 -80 -80h-109c-60 0 -80 20 -80 80v27h40v-27c0 -36 5 -44 40 -44h109c35 0 40 8 40 44z
M223 784l-7 -18c-12 4 -28 12 -40 17c2 5 8 19 8 18c15 35 32 55 58 55c14 0 29 -4 46 -11c13 -5 25 -10 38 -15c12 -5 27 -10 38 -14c28 -11 37 -6 50 26c2 5 5 13 7 18c12 -4 28 -12 40 -17c-2 -5 -8 -19 -8 -18c-15 -35 -32 -55 -59 -55c-14 0 -28 4 -45 11
c-12 4 -25 9 -38 14c-14 5 -26 10 -38 15c-31 12 -39 6 -50 -26z" />
    <glyph glyph-name="uni1EB6" unicode="&#x1eb6;" horiz-adv-x="683" 
d="M437 856v27h40v-27c0 -60 -20 -80 -80 -80h-109c-60 0 -80 20 -80 80v27h40v-27c0 -36 5 -44 40 -44h109c35 0 40 8 40 44zM317 -78c15 16 39 16 54 1s15 -39 0 -54s-39 -15 -54 0s-15 40 0 53zM294 720h96l263 -720h-64l-77 212h-341l-77 -212h-64zM337 664l-145 -396
h299l-144 396h-10z" />
    <glyph glyph-name="uni1EB7" unicode="&#x1eb7;" horiz-adv-x="625" 
d="M230 560h160c109 0 160 -51 160 -160v-240c0 -109 -51 -160 -160 -160h-160c-109 0 -160 51 -160 160c0 35 13 61 26 76c7 8 18 16 35 23s32 12 43 15s30 8 56 15l260 65v46c0 76 -25 104 -100 104h-160c-75 0 -100 -28 -100 -104v-20h-60v20c0 109 51 160 160 160z
M490 160v136l-260 -65c-3 -1 -7 -2 -12 -3c-35 -8 -44 -11 -63 -22c-19 -9 -25 -23 -25 -46c0 -76 25 -104 100 -104h160c75 0 100 28 100 104zM416 703v27h40v-27c0 -60 -20 -80 -80 -80h-109c-60 0 -80 20 -80 80v27h40v-27c0 -36 5 -44 40 -44h109c35 0 40 8 40 44z
M283 -78c15 16 39 16 54 1s15 -39 0 -54s-39 -15 -54 0s-15 40 0 53z" />
    <glyph glyph-name="uni1EBE" unicode="&#x1ebe;" horiz-adv-x="665" 
d="M600 720v-56h-460v-276h450v-56h-450v-276h460v-56h-520v720h520zM345 880h-10l-83 -104h-51l111 140h55l112 -140h-52zM484 887h-44l94 140h66z" />
    <glyph glyph-name="uni1EBF" unicode="&#x1ebf;" 
d="M555 400v-148h-420v-92c0 -76 25 -104 100 -104h160c75 0 100 28 100 104v20h60v-20c0 -109 -49 -160 -160 -160h-160c-111 0 -160 51 -160 160v240c0 109 49 160 160 160h160c111 0 160 -51 160 -160zM135 400v-92h360v92c0 76 -25 104 -100 104h-160
c-75 0 -100 -28 -100 -104zM321 727h-10l-83 -104h-51l111 140h55l112 -140h-52zM461 734h-44l94 140h66z" />
    <glyph glyph-name="uni1EC0" unicode="&#x1ec0;" horiz-adv-x="665" 
d="M600 720v-56h-460v-276h450v-56h-450v-276h460v-56h-520v720h520zM345 880h-10l-83 -104h-51l111 140h55l112 -140h-52zM423 1027l93 -140h-43l-117 140h67z" />
    <glyph glyph-name="uni1EC1" unicode="&#x1ec1;" 
d="M555 400v-148h-420v-92c0 -76 25 -104 100 -104h160c75 0 100 28 100 104v20h60v-20c0 -109 -49 -160 -160 -160h-160c-111 0 -160 51 -160 160v240c0 109 49 160 160 160h160c111 0 160 -51 160 -160zM135 400v-92h360v92c0 76 -25 104 -100 104h-160
c-75 0 -100 -28 -100 -104zM321 727h-10l-83 -104h-51l111 140h55l112 -140h-52zM400 874l93 -140h-43l-117 140h67z" />
    <glyph glyph-name="uni1EC2" unicode="&#x1ec2;" horiz-adv-x="665" 
d="M600 720v-56h-460v-276h450v-56h-450v-276h460v-56h-520v720h520zM345 880h-10l-83 -104h-51l111 140h55l112 -140h-52zM418 1068h83c38 0 57 -21 57 -59v-35c0 -38 -13 -57 -74 -57v-16c0 -5 -1 -12 -1 -16h-37v68h40c32 0 34 5 34 21v35c0 15 -4 20 -19 20h-83
c-17 0 -21 -5 -21 -20v-28h-38v28c0 38 19 59 59 59z" />
    <glyph glyph-name="uni1EC3" unicode="&#x1ec3;" 
d="M555 400v-148h-420v-92c0 -76 25 -104 100 -104h160c75 0 100 28 100 104v20h60v-20c0 -109 -49 -160 -160 -160h-160c-111 0 -160 51 -160 160v240c0 109 49 160 160 160h160c111 0 160 -51 160 -160zM135 400v-92h360v92c0 76 -25 104 -100 104h-160
c-75 0 -100 -28 -100 -104zM321 727h-10l-83 -104h-51l111 140h55l112 -140h-52zM395 915h83c38 0 57 -21 57 -59v-35c0 -38 -13 -57 -74 -57v-16c0 -5 -1 -12 -1 -16h-37v68h40c32 0 34 5 34 21v35c0 15 -4 20 -19 20h-83c-17 0 -21 -5 -21 -20v-28h-38v28
c0 38 19 59 59 59z" />
    <glyph glyph-name="uni1EC4" unicode="&#x1ec4;" horiz-adv-x="665" 
d="M600 720v-56h-460v-276h450v-56h-450v-276h460v-56h-520v720h520zM345 880h-10l-83 -104h-51l111 140h55l112 -140h-52zM245 962l-7 -18c-12 4 -28 12 -40 17c2 5 8 19 8 18c15 35 32 55 58 55c14 0 29 -4 46 -11c13 -5 25 -10 38 -15c12 -5 27 -10 38 -14
c28 -11 37 -6 50 26c2 5 5 13 7 18c12 -4 28 -12 40 -17c-2 -5 -8 -19 -8 -18c-15 -35 -32 -55 -59 -55c-14 0 -28 4 -45 11c-12 4 -25 9 -38 14c-14 5 -26 10 -38 15c-31 12 -39 6 -50 -26z" />
    <glyph glyph-name="uni1EC5" unicode="&#x1ec5;" 
d="M555 400v-148h-420v-92c0 -76 25 -104 100 -104h160c75 0 100 28 100 104v20h60v-20c0 -109 -49 -160 -160 -160h-160c-111 0 -160 51 -160 160v240c0 109 49 160 160 160h160c111 0 160 -51 160 -160zM135 400v-92h360v92c0 76 -25 104 -100 104h-160
c-75 0 -100 -28 -100 -104zM321 727h-10l-83 -104h-51l111 140h55l112 -140h-52zM222 809l-7 -18c-12 4 -28 12 -40 17c2 5 8 19 8 18c15 35 32 55 58 55c14 0 29 -4 46 -11c13 -5 25 -10 38 -15c12 -5 27 -10 38 -14c28 -11 37 -6 50 26c2 5 5 13 7 18c12 -4 28 -12 40 -17
c-2 -5 -8 -19 -8 -18c-15 -35 -32 -55 -59 -55c-14 0 -28 4 -45 11c-12 4 -25 9 -38 14c-14 5 -26 10 -38 15c-31 12 -39 6 -50 -26z" />
    <glyph glyph-name="uni1EC6" unicode="&#x1ec6;" horiz-adv-x="665" 
d="M600 720v-56h-460v-276h450v-56h-450v-276h460v-56h-520v720h520zM345 880h-10l-83 -104h-51l111 140h55l112 -140h-52zM317 -78c15 16 39 16 54 1s15 -39 0 -54s-39 -15 -54 0s-15 40 0 53z" />
    <glyph glyph-name="uni1EC7" unicode="&#x1ec7;" 
d="M555 400v-148h-420v-92c0 -76 25 -104 100 -104h160c75 0 100 28 100 104v20h60v-20c0 -109 -49 -160 -160 -160h-160c-111 0 -160 51 -160 160v240c0 109 49 160 160 160h160c111 0 160 -51 160 -160zM135 400v-92h360v92c0 76 -25 104 -100 104h-160
c-75 0 -100 -28 -100 -104zM321 727h-10l-83 -104h-51l111 140h55l112 -140h-52zM283 -78c15 16 39 16 54 1s15 -39 0 -54s-39 -15 -54 0s-15 40 0 53z" />
    <glyph glyph-name="uni1ED0" unicode="&#x1ed0;" horiz-adv-x="710" 
d="M235 720h240c111 0 160 -51 160 -160v-400c0 -109 -49 -160 -160 -160h-240c-111 0 -160 51 -160 160v400c0 109 49 160 160 160zM575 160v400c0 76 -25 104 -100 104h-240c-75 0 -100 -28 -100 -104v-400c0 -76 25 -104 100 -104h240c75 0 100 28 100 104zM360 879h-10
l-83 -104h-51l111 140h55l112 -140h-52zM500 886h-44l94 140h66z" />
    <glyph glyph-name="uni1ED1" unicode="&#x1ed1;" 
d="M235 560h160c111 0 160 -51 160 -160v-240c0 -109 -49 -160 -160 -160h-160c-111 0 -160 51 -160 160v240c0 109 49 160 160 160zM495 160v240c0 76 -25 104 -100 104h-160c-75 0 -100 -28 -100 -104v-240c0 -76 25 -104 100 -104h160c75 0 100 28 100 104zM320 727h-10
l-83 -104h-51l111 140h55l112 -140h-52zM460 734h-44l94 140h66z" />
    <glyph glyph-name="uni1ED2" unicode="&#x1ed2;" horiz-adv-x="710" 
d="M235 720h240c111 0 160 -51 160 -160v-400c0 -109 -49 -160 -160 -160h-240c-111 0 -160 51 -160 160v400c0 109 49 160 160 160zM575 160v400c0 76 -25 104 -100 104h-240c-75 0 -100 -28 -100 -104v-400c0 -76 25 -104 100 -104h240c75 0 100 28 100 104zM360 879h-10
l-83 -104h-51l111 140h55l112 -140h-52zM439 1026l93 -140h-43l-117 140h67z" />
    <glyph glyph-name="uni1ED3" unicode="&#x1ed3;" 
d="M235 560h160c111 0 160 -51 160 -160v-240c0 -109 -49 -160 -160 -160h-160c-111 0 -160 51 -160 160v240c0 109 49 160 160 160zM495 160v240c0 76 -25 104 -100 104h-160c-75 0 -100 -28 -100 -104v-240c0 -76 25 -104 100 -104h160c75 0 100 28 100 104zM320 727h-10
l-83 -104h-51l111 140h55l112 -140h-52zM399 874l93 -140h-43l-117 140h67z" />
    <glyph glyph-name="uni1ED4" unicode="&#x1ed4;" horiz-adv-x="710" 
d="M235 720h240c111 0 160 -51 160 -160v-400c0 -109 -49 -160 -160 -160h-240c-111 0 -160 51 -160 160v400c0 109 49 160 160 160zM575 160v400c0 76 -25 104 -100 104h-240c-75 0 -100 -28 -100 -104v-400c0 -76 25 -104 100 -104h240c75 0 100 28 100 104zM360 879h-10
l-83 -104h-51l111 140h55l112 -140h-52zM433 1067h83c38 0 57 -21 57 -59v-35c0 -38 -13 -57 -74 -57v-16c0 -5 -1 -12 -1 -16h-37v68h40c32 0 34 5 34 21v35c0 15 -4 20 -19 20h-83c-17 0 -21 -5 -21 -20v-28h-38v28c0 38 19 59 59 59z" />
    <glyph glyph-name="uni1ED5" unicode="&#x1ed5;" 
d="M235 560h160c111 0 160 -51 160 -160v-240c0 -109 -49 -160 -160 -160h-160c-111 0 -160 51 -160 160v240c0 109 49 160 160 160zM495 160v240c0 76 -25 104 -100 104h-160c-75 0 -100 -28 -100 -104v-240c0 -76 25 -104 100 -104h160c75 0 100 28 100 104zM320 727h-10
l-83 -104h-51l111 140h55l112 -140h-52zM394 915h83c38 0 57 -21 57 -59v-35c0 -38 -13 -57 -74 -57v-16c0 -5 -1 -12 -1 -16h-37v68h40c32 0 34 5 34 21v35c0 15 -4 20 -19 20h-83c-17 0 -21 -5 -21 -20v-28h-38v28c0 38 19 59 59 59z" />
    <glyph glyph-name="uni1ED6" unicode="&#x1ed6;" horiz-adv-x="710" 
d="M235 720h240c111 0 160 -51 160 -160v-400c0 -109 -49 -160 -160 -160h-240c-111 0 -160 51 -160 160v400c0 109 49 160 160 160zM575 160v400c0 76 -25 104 -100 104h-240c-75 0 -100 -28 -100 -104v-400c0 -76 25 -104 100 -104h240c75 0 100 28 100 104zM360 879h-10
l-83 -104h-51l111 140h55l112 -140h-52zM260 961l-7 -18c-12 4 -28 12 -40 17c2 5 8 19 8 18c15 35 32 55 58 55c14 0 29 -4 46 -11c13 -5 25 -10 38 -15c12 -5 27 -10 38 -14c28 -11 37 -6 50 26c2 5 5 13 7 18c12 -4 28 -12 40 -17c-2 -5 -8 -19 -8 -18
c-15 -35 -32 -55 -59 -55c-14 0 -28 4 -45 11c-12 4 -25 9 -38 14c-14 5 -26 10 -38 15c-31 12 -39 6 -50 -26z" />
    <glyph glyph-name="uni1ED7" unicode="&#x1ed7;" 
d="M235 560h160c111 0 160 -51 160 -160v-240c0 -109 -49 -160 -160 -160h-160c-111 0 -160 51 -160 160v240c0 109 49 160 160 160zM495 160v240c0 76 -25 104 -100 104h-160c-75 0 -100 -28 -100 -104v-240c0 -76 25 -104 100 -104h160c75 0 100 28 100 104zM320 727h-10
l-83 -104h-51l111 140h55l112 -140h-52zM221 809l-7 -18c-12 4 -28 12 -40 17c2 5 8 19 8 18c15 35 32 55 58 55c14 0 29 -4 46 -11c13 -5 25 -10 38 -15c12 -5 27 -10 38 -14c28 -11 37 -6 50 26c2 5 5 13 7 18c12 -4 28 -12 40 -17c-2 -5 -8 -19 -8 -18
c-15 -35 -32 -55 -59 -55c-14 0 -28 4 -45 11c-12 4 -25 9 -38 14c-14 5 -26 10 -38 15c-31 12 -39 6 -50 -26z" />
    <glyph glyph-name="uni1ED8" unicode="&#x1ed8;" horiz-adv-x="710" 
d="M235 720h240c111 0 160 -51 160 -160v-400c0 -109 -49 -160 -160 -160h-240c-111 0 -160 51 -160 160v400c0 109 49 160 160 160zM575 160v400c0 76 -25 104 -100 104h-240c-75 0 -100 -28 -100 -104v-400c0 -76 25 -104 100 -104h240c75 0 100 28 100 104zM360 879h-10
l-83 -104h-51l111 140h55l112 -140h-52zM323 -78c15 16 39 16 54 1s15 -39 0 -54s-39 -15 -54 0s-15 40 0 53z" />
    <glyph glyph-name="uni1ED9" unicode="&#x1ed9;" 
d="M235 560h160c111 0 160 -51 160 -160v-240c0 -109 -49 -160 -160 -160h-160c-111 0 -160 51 -160 160v240c0 109 49 160 160 160zM495 160v240c0 76 -25 104 -100 104h-160c-75 0 -100 -28 -100 -104v-240c0 -76 25 -104 100 -104h160c75 0 100 28 100 104zM320 727h-10
l-83 -104h-51l111 140h55l112 -140h-52zM283 -78c15 16 39 16 54 1s15 -39 0 -54s-39 -15 -54 0s-15 40 0 53z" />
    <glyph glyph-name="uni1EFD" unicode="&#x1efd;" horiz-adv-x="0" 
d="M226 817l-7 -18c-12 4 -28 12 -40 17c2 5 8 19 8 18c15 35 32 55 58 55c14 0 29 -4 46 -11c13 -5 25 -10 38 -15c12 -5 27 -10 38 -14c28 -11 37 -6 50 26c2 5 5 13 7 18c12 -4 28 -12 40 -17c-2 -5 -8 -19 -8 -18c-15 -35 -32 -55 -59 -55c-14 0 -28 4 -45 11
c-12 4 -25 9 -38 14c-14 5 -26 10 -38 15c-31 12 -39 6 -50 -26z" />
    <glyph glyph-name="uni1EDA" unicode="&#x1eda;" horiz-adv-x="710" 
d="M235 720h240c9 0 18 0 27 -1h77c63 -3 67 24 58 84v5h60v-5c4 -61 -5 -100 -26 -117c-15 -13 -36 -20 -61 -22c17 -26 25 -61 25 -104v-400c0 -109 -49 -160 -160 -160h-240c-111 0 -160 51 -160 160v400c0 109 49 160 160 160zM575 160v400c0 76 -25 104 -100 104h-240
c-75 0 -100 -28 -100 -104v-400c0 -76 25 -104 100 -104h240c75 0 100 28 100 104zM408 916h67l-117 -140h-43z" />
    <glyph glyph-name="uni1EDB" unicode="&#x1edb;" 
d="M235 560h160c9 0 18 0 27 -1h79c63 -3 67 24 58 84v5h60v-5c4 -61 -5 -100 -26 -117c-15 -13 -36 -20 -63 -22c17 -25 25 -60 25 -104v-240c0 -109 -49 -160 -160 -160h-160c-111 0 -160 51 -160 160v240c0 109 49 160 160 160zM495 160v240c0 38 -7 65 -22 80
c-13 14 -36 22 -67 24h-171c-75 0 -100 -28 -100 -104v-240c0 -76 25 -104 100 -104h160c75 0 100 28 100 104zM366 763h67l-117 -140h-43z" />
    <glyph glyph-name="uni1EDC" unicode="&#x1edc;" horiz-adv-x="710" 
d="M235 720h240c9 0 18 0 27 -1h77c63 -3 67 24 58 84v5h60v-5c4 -61 -5 -100 -26 -117c-15 -13 -36 -20 -61 -22c17 -26 25 -61 25 -104v-400c0 -109 -49 -160 -160 -160h-240c-111 0 -160 51 -160 160v400c0 109 49 160 160 160zM575 160v400c0 76 -25 104 -100 104h-240
c-75 0 -100 -28 -100 -104v-400c0 -76 25 -104 100 -104h240c75 0 100 28 100 104zM376 776l-117 140h67l93 -140h-43z" />
    <glyph glyph-name="uni1EDD" unicode="&#x1edd;" 
d="M235 560h160c9 0 18 0 27 -1h79c63 -3 67 24 58 84v5h60v-5c4 -61 -5 -100 -26 -117c-15 -13 -36 -20 -63 -22c17 -25 25 -60 25 -104v-240c0 -109 -49 -160 -160 -160h-160c-111 0 -160 51 -160 160v240c0 109 49 160 160 160zM495 160v240c0 38 -7 65 -22 80
c-13 14 -36 22 -67 24h-171c-75 0 -100 -28 -100 -104v-240c0 -76 25 -104 100 -104h160c75 0 100 28 100 104zM276 763l93 -140h-43l-117 140h67z" />
    <glyph glyph-name="uni1EDE" unicode="&#x1ede;" horiz-adv-x="710" 
d="M235 720h240c9 0 18 0 27 -1h77c63 -3 67 24 58 84v5h60v-5c4 -61 -5 -100 -26 -117c-15 -13 -36 -20 -61 -22c17 -26 25 -61 25 -104v-400c0 -109 -49 -160 -160 -160h-240c-111 0 -160 51 -160 160v400c0 109 49 160 160 160zM575 160v400c0 76 -25 104 -100 104h-240
c-75 0 -100 -28 -100 -104v-400c0 -76 25 -104 100 -104h240c75 0 100 28 100 104zM314 959h83c38 0 57 -21 57 -59v-35c0 -38 -13 -57 -74 -57v-16c0 -5 -1 -12 -1 -16h-37v68h40c32 0 34 5 34 21v35c0 15 -4 20 -19 20h-83c-17 0 -21 -5 -21 -20v-28h-38v28
c0 38 19 59 59 59z" />
    <glyph glyph-name="uni1EDF" unicode="&#x1edf;" 
d="M235 560h160c9 0 18 0 27 -1h79c63 -3 67 24 58 84v5h60v-5c4 -61 -5 -100 -26 -117c-15 -13 -36 -20 -63 -22c17 -25 25 -60 25 -104v-240c0 -109 -49 -160 -160 -160h-160c-111 0 -160 51 -160 160v240c0 109 49 160 160 160zM495 160v240c0 38 -7 65 -22 80
c-13 14 -36 22 -67 24h-171c-75 0 -100 -28 -100 -104v-240c0 -76 25 -104 100 -104h160c75 0 100 28 100 104zM281 806h83c38 0 57 -21 57 -59v-35c0 -38 -13 -57 -74 -57v-16c0 -5 -1 -12 -1 -16h-37v68h40c32 0 34 5 34 21v35c0 15 -4 20 -19 20h-83
c-17 0 -21 -5 -21 -20v-28h-38v28c0 38 19 59 59 59z" />
    <glyph glyph-name="uni1EE0" unicode="&#x1ee0;" horiz-adv-x="710" 
d="M235 720h240c9 0 18 0 27 -1h77c63 -3 67 24 58 84v5h60v-5c4 -61 -5 -100 -26 -117c-15 -13 -36 -20 -61 -22c17 -26 25 -61 25 -104v-400c0 -109 -49 -160 -160 -160h-240c-111 0 -160 51 -160 160v400c0 109 49 160 160 160zM575 160v400c0 76 -25 104 -100 104h-240
c-75 0 -100 -28 -100 -104v-400c0 -76 25 -104 100 -104h240c75 0 100 28 100 104zM259 815l-7 -18c-12 4 -28 12 -40 17c2 5 8 19 8 18c15 35 32 55 58 55c14 0 29 -4 46 -11c13 -5 25 -10 38 -15c12 -5 27 -10 38 -14c28 -11 37 -6 50 26c2 5 5 13 7 18
c12 -4 28 -12 40 -17c-2 -5 -8 -19 -8 -18c-15 -35 -32 -55 -59 -55c-14 0 -28 4 -45 11c-12 4 -25 9 -38 14c-14 5 -26 10 -38 15c-31 12 -39 6 -50 -26z" />
    <glyph glyph-name="uni1EE1" unicode="&#x1ee1;" 
d="M235 560h160c9 0 18 0 27 -1h79c63 -3 67 24 58 84v5h60v-5c4 -61 -5 -100 -26 -117c-15 -13 -36 -20 -63 -22c17 -25 25 -60 25 -104v-240c0 -109 -49 -160 -160 -160h-160c-111 0 -160 51 -160 160v240c0 109 49 160 160 160zM495 160v240c0 38 -7 65 -22 80
c-13 14 -36 22 -67 24h-171c-75 0 -100 -28 -100 -104v-240c0 -76 25 -104 100 -104h160c75 0 100 28 100 104zM223 667l-7 -18c-12 4 -28 12 -40 17c2 5 8 19 8 18c15 35 32 55 58 55c14 0 29 -4 46 -11c13 -5 25 -10 38 -15c12 -5 27 -10 38 -14c28 -11 37 -6 50 26
c2 5 5 13 7 18c12 -4 28 -12 40 -17c-2 -5 -8 -19 -8 -18c-15 -35 -32 -55 -59 -55c-14 0 -28 4 -45 11c-12 4 -25 9 -38 14c-14 5 -26 10 -38 15c-31 12 -39 6 -50 -26z" />
    <glyph glyph-name="uni1EE2" unicode="&#x1ee2;" horiz-adv-x="710" 
d="M235 720h240c9 0 18 0 27 -1h77c63 -3 67 24 58 84v5h60v-5c4 -61 -5 -100 -26 -117c-15 -13 -36 -20 -61 -22c17 -26 25 -61 25 -104v-400c0 -109 -49 -160 -160 -160h-240c-111 0 -160 51 -160 160v400c0 109 49 160 160 160zM575 160v400c0 76 -25 104 -100 104h-240
c-75 0 -100 -28 -100 -104v-400c0 -76 25 -104 100 -104h240c75 0 100 28 100 104zM323 -78c15 16 39 16 54 1s15 -39 0 -54s-39 -15 -54 0s-15 40 0 53z" />
    <glyph glyph-name="uni1EE3" unicode="&#x1ee3;" 
d="M235 560h160c9 0 18 0 27 -1h79c63 -3 67 24 58 84v5h60v-5c4 -61 -5 -100 -26 -117c-15 -13 -36 -20 -63 -22c17 -25 25 -60 25 -104v-240c0 -109 -49 -160 -160 -160h-160c-111 0 -160 51 -160 160v240c0 109 49 160 160 160zM495 160v240c0 38 -7 65 -22 80
c-13 14 -36 22 -67 24h-171c-75 0 -100 -28 -100 -104v-240c0 -76 25 -104 100 -104h160c75 0 100 28 100 104zM283 -78c15 16 39 16 54 1s15 -39 0 -54s-39 -15 -54 0s-15 40 0 53z" />
    <glyph glyph-name="uni1EE8" unicode="&#x1ee8;" horiz-adv-x="720" 
d="M580 160v560h40c63 -3 67 24 58 84v5h60v-5c4 -61 -5 -100 -26 -117c-17 -15 -41 -23 -72 -24v-503c0 -109 -51 -160 -160 -160h-240c-109 0 -160 51 -160 160v560h60v-560c0 -76 25 -104 100 -104h240c75 0 100 28 100 104zM404 915h67l-117 -140h-43z" />
    <glyph glyph-name="uni1EE9" unicode="&#x1ee9;" horiz-adv-x="640" 
d="M597 643v5h60v-5c4 -61 -5 -100 -26 -117c-17 -15 -41 -23 -71 -24v-342c0 -109 -51 -160 -160 -160h-160c-109 0 -160 51 -160 160v400h60v-400c0 -76 25 -104 100 -104h160c75 0 100 28 100 104v400h60v-1c19 2 30 8 35 18c6 14 7 36 2 66zM366 763h67l-117 -140h-43z
" />
    <glyph glyph-name="uni1EEA" unicode="&#x1eea;" horiz-adv-x="720" 
d="M580 160v560h40c63 -3 67 24 58 84v5h60v-5c4 -61 -5 -100 -26 -117c-17 -15 -41 -23 -72 -24v-503c0 -109 -51 -160 -160 -160h-240c-109 0 -160 51 -160 160v560h60v-560c0 -76 25 -104 100 -104h240c75 0 100 28 100 104zM373 775l-117 140h67l93 -140h-43z" />
    <glyph glyph-name="uni1EEB" unicode="&#x1eeb;" horiz-adv-x="640" 
d="M597 643v5h60v-5c4 -61 -5 -100 -26 -117c-17 -15 -41 -23 -71 -24v-342c0 -109 -51 -160 -160 -160h-160c-109 0 -160 51 -160 160v400h60v-400c0 -76 25 -104 100 -104h160c75 0 100 28 100 104v400h60v-1c19 2 30 8 35 18c6 14 7 36 2 66zM283 763l93 -140h-43
l-117 140h67z" />
    <glyph glyph-name="uni1EEC" unicode="&#x1eec;" horiz-adv-x="720" 
d="M580 160v560h40c63 -3 67 24 58 84v5h60v-5c4 -61 -5 -100 -26 -117c-17 -15 -41 -23 -72 -24v-503c0 -109 -51 -160 -160 -160h-240c-109 0 -160 51 -160 160v560h60v-560c0 -76 25 -104 100 -104h240c75 0 100 28 100 104zM325 959h83c38 0 57 -21 57 -59v-35
c0 -38 -13 -57 -74 -57v-16c0 -5 -1 -12 -1 -16h-37v68h40c32 0 34 5 34 21v35c0 15 -4 20 -19 20h-83c-17 0 -21 -5 -21 -20v-28h-38v28c0 38 19 59 59 59z" />
    <glyph glyph-name="uni1EED" unicode="&#x1eed;" horiz-adv-x="640" 
d="M597 643v5h60v-5c4 -61 -5 -100 -26 -117c-17 -15 -41 -23 -71 -24v-342c0 -109 -51 -160 -160 -160h-160c-109 0 -160 51 -160 160v400h60v-400c0 -76 25 -104 100 -104h160c75 0 100 28 100 104v400h60v-1c19 2 30 8 35 18c6 14 7 36 2 66zM281 806h83
c38 0 57 -21 57 -59v-35c0 -38 -13 -57 -74 -57v-16c0 -5 -1 -12 -1 -16h-37v68h40c32 0 34 5 34 21v35c0 15 -4 20 -19 20h-83c-17 0 -21 -5 -21 -20v-28h-38v28c0 38 19 59 59 59z" />
    <glyph glyph-name="uni1EEE" unicode="&#x1eee;" horiz-adv-x="720" 
d="M580 160v560h40c63 -3 67 24 58 84v5h60v-5c4 -61 -5 -100 -26 -117c-17 -15 -41 -23 -72 -24v-503c0 -109 -51 -160 -160 -160h-240c-109 0 -160 51 -160 160v560h60v-560c0 -76 25 -104 100 -104h240c75 0 100 28 100 104zM265 815l-7 -18c-12 4 -28 12 -40 17
c2 5 8 19 8 18c15 35 32 55 58 55c14 0 29 -4 46 -11c13 -5 25 -10 38 -15c12 -5 27 -10 38 -14c28 -11 37 -6 50 26c2 5 5 13 7 18c12 -4 28 -12 40 -17c-2 -5 -8 -19 -8 -18c-15 -35 -32 -55 -59 -55c-14 0 -28 4 -45 11c-12 4 -25 9 -38 14c-14 5 -26 10 -38 15
c-31 12 -39 6 -50 -26z" />
    <glyph glyph-name="uni1EEF" unicode="&#x1eef;" horiz-adv-x="640" 
d="M597 643v5h60v-5c4 -61 -5 -100 -26 -117c-17 -15 -41 -23 -71 -24v-342c0 -109 -51 -160 -160 -160h-160c-109 0 -160 51 -160 160v400h60v-400c0 -76 25 -104 100 -104h160c75 0 100 28 100 104v400h60v-1c19 2 30 8 35 18c6 14 7 36 2 66zM222 666l-7 -18
c-12 4 -28 12 -40 17c2 5 8 19 8 18c15 35 32 55 58 55c14 0 29 -4 46 -11c13 -5 25 -10 38 -15c12 -5 27 -10 38 -14c28 -11 37 -6 50 26c2 5 5 13 7 18c12 -4 28 -12 40 -17c-2 -5 -8 -19 -8 -18c-15 -35 -32 -55 -59 -55c-14 0 -28 4 -45 11c-12 4 -25 9 -38 14
c-14 5 -26 10 -38 15c-31 12 -39 6 -50 -26z" />
    <glyph glyph-name="uni1EF0" unicode="&#x1ef0;" horiz-adv-x="720" 
d="M580 160v560h40c63 -3 67 24 58 84v5h60v-5c4 -61 -5 -100 -26 -117c-17 -15 -41 -23 -72 -24v-503c0 -109 -51 -160 -160 -160h-240c-109 0 -160 51 -160 160v560h60v-560c0 -76 25 -104 100 -104h240c75 0 100 28 100 104zM331 -78c15 16 39 16 54 1s15 -39 0 -54
s-39 -15 -54 0s-15 40 0 53z" />
    <glyph glyph-name="uni1EF1" unicode="&#x1ef1;" horiz-adv-x="640" 
d="M597 643v5h60v-5c4 -61 -5 -100 -26 -117c-17 -15 -41 -23 -71 -24v-342c0 -109 -51 -160 -160 -160h-160c-109 0 -160 51 -160 160v400h60v-400c0 -76 25 -104 100 -104h160c75 0 100 28 100 104v400h60v-1c19 2 30 8 35 18c6 14 7 36 2 66zM288 -78c15 16 39 16 54 1
s15 -39 0 -54s-39 -15 -54 0s-15 40 0 53z" />
    </font>
</defs>
</svg>
